<?xml version="1.0" encoding="utf-8"?>
<!-- Generator: Adobe Illustrator 24.0.0, SVG Export Plug-In . SVG Version: 6.00 Build 0)  -->
<svg version="1.1" id="Calque_1" xmlns="http://www.w3.org/2000/svg" xmlns:xlink="http://www.w3.org/1999/xlink" x="0px" y="0px"
	 viewBox="0 0 640 4000" style="enable-background:new 0 0 640 4000;" xml:space="preserve">
<style type="text/css">
	.st0{opacity:0.79;enable-background:new    ;}
	.st1{opacity:8.000000e-02;}
	.st2{fill:none;stroke:#FFFFFF;stroke-width:5;stroke-miterlimit:10;}
	.st3{opacity:0.47;stroke:#FFFFFF;stroke-width:5;stroke-miterlimit:10;enable-background:new    ;}
	.st4{opacity:0.13;stroke:#FFFFFF;stroke-width:5;stroke-miterlimit:10;enable-background:new    ;}
	.st5{opacity:0.47;fill:none;stroke:#FFFFFF;stroke-width:5;stroke-miterlimit:10;enable-background:new    ;}
	.st6{opacity:0.16;}
	.st7{fill:none;stroke:#000000;stroke-width:4;stroke-miterlimit:10;}
	.st8{opacity:0.47;stroke:#000000;stroke-width:4;stroke-miterlimit:10;enable-background:new    ;}
	.st9{opacity:0.13;stroke:#000000;stroke-width:4;stroke-miterlimit:10;enable-background:new    ;}
	.st10{opacity:0.47;fill:none;stroke:#000000;stroke-width:4;stroke-miterlimit:10;enable-background:new    ;}
	.st11{display:none;}
	.st12{display:inline;fill:#A84333;}
	.st13{display:none;fill:#A84333;}
	.st14{display:none;fill:none;stroke:#A84333;stroke-width:5;stroke-miterlimit:10;}
	.st15{display:inline;fill:none;stroke:#A84333;stroke-width:5;stroke-miterlimit:10;}
	.st16{display:none;fill:none;stroke:#3036A7;stroke-width:5;stroke-miterlimit:10;}
	.st17{display:none;fill:#EDBC43;enable-background:new    ;}
	.st18{font-family:'Politica-BoldXp';}
	.st19{font-size:12px;}
	.st20{font-family:'ArialMT';}
	.st21{display:none;fill:none;stroke:#A84333;stroke-miterlimit:10;enable-background:new    ;}
	.st22{display:none;fill:none;}
	.st23{font-size:11.5906px;}
	.st24{font-size:11.5936px;}
	.st25{font-size:11.5584px;}
	.st26{font-family:'Politica-ExtraBold';}
	.st27{font-size:31.7756px;}
	.st28{display:none;fill:none;stroke:#A84333;stroke-width:2;stroke-miterlimit:10;}
	.st29{display:none;fill:none;stroke:#EDBC43;stroke-miterlimit:10;}
	.st30{display:inline;fill:none;stroke:#A84333;stroke-miterlimit:10;}
	.st31{display:none;opacity:0.54;fill:#F1F1F1;stroke:#A84333;stroke-width:2;stroke-miterlimit:10;enable-background:new    ;}
	.st32{display:none;fill:none;stroke:#A84333;stroke-width:0.75;stroke-miterlimit:10;}
	.st33{display:none;fill:none;stroke:#A84333;stroke-width:4.9998;stroke-miterlimit:9.9996;}
	.st34{display:none;fill:#A84333;enable-background:new    ;}
	.st35{font-size:30.2505px;}
	.st36{display:none;fill:none;stroke:#A84333;stroke-width:5.0004;stroke-miterlimit:10.0009;}
	.st37{display:inline;}
	.st38{enable-background:new    ;}
	.st39{fill:#722E23;}
	.st40{clip-path:url(#SVGID_2_);enable-background:new    ;}
	.st41{fill:#57231B;}
	.st42{clip-path:url(#SVGID_4_);enable-background:new    ;}
	.st43{fill:#7B6223;}
	.st44{fill:#CBA139;}
	.st45{fill:#B58F33;}
	.st46{clip-path:url(#SVGID_6_);enable-background:new    ;}
	.st47{fill:#682A20;}
	.st48{fill:#6C2B21;}
	.st49{fill:#6F2C22;}
	.st50{fill:#762F24;}
	.st51{fill:#65281F;}
	.st52{fill:#61271E;}
	.st53{fill:#5E261D;}
	.st54{fill:#5B241C;}
	.st55{fill:#90392C;}
	.st56{font-size:32.0398px;}
</style>
<g id="Calque_2_1_">
	<rect x="-0.8" y="-26" class="st0" width="655.7" height="4156.8"/>
</g>
<g id="Calque_3">
	<g class="st1">
		<polygon class="st2" points="134.4,2276.4 49.2,2276.4 6.7,2190.7 49.2,2104.9 134.5,2104.9 177,2190.7 		"/>
		<polygon class="st2" points="134.4,2448.1 49.2,2448.1 6.7,2362.4 49.2,2276.5 134.4,2276.5 176.9,2362.4 		"/>
		<polygon class="st3" points="134.4,2619.9 49.2,2619.9 6.7,2534 49.2,2448.3 134.4,2448.3 176.9,2534 		"/>
		<polygon class="st4" points="134.4,2791.5 49.2,2791.5 6.7,2705.7 49.2,2620 134.4,2620 176.9,2705.7 		"/>
		<polygon class="st2" points="134.4,2963.2 49.2,2963.2 6.7,2877.5 49.2,2791.6 134.4,2791.6 176.9,2877.5 		"/>
		<polygon class="st3" points="134.4,3134.8 49.2,3134.8 6.7,3049.1 49.2,2963.3 134.4,2963.3 176.9,3049.1 		"/>
		<polygon class="st2" points="134.4,3306.6 49.2,3306.6 6.7,3220.8 49.2,3135.1 134.4,3135.1 176.9,3220.8 		"/>
		<polygon class="st2" points="134.4,3478.3 49.2,3478.3 6.7,3392.4 49.2,3306.7 134.4,3306.7 176.9,3392.4 		"/>
		<polygon class="st4" points="134.4,3649.9 49.1,3649.9 6.6,3564.2 49.2,3478.4 134.4,3478.4 176.9,3564.2 		"/>
		<polygon class="st2" points="134.4,3821.6 49.1,3821.6 6.6,3735.9 49.1,3650 134.4,3650 176.9,3735.9 		"/>
		<polygon class="st3" points="134.4,3993.4 49.1,3993.3 6.6,3907.5 49.1,3821.7 134.4,3821.7 176.9,3907.5 		"/>
		<polygon class="st2" points="134.3,4165 49.1,4165 6.6,4079.2 49.1,3993.5 134.4,3993.5 176.9,4079.2 		"/>
		<polygon class="st4" points="134.3,4336.7 49.1,4336.7 6.6,4250.8 49.1,4165.1 134.3,4165.1 176.8,4250.8 		"/>
		<polygon class="st3" points="134.3,4508.3 49.1,4508.3 6.6,4422.6 49.1,4336.8 134.3,4336.8 176.8,4422.6 		"/>
		<polygon class="st2" points="134.3,4680 49.1,4680 6.6,4594.3 49.1,4508.4 134.3,4508.4 176.8,4594.3 		"/>
		<polygon class="st3" points="134.3,4851.8 49.1,4851.8 6.6,4765.9 49.1,4680.2 134.3,4680.2 176.8,4765.9 		"/>
		<polygon class="st2" points="134.3,5023.4 49.1,5023.4 6.6,4937.6 49.1,4851.9 134.3,4851.9 176.8,4937.6 		"/>
		<polygon class="st4" points="134.3,5195.1 49.1,5195.1 6.6,5109.4 49.1,5023.5 134.3,5023.5 176.8,5109.4 		"/>
		<polygon class="st3" points="134.3,5366.7 49.1,5366.7 6.6,5281 49.1,5195.2 134.3,5195.2 176.8,5281 		"/>
		<polygon class="st2" points="134.6,44.5 49.3,44.5 6.8,-41.2 49.4,-127 134.6,-127 177.1,-41.2 		"/>
		<polygon class="st2" points="134.6,216.2 49.3,216.2 6.8,130.5 49.3,44.6 134.6,44.6 177.1,130.5 		"/>
		<polygon class="st3" points="134.6,388 49.3,387.9 6.8,302.1 49.3,216.4 134.6,216.4 177.1,302.1 		"/>
		<polygon class="st2" points="134.5,559.6 49.3,559.6 6.8,473.8 49.3,388.1 134.6,388.1 177.1,473.8 		"/>
		<polygon class="st2" points="134.5,731.3 49.3,731.3 6.8,645.6 49.3,559.7 134.5,559.7 177,645.6 		"/>
		<polygon class="st2" points="134.5,902.9 49.3,902.9 6.8,817.2 49.3,731.4 134.5,731.4 177,817.2 		"/>
		<polygon class="st3" points="134.5,1074.7 49.3,1074.7 6.8,988.9 49.3,903.2 134.5,903.2 177,988.9 		"/>
		<polygon class="st2" points="134.5,1246.4 49.3,1246.4 6.8,1160.5 49.3,1074.8 134.5,1074.8 177,1160.5 		"/>
		<polygon class="st2" points="134.5,1418 49.3,1418 6.8,1332.3 49.3,1246.5 134.5,1246.5 177,1332.3 		"/>
		<polygon class="st3" points="134.5,1589.7 49.3,1589.7 6.8,1504 49.3,1418.1 134.5,1418.1 177,1504 		"/>
		<polygon class="st2" points="134.5,1761.5 49.2,1761.4 6.7,1675.6 49.3,1589.8 134.5,1589.8 177,1675.6 		"/>
		<polygon class="st2" points="134.5,1933.1 49.2,1933.1 6.7,1847.3 49.2,1761.6 134.5,1761.6 177,1847.3 		"/>
		<polygon class="st3" points="134.5,2104.8 49.2,2104.8 6.7,2018.9 49.2,1933.2 134.5,1933.2 177,2018.9 		"/>
		<polygon class="st2" points="263.6,-41.2 178.5,-41.2 135.9,-127 178.5,-212.7 263.6,-212.7 306.2,-127 		"/>
		<polygon class="st3" points="263.6,130.5 178.5,130.5 135.9,44.6 178.5,-41.1 263.6,-41.1 306.2,44.7 		"/>
		<polygon class="st4" points="263.6,302.1 178.5,302.1 135.9,216.4 178.5,130.6 263.6,130.6 306.2,216.4 		"/>
		<polygon class="st2" points="263.6,473.8 178.5,473.8 135.9,388.1 178.5,302.3 263.6,302.3 306.2,388.1 		"/>
		<polygon class="st2" points="263.6,645.6 178.5,645.6 135.8,559.7 178.5,474 263.6,474 306.2,559.7 		"/>
		<polygon class="st4" points="263.6,817.2 178.5,817.2 135.8,731.4 178.5,645.7 263.6,645.7 306.2,731.4 		"/>
		<polygon class="st5" points="263.6,988.9 178.4,988.9 135.8,903.2 178.5,817.3 263.6,817.4 306.2,903.2 		"/>
		<polygon class="st2" points="263.6,1160.5 178.4,1160.5 135.8,1074.8 178.4,989 263.6,989 306.2,1074.8 		"/>
		<polygon class="st3" points="263.5,1332.3 178.4,1332.3 135.8,1246.5 178.4,1160.7 263.6,1160.7 306.2,1246.5 		"/>
		<polygon class="st2" points="263.5,1504 178.4,1504 135.8,1418.1 178.4,1332.4 263.5,1332.4 306.2,1418.1 		"/>
		<polygon class="st2" points="263.5,1675.6 178.4,1675.6 135.8,1589.8 178.4,1504.1 263.5,1504.1 306.1,1589.8 		"/>
		<polygon class="st3" points="263.5,1847.3 178.4,1847.3 135.8,1761.6 178.4,1675.8 263.5,1675.8 306.1,1761.6 		"/>
		<polygon class="st4" points="263.5,2018.9 178.4,2018.9 135.8,1933.2 178.4,1847.4 263.5,1847.4 306.1,1933.2 		"/>
		<polygon class="st2" points="263.5,2190.7 178.4,2190.7 135.8,2104.9 178.4,2019.2 263.5,2019.2 306.1,2104.9 		"/>
		<polygon class="st3" points="263.5,2362.4 178.4,2362.4 135.8,2276.5 178.4,2190.8 263.5,2190.8 306.1,2276.6 		"/>
		<polygon class="st4" points="263.5,2534 178.4,2534 135.7,2448.3 178.4,2362.5 263.5,2362.5 306.1,2448.3 		"/>
		<polygon class="st2" points="263.5,2705.7 178.3,2705.7 135.7,2620 178.4,2534.2 263.5,2534.2 306.1,2620 		"/>
		<polygon class="st3" points="263.5,2877.5 178.3,2877.5 135.7,2791.6 178.3,2705.9 263.5,2705.9 306.1,2791.6 		"/>
		<polygon class="st2" points="263.4,3049.1 178.3,3049.1 135.7,2963.3 178.3,2877.6 263.5,2877.6 306.1,2963.3 		"/>
		<polygon class="st4" points="263.4,3220.8 178.3,3220.8 135.7,3135.1 178.3,3049.2 263.4,3049.3 306.1,3135.1 		"/>
		<polygon class="st2" points="263.4,3392.4 178.3,3392.4 135.7,3306.7 178.3,3220.9 263.4,3220.9 306,3306.7 		"/>
		<polygon class="st3" points="263.4,3564.2 178.3,3564.2 135.7,3478.4 178.3,3392.6 263.4,3392.6 306,3478.4 		"/>
		<polygon class="st2" points="263.4,3735.9 178.3,3735.9 135.7,3650 178.3,3564.3 263.4,3564.3 306,3650 		"/>
		<polygon class="st4" points="263.4,3907.5 178.3,3907.5 135.7,3821.7 178.3,3736 263.4,3736 306,3821.7 		"/>
		<polygon class="st2" points="263.4,4079.2 178.3,4079.2 135.7,3993.5 178.3,3907.7 263.4,3907.7 306,3993.5 		"/>
		<polygon class="st3" points="263.4,4250.8 178.3,4250.8 135.7,4165.1 178.3,4079.3 263.4,4079.3 306,4165.1 		"/>
		<polygon class="st2" points="263.4,4422.6 178.3,4422.6 135.6,4336.8 178.3,4251.1 263.4,4251.1 306,4336.8 		"/>
		<polygon class="st3" points="263.4,4594.3 178.2,4594.3 135.6,4508.4 178.3,4422.7 263.4,4422.8 306,4508.5 		"/>
		<polygon class="st4" points="263.4,4765.9 178.2,4765.9 135.6,4680.2 178.2,4594.4 263.4,4594.4 306,4680.2 		"/>
		<polygon class="st2" points="263.3,4937.6 178.2,4937.6 135.6,4851.9 178.2,4766.1 263.4,4766.1 306,4851.9 		"/>
		<polygon class="st3" points="263.3,5109.4 178.2,5109.4 135.6,5023.5 178.2,4937.8 263.3,4937.8 306,5023.5 		"/>
		<polygon class="st2" points="263.3,5281 178.2,5281 135.6,5195.2 178.2,5109.5 263.3,5109.5 305.9,5195.2 		"/>
		<polygon class="st2" points="392.5,2276.4 307.2,2276.4 264.7,2190.7 307.2,2104.9 392.5,2104.9 435,2190.7 		"/>
		<polygon class="st2" points="392.5,2448.1 307.2,2448.1 264.7,2362.4 307.2,2276.6 392.5,2276.6 435,2362.4 		"/>
		<polygon class="st3" points="392.5,2619.9 307.2,2619.9 264.7,2534 307.2,2448.3 392.5,2448.3 435,2534 		"/>
		<polygon class="st2" points="392.5,2791.5 307.2,2791.5 264.7,2705.7 307.2,2620 392.5,2620 435,2705.7 		"/>
		<polygon class="st4" points="392.5,2963.2 307.2,2963.2 264.7,2877.5 307.2,2791.6 392.5,2791.6 435,2877.5 		"/>
		<polygon class="st2" points="392.5,3134.8 307.1,3134.8 264.6,3049.1 307.2,2963.3 392.5,2963.3 435,3049.1 		"/>
		<polygon class="st3" points="392.5,3306.6 307.1,3306.6 264.6,3220.8 307.1,3135.1 392.5,3135.1 435,3220.8 		"/>
		<polygon class="st4" points="392.5,3478.3 307.1,3478.3 264.6,3392.4 307.1,3306.7 392.5,3306.7 435,3392.4 		"/>
		<polygon class="st2" points="392.5,3649.9 307.1,3649.9 264.6,3564.2 307.1,3478.4 392.5,3478.4 435,3564.2 		"/>
		<polygon class="st3" points="392.4,3821.6 307.1,3821.6 264.6,3735.9 307.1,3650 392.5,3650.1 435,3735.9 		"/>
		<polygon class="st2" points="392.4,3993.4 307.1,3993.4 264.6,3907.5 307.1,3821.7 392.4,3821.7 434.9,3907.5 		"/>
		<polygon class="st3" points="392.4,4165 307.1,4165 264.6,4079.2 307.1,3993.5 392.4,3993.5 434.9,4079.2 		"/>
		<polygon class="st4" points="392.4,4336.7 307.1,4336.7 264.6,4250.8 307.1,4165.1 392.4,4165.1 434.9,4250.8 		"/>
		<polygon class="st2" points="392.4,4508.3 307.1,4508.3 264.6,4422.6 307.1,4336.8 392.4,4336.8 434.9,4422.6 		"/>
		<polygon class="st2" points="392.4,4680 307.1,4680 264.6,4594.3 307.1,4508.5 392.4,4508.5 434.9,4594.3 		"/>
		<polygon class="st3" points="392.4,4851.8 307.1,4851.8 264.6,4765.9 307.1,4680.2 392.4,4680.2 434.9,4765.9 		"/>
		<polygon class="st2" points="392.4,5023.4 307,5023.4 264.5,4937.6 307.1,4851.9 392.4,4851.9 434.9,4937.6 		"/>
		<polygon class="st5" points="392.4,5195.1 307,5195.1 264.5,5109.4 307,5023.5 392.4,5023.6 434.9,5109.4 		"/>
		<polygon class="st3" points="392.4,5366.7 307,5366.7 264.5,5281 307,5195.2 392.4,5195.2 434.9,5281 		"/>
		<g>
			<polygon class="st2" points="392.7,44.5 307.3,44.5 264.8,-41.2 307.3,-127 392.7,-127 435.2,-41.2 			"/>
			<polygon class="st2" points="392.6,216.2 307.3,216.2 264.8,130.5 307.3,44.7 392.7,44.7 435.2,130.5 			"/>
			<polygon class="st2" points="392.6,388 307.3,388 264.8,302.1 307.3,216.4 392.6,216.4 435.1,302.1 			"/>
			<polygon class="st3" points="392.6,559.6 307.3,559.6 264.8,473.8 307.3,388.1 392.6,388.1 435.1,473.8 			"/>
			<polygon class="st2" points="392.6,731.3 307.3,731.3 264.8,645.6 307.3,559.7 392.6,559.7 435.1,645.6 			"/>
			<polygon class="st2" points="392.6,902.9 307.3,902.9 264.8,817.2 307.3,731.4 392.6,731.4 435.1,817.2 			"/>
			<polygon class="st4" points="392.6,1074.7 307.3,1074.7 264.8,988.9 307.3,903.2 392.6,903.2 435.1,988.9 			"/>
			<polygon class="st2" points="392.6,1246.4 307.3,1246.4 264.7,1160.5 307.3,1074.8 392.6,1074.8 435.1,1160.5 			"/>
			<polygon class="st2" points="392.6,1418 307.2,1418 264.7,1332.3 307.3,1246.5 392.6,1246.5 435.1,1332.3 			"/>
			<polygon class="st4" points="392.6,1589.7 307.2,1589.7 264.7,1504 307.2,1418.1 392.6,1418.2 435.1,1504 			"/>
			<polygon class="st5" points="392.6,1761.5 307.2,1761.5 264.7,1675.6 307.2,1589.8 392.6,1589.8 435.1,1675.6 			"/>
			<polygon class="st2" points="392.6,1933.1 307.2,1933.1 264.7,1847.3 307.2,1761.6 392.6,1761.6 435.1,1847.3 			"/>
			<polygon class="st3" points="392.5,2104.8 307.2,2104.8 264.7,2018.9 307.2,1933.2 392.6,1933.2 435.1,2018.9 			"/>
			<g>
				<polygon class="st2" points="521.7,-41.2 436.5,-41.2 394,-127 436.5,-212.7 521.7,-212.7 564.3,-127 				"/>
				<polygon class="st2" points="521.7,130.5 436.5,130.5 394,44.7 436.5,-41 521.7,-41 564.3,44.7 				"/>
				<polygon class="st3" points="521.7,302.1 436.5,302.1 394,216.4 436.5,130.6 521.7,130.6 564.3,216.4 				"/>
				<polygon class="st2" points="521.7,473.8 436.4,473.8 393.9,388.1 436.5,302.3 521.7,302.3 564.3,388.1 				"/>
				<polygon class="st2" points="521.7,645.6 436.4,645.6 393.9,559.7 436.4,474 521.7,474.1 564.3,559.8 				"/>
				<polygon class="st3" points="521.7,817.2 436.4,817.2 393.9,731.4 436.4,645.7 521.7,645.7 564.3,731.4 				"/>
				<polygon class="st2" points="521.6,988.9 436.4,988.9 393.9,903.2 436.4,817.4 521.7,817.4 564.3,903.2 				"/>
				<polygon class="st3" points="521.6,1160.5 436.4,1160.5 393.9,1074.8 436.4,989 521.6,989 564.3,1074.8 				"/>
				<polygon class="st4" points="521.6,1332.3 436.4,1332.3 393.9,1246.5 436.4,1160.7 521.6,1160.7 564.2,1246.5 				"/>
				<polygon class="st3" points="521.6,1504 436.4,1504 393.9,1418.2 436.4,1332.5 521.6,1332.5 564.2,1418.2 				"/>
				<polygon class="st2" points="521.6,1675.6 436.4,1675.6 393.9,1589.8 436.4,1504.1 521.6,1504.1 564.2,1589.8 				"/>
				<polygon class="st2" points="521.6,1847.3 436.4,1847.3 393.9,1761.6 436.4,1675.8 521.6,1675.8 564.2,1761.6 				"/>
				<polygon class="st4" points="521.6,2019 436.4,2018.9 393.9,1933.2 436.4,1847.4 521.6,1847.4 564.2,1933.3 				"/>
				<polygon class="st2" points="521.6,2190.7 436.3,2190.7 393.8,2104.9 436.4,2019.2 521.6,2019.2 564.2,2104.9 				"/>
				<polygon class="st4" points="521.6,2362.4 436.3,2362.4 393.8,2276.6 436.3,2190.9 521.6,2190.9 564.2,2276.6 				"/>
				<polygon class="st2" points="521.6,2534 436.3,2534 393.8,2448.3 436.3,2362.5 521.6,2362.5 564.2,2448.3 				"/>
				<polygon class="st4" points="521.6,2705.7 436.3,2705.7 393.8,2620 436.3,2534.2 521.6,2534.2 564.2,2620 				"/>
				<polygon class="st2" points="521.5,2877.5 436.3,2877.5 393.8,2791.6 436.3,2706 521.6,2706 564.2,2791.7 				"/>
				<polygon class="st3" points="521.5,3049.1 436.3,3049.1 393.8,2963.3 436.3,2877.6 521.5,2877.6 564.2,2963.3 				"/>
				<polygon class="st2" points="521.5,3220.8 436.3,3220.8 393.8,3135.1 436.3,3049.3 521.5,3049.3 564.1,3135.1 				"/>
				<polygon class="st2" points="521.5,3392.4 436.3,3392.4 393.8,3306.7 436.3,3220.9 521.5,3220.9 564.1,3306.8 				"/>
				<polygon class="st3" points="521.5,3564.2 436.3,3564.2 393.8,3478.4 436.3,3392.6 521.5,3392.6 564.1,3478.4 				"/>
				<polygon class="st4" points="521.5,3735.9 436.3,3735.9 393.8,3650.1 436.3,3564.4 521.5,3564.4 564.1,3650.1 				"/>
				<polygon class="st2" points="521.5,3907.5 436.3,3907.5 393.8,3821.7 436.3,3736 521.5,3736 564.1,3821.7 				"/>
				<polygon class="st4" points="521.5,4079.2 436.2,4079.2 393.7,3993.5 436.3,3907.7 521.5,3907.7 564.1,3993.5 				"/>
				<polygon class="st2" points="521.5,4250.9 436.2,4250.8 393.7,4165.1 436.2,4079.3 521.5,4079.3 564.1,4165.2 				"/>
				<polygon class="st3" points="521.5,4422.6 436.2,4422.6 393.7,4336.8 436.2,4251.1 521.5,4251.1 564.1,4336.8 				"/>
				<polygon class="st4" points="521.4,4594.3 436.2,4594.3 393.7,4508.5 436.2,4422.8 521.5,4422.8 564.1,4508.5 				"/>
				<polygon class="st2" points="521.4,4765.9 436.2,4765.9 393.7,4680.2 436.2,4594.4 521.4,4594.4 564.1,4680.2 				"/>
				<polygon class="st2" points="521.4,4937.6 436.2,4937.6 393.7,4851.9 436.2,4766.1 521.4,4766.1 564,4851.9 				"/>
				<polygon class="st4" points="521.4,5109.4 436.2,5109.4 393.7,5023.6 436.2,4937.9 521.4,4937.9 564,5023.6 				"/>
				<polygon class="st2" points="521.4,5281 436.2,5281 393.7,5195.2 436.2,5109.5 521.4,5109.5 564,5195.2 				"/>
			</g>
		</g>
		<polygon class="st2" points="652,2274.4 566.8,2274.4 524.3,2188.7 566.8,2102.9 652,2102.9 694.5,2188.7 		"/>
		<polygon class="st3" points="652,2446.1 566.8,2446.1 524.3,2360.4 566.8,2274.5 652,2274.5 694.5,2360.4 		"/>
		<polygon class="st2" points="652,2617.9 566.8,2617.8 524.3,2532 566.8,2446.3 652,2446.3 694.5,2532 		"/>
		<polygon class="st3" points="652,2789.5 566.8,2789.5 524.3,2703.7 566.8,2618 652,2618 694.5,2703.7 		"/>
		<polygon class="st2" points="652,2961.2 566.8,2961.2 524.3,2875.5 566.8,2789.6 652,2789.6 694.5,2875.5 		"/>
		<polygon class="st2" points="652,3132.8 566.8,3132.8 524.3,3047.1 566.8,2961.3 652,2961.3 694.5,3047.1 		"/>
		<polygon class="st4" points="652,3304.6 566.7,3304.6 524.2,3218.8 566.8,3133.1 652,3133.1 694.5,3218.8 		"/>
		<polygon class="st2" points="652,3476.3 566.7,3476.3 524.2,3390.4 566.7,3304.7 652,3304.7 694.5,3390.4 		"/>
		<polygon class="st2" points="652,3647.9 566.7,3647.9 524.2,3562.2 566.7,3476.4 652,3476.4 694.5,3562.2 		"/>
		<polygon class="st2" points="651.9,3819.6 566.7,3819.6 524.2,3733.9 566.7,3648 652,3648 694.5,3733.9 		"/>
		<polygon class="st3" points="651.9,3991.3 566.7,3991.3 524.2,3905.5 566.7,3819.7 651.9,3819.7 694.4,3905.5 		"/>
		<polygon class="st2" points="651.9,4163 566.7,4163 524.2,4077.2 566.7,3991.5 651.9,3991.5 694.4,4077.2 		"/>
		<polygon class="st4" points="651.9,4334.7 566.7,4334.7 524.2,4248.8 566.7,4163.1 651.9,4163.1 694.4,4248.8 		"/>
		<polygon class="st2" points="651.9,4506.3 566.7,4506.3 524.2,4420.6 566.7,4334.8 651.9,4334.8 694.4,4420.6 		"/>
		<polygon class="st3" points="651.9,4678 566.7,4678 524.2,4592.3 566.7,4506.4 651.9,4506.4 694.4,4592.3 		"/>
		<polygon class="st4" points="651.9,4849.8 566.7,4849.7 524.2,4763.9 566.7,4678.2 651.9,4678.2 694.4,4763.9 		"/>
		<polygon class="st3" points="651.9,5021.4 566.7,5021.4 524.2,4935.6 566.7,4849.9 651.9,4849.9 694.4,4935.6 		"/>
		<polygon class="st2" points="651.9,5193.1 566.6,5193.1 524.1,5107.4 566.7,5021.5 651.9,5021.5 694.4,5107.4 		"/>
		<polygon class="st4" points="651.9,5364.7 566.6,5364.7 524.1,5279 566.6,5193.2 651.9,5193.2 694.4,5279 		"/>
		<polygon class="st2" points="652.2,42.5 566.9,42.5 524.4,-43.2 566.9,-129 652.2,-129 694.7,-43.2 		"/>
		<polygon class="st4" points="652.1,214.2 566.9,214.2 524.4,128.5 566.9,42.6 652.2,42.6 694.7,128.5 		"/>
		<polygon class="st2" points="652.1,385.9 566.9,385.9 524.4,300.1 566.9,214.4 652.1,214.4 694.6,300.1 		"/>
		<polygon class="st4" points="652.1,557.6 566.9,557.6 524.4,471.8 566.9,386.1 652.1,386.1 694.6,471.8 		"/>
		<polygon class="st2" points="652.1,729.3 566.9,729.3 524.4,643.6 566.9,557.7 652.1,557.7 694.6,643.6 		"/>
		<polygon class="st4" points="652.1,900.9 566.9,900.9 524.4,815.2 566.9,729.4 652.1,729.4 694.6,815.2 		"/>
		<polygon class="st2" points="652.1,1072.7 566.9,1072.7 524.4,986.9 566.9,901.2 652.1,901.2 694.6,986.9 		"/>
		<polygon class="st2" points="652.1,1244.4 566.9,1244.3 524.4,1158.5 566.9,1072.8 652.1,1072.8 694.6,1158.5 		"/>
		<polygon class="st2" points="652.1,1416 566.9,1416 524.4,1330.3 566.9,1244.5 652.1,1244.5 694.6,1330.3 		"/>
		<polygon class="st2" points="652.1,1587.7 566.8,1587.7 524.3,1502 566.9,1416.1 652.1,1416.1 694.6,1502 		"/>
		<polygon class="st3" points="652.1,1759.4 566.8,1759.4 524.3,1673.6 566.8,1587.8 652.1,1587.8 694.6,1673.6 		"/>
		<polygon class="st2" points="652.1,1931.1 566.8,1931.1 524.3,1845.3 566.8,1759.6 652.1,1759.6 694.6,1845.3 		"/>
		<polygon class="st3" points="652,2102.8 566.8,2102.8 524.3,2016.9 566.8,1931.2 652.1,1931.2 694.6,2016.9 		"/>
		<polygon class="st2" points="781.2,-43.2 696.1,-43.2 653.5,-129 696.1,-214.7 781.2,-214.7 823.8,-129 		"/>
		<polygon class="st3" points="781.2,128.5 696.1,128.5 653.5,42.6 696.1,-43.1 781.2,-43.1 823.8,42.6 		"/>
		<polygon class="st2" points="781.2,300.1 696.1,300.1 653.5,214.4 696.1,128.6 781.2,128.6 823.8,214.4 		"/>
		<polygon class="st3" points="781.2,471.8 696.1,471.8 653.4,386.1 696.1,300.3 781.2,300.3 823.8,386.1 		"/>
		<polygon class="st2" points="781.2,643.6 696,643.6 653.4,557.7 696.1,472 781.2,472 823.8,557.7 		"/>
		<polygon class="st2" points="781.2,815.2 696,815.2 653.4,729.4 696,643.7 781.2,643.7 823.8,729.4 		"/>
		<polygon class="st3" points="781.1,986.9 696,986.9 653.4,901.2 696,815.3 781.2,815.3 823.8,901.2 		"/>
		<polygon class="st2" points="781.1,1158.5 696,1158.5 653.4,1072.8 696,987 781.1,987 823.8,1072.8 		"/>
		<polygon class="st3" points="781.1,1330.3 696,1330.3 653.4,1244.5 696,1158.7 781.1,1158.7 823.7,1244.5 		"/>
		<polygon class="st2" points="781.1,1502 696,1502 653.4,1416.1 696,1330.4 781.1,1330.4 823.7,1416.1 		"/>
		<polygon class="st4" points="781.1,1673.6 696,1673.6 653.4,1587.8 696,1502.1 781.1,1502.1 823.7,1587.8 		"/>
		<polygon class="st2" points="781.1,1845.3 696,1845.3 653.4,1759.6 696,1673.7 781.1,1673.8 823.7,1759.6 		"/>
		<polygon class="st2" points="781.1,2016.9 696,2016.9 653.4,1931.2 696,1845.4 781.1,1845.4 823.7,1931.2 		"/>
		<polygon class="st2" points="781.1,2188.7 696,2188.7 653.3,2102.9 696,2017.2 781.1,2017.2 823.7,2102.9 		"/>
		<polygon class="st4" points="781.1,2360.4 696,2360.4 653.3,2274.5 696,2188.8 781.1,2188.8 823.7,2274.5 		"/>
		<polygon class="st2" points="781.1,2532 695.9,2532 653.3,2446.3 696,2360.5 781.1,2360.5 823.7,2446.3 		"/>
		<polygon class="st4" points="781.1,2703.7 695.9,2703.7 653.3,2618 695.9,2532.2 781.1,2532.2 823.7,2618 		"/>
		<polygon class="st2" points="781,2875.5 695.9,2875.5 653.3,2789.6 695.9,2703.9 781.1,2703.9 823.7,2789.6 		"/>
		<polygon class="st4" points="781,3047.1 695.9,3047.1 653.3,2961.3 695.9,2875.6 781,2875.6 823.7,2961.3 		"/>
		<polygon class="st3" points="781,3218.8 695.9,3218.8 653.3,3133.1 695.9,3047.2 781,3047.2 823.6,3133.1 		"/>
		<polygon class="st2" points="781,3390.4 695.9,3390.4 653.3,3304.7 695.9,3218.9 781,3218.9 823.6,3304.7 		"/>
		<polygon class="st4" points="781,3562.2 695.9,3562.2 653.3,3476.4 695.9,3390.6 781,3390.6 823.6,3476.4 		"/>
		<polygon class="st3" points="781,3733.9 695.9,3733.9 653.3,3648 695.9,3562.3 781,3562.3 823.6,3648 		"/>
		<polygon class="st4" points="781,3905.5 695.9,3905.5 653.3,3819.7 695.9,3734 781,3734 823.6,3819.7 		"/>
		<polygon class="st2" points="781,4077.2 695.9,4077.2 653.2,3991.5 695.9,3905.6 781,3905.7 823.6,3991.5 		"/>
		<polygon class="st3" points="781,4248.8 695.8,4248.8 653.2,4163.1 695.9,4077.3 781,4077.3 823.6,4163.1 		"/>
		<polygon class="st2" points="781,4420.6 695.8,4420.6 653.2,4334.8 695.8,4249.1 781,4249.1 823.6,4334.8 		"/>
		<polygon class="st4" points="780.9,4592.3 695.8,4592.3 653.2,4506.4 695.8,4420.7 781,4420.7 823.6,4506.4 		"/>
		<polygon class="st2" points="780.9,4763.9 695.8,4763.9 653.2,4678.2 695.8,4592.4 780.9,4592.4 823.6,4678.2 		"/>
		<polygon class="st2" points="780.9,4935.6 695.8,4935.6 653.2,4849.9 695.8,4764.1 780.9,4764.1 823.5,4849.9 		"/>
		<polygon class="st4" points="780.9,5107.4 695.8,5107.4 653.2,5021.5 695.8,4935.8 780.9,4935.8 823.5,5021.5 		"/>
		<polygon class="st3" points="780.9,5279 695.8,5279 653.2,5193.2 695.8,5107.5 780.9,5107.5 823.5,5193.2 		"/>
	</g>
	<g class="st6">
		<polygon class="st7" points="44.3,2286.7 -40.9,2286.7 -83.4,2201 -40.9,2115.1 44.3,2115.2 86.8,2201 		"/>
		<polygon class="st7" points="44.3,2458.3 -40.9,2458.3 -83.4,2372.6 -40.9,2286.8 44.3,2286.8 86.8,2372.6 		"/>
		<polygon class="st8" points="44.3,2630.1 -40.9,2630.1 -83.4,2544.3 -40.9,2458.6 44.3,2458.6 86.8,2544.3 		"/>
		<polygon class="st9" points="44.3,2801.8 -40.9,2801.8 -83.4,2715.9 -40.9,2630.2 44.3,2630.2 86.8,2715.9 		"/>
		<polygon class="st7" points="44.3,2973.4 -41,2973.4 -83.5,2887.7 -40.9,2801.9 44.3,2801.9 86.8,2887.7 		"/>
		<polygon class="st8" points="44.3,3145.1 -41,3145.1 -83.5,3059.4 -41,2973.6 44.3,2973.6 86.8,3059.4 		"/>
		<polygon class="st7" points="44.3,3316.9 -41,3316.9 -83.5,3231 -41,3145.3 44.3,3145.3 86.8,3231 		"/>
		<polygon class="st7" points="44.2,3488.5 -41,3488.5 -83.5,3402.7 -41,3317 44.3,3317 86.8,3402.7 		"/>
		<polygon class="st9" points="44.2,3660.2 -41,3660.2 -83.5,3574.5 -41,3488.6 44.2,3488.6 86.7,3574.5 		"/>
		<polygon class="st7" points="44.2,3831.8 -41,3831.8 -83.5,3746.1 -41,3660.3 44.2,3660.3 86.7,3746.1 		"/>
		<polygon class="st8" points="44.2,4003.6 -41,4003.6 -83.5,3917.8 -41,3832 44.2,3832 86.7,3917.8 		"/>
		<polygon class="st7" points="44.2,4175.3 -41,4175.3 -83.5,4089.4 -41,4003.7 44.2,4003.7 86.7,4089.4 		"/>
		<polygon class="st9" points="44.2,4346.9 -41,4346.9 -83.5,4261.1 -41,4175.4 44.2,4175.4 86.7,4261.1 		"/>
		<polygon class="st8" points="44.2,4518.6 -41,4518.6 -83.5,4432.9 -41,4347 44.2,4347.1 86.7,4432.9 		"/>
		<polygon class="st7" points="44.2,4690.2 -41,4690.2 -83.5,4604.5 -41,4518.7 44.2,4518.7 86.7,4604.5 		"/>
		<polygon class="st8" points="44.2,4862 -41.1,4862 -83.6,4776.2 -41,4690.5 44.2,4690.5 86.7,4776.2 		"/>
		<polygon class="st7" points="44.2,5033.7 -41.1,5033.7 -83.6,4947.8 -41.1,4862.1 44.2,4862.1 86.7,4947.8 		"/>
		<polygon class="st9" points="44.2,5205.3 -41.1,5205.3 -83.6,5119.6 -41.1,5033.8 44.2,5033.8 86.7,5119.6 		"/>
		<polygon class="st8" points="44.1,5377 -41.1,5377 -83.6,5291.3 -41.1,5205.5 44.2,5205.5 86.7,5291.3 		"/>
		<polygon class="st7" points="44.4,54.8 -40.8,54.8 -83.3,-30.9 -40.8,-116.8 44.4,-116.7 86.9,-30.9 		"/>
		<polygon class="st7" points="44.4,226.4 -40.8,226.4 -83.3,140.7 -40.8,54.9 44.4,54.9 86.9,140.7 		"/>
		<polygon class="st8" points="44.4,398.2 -40.8,398.2 -83.3,312.4 -40.8,226.7 44.4,226.7 86.9,312.4 		"/>
		<polygon class="st7" points="44.4,569.9 -40.8,569.9 -83.3,484 -40.8,398.3 44.4,398.3 86.9,484 		"/>
		<polygon class="st7" points="44.4,741.5 -40.8,741.5 -83.3,655.8 -40.8,570 44.4,570 86.9,655.8 		"/>
		<polygon class="st7" points="44.4,913.2 -40.8,913.2 -83.3,827.5 -40.8,741.7 44.4,741.7 86.9,827.5 		"/>
		<polygon class="st8" points="44.4,1085 -40.8,1085 -83.3,999.1 -40.8,913.4 44.4,913.4 86.9,999.1 		"/>
		<polygon class="st7" points="44.4,1256.6 -40.9,1256.6 -83.4,1170.8 -40.8,1085.1 44.4,1085.1 86.9,1170.8 		"/>
		<polygon class="st7" points="44.4,1428.3 -40.9,1428.3 -83.4,1342.6 -40.9,1256.7 44.4,1256.7 86.9,1342.6 		"/>
		<polygon class="st8" points="44.4,1599.9 -40.9,1599.9 -83.4,1514.2 -40.9,1428.4 44.4,1428.4 86.9,1514.2 		"/>
		<polygon class="st7" points="44.3,1771.7 -40.9,1771.7 -83.4,1685.9 -40.9,1600.1 44.4,1600.1 86.9,1685.9 		"/>
		<polygon class="st7" points="44.3,1943.4 -40.9,1943.4 -83.4,1857.5 -40.9,1771.8 44.3,1771.8 86.8,1857.5 		"/>
		<polygon class="st8" points="44.3,2115 -40.9,2115 -83.4,2029.2 -40.9,1943.5 44.3,1943.5 86.8,2029.2 		"/>
		<polygon class="st7" points="173.5,-30.9 88.4,-30.9 45.8,-116.7 88.4,-202.4 173.5,-202.4 216.1,-116.7 		"/>
		<polygon class="st8" points="173.5,140.7 88.4,140.7 45.7,54.9 88.4,-30.8 173.5,-30.8 216.1,54.9 		"/>
		<polygon class="st9" points="173.5,312.4 88.3,312.4 45.7,226.7 88.4,140.9 173.5,140.9 216.1,226.7 		"/>
		<polygon class="st7" points="173.5,484.1 88.3,484 45.7,398.3 88.3,312.5 173.5,312.5 216.1,398.4 		"/>
		<polygon class="st7" points="173.4,655.8 88.3,655.8 45.7,570 88.3,484.3 173.5,484.3 216.1,570 		"/>
		<polygon class="st9" points="173.4,827.5 88.3,827.5 45.7,741.7 88.3,656 173.4,656 216.1,741.7 		"/>
		<polygon class="st10" points="173.4,999.1 88.3,999.1 45.7,913.4 88.3,827.6 173.4,827.6 216,913.4 		"/>
		<polygon class="st7" points="173.4,1170.8 88.3,1170.8 45.7,1085.1 88.3,999.3 173.4,999.3 216,1085.1 		"/>
		<polygon class="st8" points="173.4,1342.6 88.3,1342.6 45.7,1256.7 88.3,1170.9 173.4,1170.9 216,1256.8 		"/>
		<polygon class="st7" points="173.4,1514.2 88.3,1514.2 45.7,1428.4 88.3,1342.7 173.4,1342.7 216,1428.4 		"/>
		<polygon class="st7" points="173.4,1685.9 88.3,1685.9 45.7,1600.1 88.3,1514.4 173.4,1514.4 216,1600.1 		"/>
		<polygon class="st8" points="173.4,1857.5 88.3,1857.5 45.7,1771.8 88.3,1686 173.4,1686 216,1771.8 		"/>
		<polygon class="st9" points="173.4,2029.2 88.3,2029.2 45.6,1943.5 88.3,1857.7 173.4,1857.7 216,1943.5 		"/>
		<polygon class="st7" points="173.4,2201 88.2,2201 45.6,2115.2 88.3,2029.5 173.4,2029.5 216,2115.2 		"/>
		<polygon class="st8" points="173.4,2372.6 88.2,2372.6 45.6,2286.8 88.2,2201.1 173.4,2201.1 216,2286.8 		"/>
		<polygon class="st9" points="173.3,2544.3 88.2,2544.3 45.6,2458.6 88.2,2372.8 173.4,2372.8 216,2458.6 		"/>
		<polygon class="st7" points="173.3,2716 88.2,2715.9 45.6,2630.2 88.2,2544.4 173.3,2544.4 216,2630.3 		"/>
		<polygon class="st8" points="173.3,2887.7 88.2,2887.7 45.6,2801.9 88.2,2716.2 173.3,2716.2 215.9,2801.9 		"/>
		<polygon class="st7" points="173.3,3059.4 88.2,3059.4 45.6,2973.6 88.2,2887.9 173.3,2887.9 215.9,2973.6 		"/>
		<polygon class="st9" points="173.3,3231 88.2,3231 45.6,3145.3 88.2,3059.5 173.3,3059.5 215.9,3145.3 		"/>
		<polygon class="st7" points="173.3,3402.7 88.2,3402.7 45.6,3317 88.2,3231.2 173.3,3231.2 215.9,3317 		"/>
		<polygon class="st8" points="173.3,3574.5 88.2,3574.5 45.6,3488.6 88.2,3402.8 173.3,3402.8 215.9,3488.7 		"/>
		<polygon class="st7" points="173.3,3746.1 88.2,3746.1 45.5,3660.3 88.2,3574.6 173.3,3574.6 215.9,3660.3 		"/>
		<polygon class="st9" points="173.3,3917.8 88.1,3917.8 45.5,3832 88.2,3746.3 173.3,3746.3 215.9,3832 		"/>
		<polygon class="st7" points="173.3,4089.5 88.1,4089.4 45.5,4003.7 88.1,3917.9 173.3,3917.9 215.9,4003.8 		"/>
		<polygon class="st8" points="173.2,4261.1 88.1,4261.1 45.5,4175.4 88.1,4089.6 173.3,4089.6 215.9,4175.4 		"/>
		<polygon class="st7" points="173.2,4432.9 88.1,4432.9 45.5,4347.1 88.1,4261.4 173.2,4261.4 215.9,4347.1 		"/>
		<polygon class="st8" points="173.2,4604.5 88.1,4604.5 45.5,4518.7 88.1,4433 173.2,4433 215.8,4518.7 		"/>
		<polygon class="st9" points="173.2,4776.2 88.1,4776.2 45.5,4690.5 88.1,4604.7 173.2,4604.7 215.8,4690.5 		"/>
		<polygon class="st7" points="173.2,4947.9 88.1,4947.9 45.5,4862.1 88.1,4776.3 173.2,4776.3 215.8,4862.2 		"/>
		<polygon class="st8" points="173.2,5119.6 88.1,5119.6 45.5,5033.8 88.1,4948.1 173.2,4948.1 215.8,5033.8 		"/>
		<polygon class="st7" points="173.2,5291.3 88.1,5291.3 45.5,5205.5 88.1,5119.8 173.2,5119.8 215.8,5205.5 		"/>
		<polygon class="st7" points="302.4,2286.7 217.2,2286.7 174.7,2201 217.2,2115.2 302.4,2115.2 344.9,2201 		"/>
		<polygon class="st7" points="302.4,2458.3 217.2,2458.3 174.7,2372.6 217.2,2286.8 302.4,2286.8 344.9,2372.7 		"/>
		<polygon class="st8" points="302.4,2630.1 217.2,2630.1 174.7,2544.3 217.2,2458.6 302.4,2458.6 344.9,2544.3 		"/>
		<polygon class="st7" points="302.4,2801.8 217.1,2801.8 174.6,2716 217.2,2630.3 302.4,2630.3 344.9,2716 		"/>
		<polygon class="st9" points="302.4,2973.4 217.1,2973.4 174.6,2887.7 217.1,2801.9 302.4,2801.9 344.9,2887.7 		"/>
		<polygon class="st7" points="302.4,3145.1 217.1,3145.1 174.6,3059.4 217.1,2973.6 302.4,2973.6 344.9,3059.4 		"/>
		<polygon class="st8" points="302.3,3316.9 217.1,3316.9 174.6,3231 217.1,3145.3 302.4,3145.4 344.9,3231.1 		"/>
		<polygon class="st9" points="302.3,3488.5 217.1,3488.5 174.6,3402.7 217.1,3317 302.3,3317 344.8,3402.7 		"/>
		<polygon class="st7" points="302.3,3660.2 217.1,3660.2 174.6,3574.5 217.1,3488.7 302.3,3488.7 344.8,3574.5 		"/>
		<polygon class="st8" points="302.3,3831.8 217.1,3831.8 174.6,3746.1 217.1,3660.3 302.3,3660.3 344.8,3746.1 		"/>
		<polygon class="st7" points="302.3,4003.6 217.1,4003.6 174.6,3917.8 217.1,3832 302.3,3832 344.8,3917.8 		"/>
		<polygon class="st8" points="302.3,4175.3 217.1,4175.3 174.6,4089.5 217.1,4003.8 302.3,4003.8 344.8,4089.5 		"/>
		<polygon class="st9" points="302.3,4346.9 217.1,4346.9 174.6,4261.1 217.1,4175.4 302.3,4175.4 344.8,4261.1 		"/>
		<polygon class="st7" points="302.3,4518.6 217,4518.6 174.5,4432.9 217.1,4347.1 302.3,4347.1 344.8,4432.9 		"/>
		<polygon class="st7" points="302.3,4690.3 217,4690.2 174.5,4604.5 217,4518.7 302.3,4518.7 344.8,4604.6 		"/>
		<polygon class="st8" points="302.3,4862 217,4862 174.5,4776.2 217,4690.5 302.3,4690.5 344.8,4776.2 		"/>
		<polygon class="st7" points="302.2,5033.7 217,5033.7 174.5,4947.9 217,4862.2 302.3,4862.2 344.8,4947.9 		"/>
		<polygon class="st10" points="302.2,5205.3 217,5205.3 174.5,5119.6 217,5033.8 302.2,5033.8 344.7,5119.6 		"/>
		<polygon class="st8" points="302.2,5377 217,5377 174.5,5291.3 217,5205.5 302.2,5205.5 344.7,5291.3 		"/>
		<g>
			<polygon class="st7" points="302.5,54.8 217.3,54.8 174.8,-30.9 217.3,-116.7 302.5,-116.7 345,-30.9 			"/>
			<polygon class="st7" points="302.5,226.4 217.3,226.4 174.8,140.7 217.3,54.9 302.5,54.9 345,140.7 			"/>
			<polygon class="st7" points="302.5,398.2 217.3,398.2 174.8,312.4 217.3,226.7 302.5,226.7 345,312.4 			"/>
			<polygon class="st8" points="302.5,569.9 217.3,569.9 174.8,484.1 217.3,398.4 302.5,398.4 345,484.1 			"/>
			<polygon class="st7" points="302.5,741.5 217.3,741.5 174.8,655.8 217.3,570 302.5,570 345,655.8 			"/>
			<polygon class="st7" points="302.5,913.2 217.2,913.2 174.7,827.5 217.3,741.7 302.5,741.7 345,827.5 			"/>
			<polygon class="st9" points="302.5,1085 217.2,1085 174.7,999.1 217.2,913.4 302.5,913.5 345,999.2 			"/>
			<polygon class="st7" points="302.5,1256.6 217.2,1256.6 174.7,1170.8 217.2,1085.1 302.5,1085.1 345,1170.8 			"/>
			<polygon class="st7" points="302.4,1428.3 217.2,1428.3 174.7,1342.6 217.2,1256.8 302.5,1256.8 345,1342.6 			"/>
			<polygon class="st9" points="302.4,1599.9 217.2,1599.9 174.7,1514.2 217.2,1428.4 302.4,1428.4 344.9,1514.2 			"/>
			<polygon class="st10" points="302.4,1771.7 217.2,1771.7 174.7,1685.9 217.2,1600.1 302.4,1600.1 344.9,1685.9 			"/>
			<polygon class="st7" points="302.4,1943.4 217.2,1943.4 174.7,1857.5 217.2,1771.8 302.4,1771.9 344.9,1857.6 			"/>
			<polygon class="st8" points="302.4,2115 217.2,2115 174.7,2029.2 217.2,1943.5 302.4,1943.5 344.9,2029.2 			"/>
			<g>
				<polygon class="st7" points="431.6,-30.9 346.4,-30.9 303.8,-116.7 346.5,-202.4 431.6,-202.4 474.2,-116.7 				"/>
				<polygon class="st7" points="431.6,140.8 346.4,140.7 303.8,54.9 346.4,-30.8 431.6,-30.8 474.2,54.9 				"/>
				<polygon class="st8" points="431.5,312.4 346.4,312.4 303.8,226.7 346.4,140.9 431.6,140.9 474.2,226.7 				"/>
				<polygon class="st7" points="431.5,484.1 346.4,484.1 303.8,398.4 346.4,312.5 431.5,312.5 474.2,398.4 				"/>
				<polygon class="st7" points="431.5,655.8 346.4,655.8 303.8,570 346.4,484.3 431.5,484.3 474.1,570 				"/>
				<polygon class="st8" points="431.5,827.5 346.4,827.5 303.8,741.7 346.4,656 431.5,656 474.1,741.7 				"/>
				<polygon class="st7" points="431.5,999.2 346.4,999.2 303.8,913.5 346.4,827.6 431.5,827.6 474.1,913.5 				"/>
				<polygon class="st8" points="431.5,1170.8 346.4,1170.8 303.8,1085.1 346.4,999.3 431.5,999.3 474.1,1085.1 				"/>
				<polygon class="st9" points="431.5,1342.6 346.4,1342.6 303.8,1256.8 346.4,1170.9 431.5,1170.9 474.1,1256.8 				"/>
				<polygon class="st8" points="431.5,1514.3 346.4,1514.2 303.8,1428.4 346.4,1342.7 431.5,1342.7 474.1,1428.4 				"/>
				<polygon class="st7" points="431.5,1685.9 346.4,1685.9 303.7,1600.1 346.4,1514.4 431.5,1514.4 474.1,1600.1 				"/>
				<polygon class="st7" points="431.5,1857.6 346.3,1857.6 303.7,1771.9 346.4,1686 431.5,1686 474.1,1771.9 				"/>
				<polygon class="st9" points="431.5,2029.2 346.3,2029.2 303.7,1943.5 346.3,1857.7 431.5,1857.7 474.1,1943.5 				"/>
				<polygon class="st7" points="431.4,2201 346.3,2201 303.7,2115.2 346.3,2029.5 431.5,2029.5 474.1,2115.2 				"/>
				<polygon class="st9" points="431.4,2372.7 346.3,2372.7 303.7,2286.8 346.3,2201.1 431.4,2201.1 474.1,2286.8 				"/>
				<polygon class="st7" points="431.4,2544.3 346.3,2544.3 303.7,2458.6 346.3,2372.8 431.4,2372.8 474,2458.6 				"/>
				<polygon class="st9" points="431.4,2716 346.3,2716 303.7,2630.3 346.3,2544.4 431.4,2544.4 474,2630.3 				"/>
				<polygon class="st7" points="431.4,2887.7 346.3,2887.7 303.7,2801.9 346.3,2716.2 431.4,2716.2 474,2801.9 				"/>
				<polygon class="st8" points="431.4,3059.4 346.3,3059.4 303.7,2973.6 346.3,2887.9 431.4,2887.9 474,2973.6 				"/>
				<polygon class="st7" points="431.4,3231.1 346.3,3231.1 303.7,3145.4 346.3,3059.5 431.4,3059.5 474,3145.4 				"/>
				<polygon class="st7" points="431.4,3402.7 346.3,3402.7 303.7,3317 346.3,3231.2 431.4,3231.2 474,3317 				"/>
				<polygon class="st8" points="431.4,3574.5 346.3,3574.5 303.6,3488.7 346.3,3402.8 431.4,3402.8 474,3488.7 				"/>
				<polygon class="st9" points="431.4,3746.2 346.2,3746.1 303.6,3660.3 346.3,3574.6 431.4,3574.6 474,3660.3 				"/>
				<polygon class="st7" points="431.4,3917.8 346.2,3917.8 303.6,3832 346.2,3746.3 431.4,3746.3 474,3832 				"/>
				<polygon class="st9" points="431.3,4089.5 346.2,4089.5 303.6,4003.8 346.2,3917.9 431.4,3917.9 474,4003.8 				"/>
				<polygon class="st7" points="431.3,4261.1 346.2,4261.1 303.6,4175.4 346.2,4089.6 431.3,4089.6 474,4175.4 				"/>
				<polygon class="st8" points="431.3,4432.9 346.2,4432.9 303.6,4347.1 346.2,4261.4 431.3,4261.4 473.9,4347.1 				"/>
				<polygon class="st9" points="431.3,4604.6 346.2,4604.6 303.6,4518.7 346.2,4433 431.3,4433 473.9,4518.7 				"/>
				<polygon class="st7" points="431.3,4776.2 346.2,4776.2 303.6,4690.5 346.2,4604.7 431.3,4604.7 473.9,4690.5 				"/>
				<polygon class="st7" points="431.3,4947.9 346.2,4947.9 303.6,4862.2 346.2,4776.3 431.3,4776.3 473.9,4862.2 				"/>
				<polygon class="st9" points="431.3,5119.6 346.2,5119.6 303.6,5033.8 346.2,4948.1 431.3,4948.1 473.9,5033.8 				"/>
				<polygon class="st7" points="431.3,5291.3 346.2,5291.3 303.5,5205.5 346.2,5119.8 431.3,5119.8 473.9,5205.5 				"/>
			</g>
		</g>
		<polygon class="st7" points="561.9,2284.7 476.7,2284.7 434.2,2199 476.7,2113.1 561.9,2113.1 604.4,2199 		"/>
		<polygon class="st8" points="561.9,2456.3 476.7,2456.3 434.2,2370.6 476.7,2284.8 561.9,2284.8 604.4,2370.6 		"/>
		<polygon class="st7" points="561.9,2628.1 476.7,2628.1 434.2,2542.3 476.7,2456.6 561.9,2456.6 604.4,2542.3 		"/>
		<polygon class="st8" points="561.9,2799.8 476.6,2799.8 434.1,2713.9 476.7,2628.2 561.9,2628.2 604.4,2713.9 		"/>
		<polygon class="st7" points="561.9,2971.4 476.6,2971.4 434.1,2885.7 476.6,2799.9 561.9,2799.9 604.4,2885.7 		"/>
		<polygon class="st7" points="561.9,3143.1 476.6,3143.1 434.1,3057.4 476.6,2971.5 561.9,2971.6 604.4,3057.4 		"/>
		<polygon class="st9" points="561.8,3314.9 476.6,3314.9 434.1,3229 476.6,3143.3 561.9,3143.3 604.4,3229 		"/>
		<polygon class="st7" points="561.8,3486.5 476.6,3486.5 434.1,3400.7 476.6,3315 561.8,3315 604.3,3400.7 		"/>
		<polygon class="st7" points="561.8,3658.2 476.6,3658.2 434.1,3572.5 476.6,3486.6 561.8,3486.6 604.3,3572.5 		"/>
		<polygon class="st7" points="561.8,3829.8 476.6,3829.8 434.1,3744.1 476.6,3658.3 561.8,3658.3 604.3,3744.1 		"/>
		<polygon class="st8" points="561.8,4001.6 476.6,4001.6 434.1,3915.8 476.6,3830 561.8,3830 604.3,3915.8 		"/>
		<polygon class="st7" points="561.8,4173.3 476.6,4173.3 434.1,4087.4 476.6,4001.7 561.8,4001.7 604.3,4087.4 		"/>
		<polygon class="st9" points="561.8,4344.9 476.6,4344.9 434.1,4259.1 476.6,4173.4 561.8,4173.4 604.3,4259.1 		"/>
		<polygon class="st7" points="561.8,4516.6 476.5,4516.6 434,4430.9 476.6,4345 561.8,4345 604.3,4430.9 		"/>
		<polygon class="st8" points="561.8,4688.2 476.5,4688.2 434,4602.5 476.5,4516.7 561.8,4516.7 604.3,4602.5 		"/>
		<polygon class="st9" points="561.8,4860 476.5,4860 434,4774.2 476.5,4688.5 561.8,4688.5 604.3,4774.2 		"/>
		<polygon class="st8" points="561.7,5031.7 476.5,5031.7 434,4945.8 476.5,4860.1 561.8,4860.1 604.3,4945.8 		"/>
		<polygon class="st7" points="561.7,5203.3 476.5,5203.3 434,5117.6 476.5,5031.8 561.7,5031.8 604.2,5117.6 		"/>
		<polygon class="st9" points="561.7,5375 476.5,5375 434,5289.3 476.5,5203.5 561.7,5203.5 604.2,5289.3 		"/>
		<polygon class="st7" points="562,52.8 476.8,52.8 434.3,-32.9 476.8,-118.8 562,-118.8 604.5,-32.9 		"/>
		<polygon class="st9" points="562,224.4 476.8,224.4 434.3,138.7 476.8,52.9 562,52.9 604.5,138.7 		"/>
		<polygon class="st7" points="562,396.2 476.8,396.2 434.3,310.4 476.8,224.7 562,224.7 604.5,310.4 		"/>
		<polygon class="st9" points="562,567.9 476.8,567.9 434.3,482 476.8,396.3 562,396.3 604.5,482 		"/>
		<polygon class="st7" points="562,739.5 476.8,739.5 434.3,653.8 476.8,568 562,568 604.5,653.8 		"/>
		<polygon class="st9" points="562,911.2 476.7,911.2 434.2,825.5 476.8,739.6 562,739.7 604.5,825.5 		"/>
		<polygon class="st7" points="562,1083 476.7,1083 434.2,997.1 476.7,911.4 562,911.4 604.5,997.1 		"/>
		<polygon class="st7" points="562,1254.6 476.7,1254.6 434.2,1168.8 476.7,1083.1 562,1083.1 604.5,1168.8 		"/>
		<polygon class="st7" points="561.9,1426.3 476.7,1426.3 434.2,1340.6 476.7,1254.7 562,1254.7 604.5,1340.6 		"/>
		<polygon class="st7" points="561.9,1597.9 476.7,1597.9 434.2,1512.2 476.7,1426.4 561.9,1426.4 604.4,1512.2 		"/>
		<polygon class="st8" points="561.9,1769.7 476.7,1769.7 434.2,1683.9 476.7,1598.1 561.9,1598.1 604.4,1683.9 		"/>
		<polygon class="st7" points="561.9,1941.4 476.7,1941.4 434.2,1855.5 476.7,1769.8 561.9,1769.8 604.4,1855.5 		"/>
		<polygon class="st8" points="561.9,2113 476.7,2113 434.2,2027.2 476.7,1941.5 561.9,1941.5 604.4,2027.2 		"/>
		<polygon class="st7" points="691.1,-32.9 605.9,-32.9 563.3,-118.8 606,-204.5 691.1,-204.4 733.7,-118.7 		"/>
		<polygon class="st8" points="691.1,138.7 605.9,138.7 563.3,52.9 605.9,-32.8 691.1,-32.8 733.7,52.9 		"/>
		<polygon class="st7" points="691,310.4 605.9,310.4 563.3,224.7 605.9,138.9 691.1,138.9 733.7,224.7 		"/>
		<polygon class="st8" points="691,482 605.9,482 563.3,396.3 605.9,310.5 691,310.5 733.7,396.3 		"/>
		<polygon class="st7" points="691,653.8 605.9,653.8 563.3,568 605.9,482.3 691,482.3 733.6,568 		"/>
		<polygon class="st7" points="691,825.5 605.9,825.5 563.3,739.7 605.9,654 691,654 733.6,739.7 		"/>
		<polygon class="st8" points="691,997.1 605.9,997.1 563.3,911.4 605.9,825.6 691,825.6 733.6,911.4 		"/>
		<polygon class="st7" points="691,1168.8 605.9,1168.8 563.3,1083.1 605.9,997.3 691,997.3 733.6,1083.1 		"/>
		<polygon class="st8" points="691,1340.6 605.9,1340.6 563.3,1254.7 605.9,1168.9 691,1168.9 733.6,1254.8 		"/>
		<polygon class="st7" points="691,1512.2 605.9,1512.2 563.3,1426.4 605.9,1340.7 691,1340.7 733.6,1426.4 		"/>
		<polygon class="st9" points="691,1683.9 605.9,1683.9 563.2,1598.1 605.9,1512.4 691,1512.4 733.6,1598.1 		"/>
		<polygon class="st7" points="691,1855.5 605.8,1855.5 563.2,1769.8 605.9,1684 691,1684 733.6,1769.8 		"/>
		<polygon class="st7" points="691,2027.2 605.8,2027.2 563.2,1941.5 605.8,1855.7 691,1855.7 733.6,1941.5 		"/>
		<polygon class="st7" points="690.9,2199 605.8,2199 563.2,2113.1 605.8,2027.5 691,2027.5 733.6,2113.2 		"/>
		<polygon class="st9" points="690.9,2370.6 605.8,2370.6 563.2,2284.8 605.8,2199.1 690.9,2199.1 733.6,2284.8 		"/>
		<polygon class="st7" points="690.9,2542.3 605.8,2542.3 563.2,2456.6 605.8,2370.8 690.9,2370.8 733.5,2456.6 		"/>
		<polygon class="st9" points="690.9,2713.9 605.8,2713.9 563.2,2628.2 605.8,2542.4 690.9,2542.4 733.5,2628.3 		"/>
		<polygon class="st7" points="690.9,2885.7 605.8,2885.7 563.2,2799.9 605.8,2714.2 690.9,2714.2 733.5,2799.9 		"/>
		<polygon class="st9" points="690.9,3057.4 605.8,3057.4 563.2,2971.6 605.8,2885.9 690.9,2885.9 733.5,2971.6 		"/>
		<polygon class="st8" points="690.9,3229 605.8,3229 563.2,3143.3 605.8,3057.5 690.9,3057.5 733.5,3143.3 		"/>
		<polygon class="st7" points="690.9,3400.7 605.8,3400.7 563.2,3315 605.8,3229.2 690.9,3229.2 733.5,3315 		"/>
		<polygon class="st9" points="690.9,3572.5 605.8,3572.5 563.1,3486.6 605.8,3400.8 690.9,3400.8 733.5,3486.7 		"/>
		<polygon class="st8" points="690.9,3744.1 605.7,3744.1 563.1,3658.3 605.8,3572.6 690.9,3572.6 733.5,3658.3 		"/>
		<polygon class="st9" points="690.9,3915.8 605.7,3915.8 563.1,3830 605.7,3744.3 690.9,3744.3 733.5,3830 		"/>
		<polygon class="st7" points="690.8,4087.4 605.7,4087.4 563.1,4001.7 605.7,3915.9 690.9,3915.9 733.5,4001.7 		"/>
		<polygon class="st8" points="690.8,4259.1 605.7,4259.1 563.1,4173.4 605.7,4087.6 690.8,4087.6 733.5,4173.4 		"/>
		<polygon class="st7" points="690.8,4430.9 605.7,4430.9 563.1,4345 605.7,4259.4 690.8,4259.4 733.4,4345.1 		"/>
		<polygon class="st9" points="690.8,4602.5 605.7,4602.5 563.1,4516.7 605.7,4431 690.8,4431 733.4,4516.7 		"/>
		<polygon class="st7" points="690.8,4774.2 605.7,4774.2 563.1,4688.5 605.7,4602.7 690.8,4602.7 733.4,4688.5 		"/>
		<polygon class="st7" points="690.8,4945.9 605.7,4945.8 563.1,4860.1 605.7,4774.3 690.8,4774.3 733.4,4860.2 		"/>
		<polygon class="st9" points="690.8,5117.6 605.7,5117.6 563.1,5031.8 605.7,4946.1 690.8,4946.1 733.4,5031.8 		"/>
		<polygon class="st8" points="690.8,5289.3 605.7,5289.3 563,5203.5 605.7,5117.8 690.8,5117.8 733.4,5203.5 		"/>
	</g>
</g>
<g id="Calque_7_1_" class="st11">
</g>
<g id="Calque_7" class="st11">
	<path class="st12" d="M-0.2-1.3v174.1c20.1,5.9,51.9,12.6,89.2,7.2c63.7-9.1,82.6-44.4,146-66c61.9-21.1,117.7-12.6,154-7
		c77.7,11.9,114.3,42.4,186,44c0.1,0,0.2,0,0.3,0c37.7,0.8,55.7-7.9,64.8-18c0.3-44.8,0.7-89.5,1-134.3C641-1.3-0.2-1.3-0.2-1.3z"/>
</g>
<g id="Calque_1_1_" class="st11">
</g>
<circle class="st13" cx="317.5" cy="3770.5" r="34.5"/>
<path class="st14" d="M311.5,3736.5c-1,1-2-321.6-195-367"/>
<path class="st14" d="M315.5,3736.5c1.8-15.3,5.8-37.7,16-62.8c17.6-43.3,43.9-70.5,53-80.2c90.1-95.8,148.6-159.1,156-231.8
	c3.5-34.7-13.7-72.7-48-148.7c-40.4-89.4-63.1-139.7-118-179.7c-60.3-43.9-75-38.5-104-79.2c-48.3-67.9-33-155.7-28-184.5
	c17.8-101.8,75.1-141.8,61-220.2c-5.7-31.9-20.5-59.6-21.5-61.4c-7.2-13.3-19.6-32.5-54.5-65.2c-53.4-49.9-70.6-48.1-98-80.2
	c-14.3-16.7-32.5-43.9-43-86.9"/>
<path class="st14" d="M248,2745c-18.7-12.2-108.9-73.4-117.5-170.4c-5.4-60.4,21.1-131.2,40.2-160.8c3.4-5.2,17.1-25.5,30.5-55.7
	c0,0,7-15.5,12.3-31.3c22.1-66.4,20.4-129.3,15.1-164.3c-23.8-157.6-185.7-176.2-185-277.6c0.9-128.2,259.9-212.7,236.2-289.5
	c-4.7-15.1-18.4-23.9-26.4-28.2"/>
<path class="st14" d="M384.5,3593.5c4.4-13.5,9.7-35.6,6.6-61.8c-7.4-63.6-55.3-77.6-59.6-131.4c-3.8-46.6,27.1-50.7,33-106.2
	c8.5-80.8-49.9-186.4-122-201.9c-33.4-7.1-69.4,5.1-111.7-22.1c-6.6-4.4-15.5-11.2-24.7-20.7c-7.1-7.4-52.2-55.9-42.6-124.4
	c7.8-55.3,46.2-87.8,56-95.6"/>
<g class="st11">
	<path class="st15" d="M364.8,3293.4c6.6-10.8,16.1-26.9,26.7-46.7c23.4-43.6,170.8-317.8,89.3-412.1c-13.4-15.5-40-42.1-67.6-90.9
		c-4.7-8.3-8.6-18.1-11.4-30.8c-17.3-77.4,29.2-153.1,72-205.7c0,0,210-215.4,9-391.2l-198-143c0,0-156-130.4,17-237.6
		c240.2-123,287.3-224.4,288-292.7c1.5-141.8-195.9-204.4-257.6-426.6c-32.3-116.3-12.4-222.1,6.6-288.2c0,0,21.4-51.5-4.3-80.1
		c-13.7-15.2-33.5-15.5-61.7-18.4c-46.8-4.8-120.3-12.4-153.3-41.2c-19.6-17.2-38.4-53.8-23.8-142"/>
	<path class="st15" d="M490,2488.6c-167.2-95.8-197.1-165.4-193.7-211.2c2.9-38.9,47.5-107.5,139.8-242.4
		c29.4-43,43.9-91.4,44.6-141c0.2-15.4-5.2-57.7-6.4-63.4c-22-102.5-99.8-202.7-222.2-264.1c-55.9-28-107.8-53.1-131-108.2
		c-17.2-40.9-19.1-97.5,7.9-138.6c14.7-22.4,36.9-39,55.1-52.6c42.6-31.8,60.4-35.4,71-58.9c13.2-29.3-0.8-61.7-4-68.6
		c-26.9-57.7-93.6-45.6-140-113c-6.6-9.5-19.8-31.1-25.6-60.9c-13.2-67.6,22.6-123.8,34.6-141"/>
	<path class="st15" d="M344.7,666.7c-1-4.2-1.9-10.7,0.4-17.5c8.6-25.8,50.8-27.3,96.4-40.9c27.7-8.2,108.3-32.2,131.6-88.9
		c5.6-13.5,11.7-38.3,0-76.3"/>
	<path class="st15" d="M340.2,655.9c38.7-79.3,32.1-119.3,17.8-141.3c-17-26.3-49.6-33.8-49.7-58.6c-0.1-21.1,23.2-27.6,31.9-56.9
		c7-23.6,0.1-46.7-7.4-63.1"/>
</g>
<path class="st16" d="M253.3,1586.1"/>
<path class="st14" d="M442.2,1212.3c0,0-119.5-163.2-1.8-257.4"/>
<path class="st16" d="M253.5,1586.4"/>
<path class="st14" d="M252.1,1566.6c-61.8-28.1-66-48.6-65.6-57.1c1.6-29.1,66.4-65.7,120.8-79c15.4-3.8,44.8-9.3,55.5-30.3
	c4-7.9,4.3-15.8,3.8-21.3"/>
<text transform="matrix(1 0 0 1 292.6786 280.7037)" class="st17 st18 st19">Travaillez avec </text>
<text transform="matrix(1 0 0 1 292.6786 280.7037)" class="st17 st20 st19"> </text>
<text transform="matrix(1 0 0 1 292.6786 280.7037)" class="st21 st20 st19"> </text>
<text transform="matrix(1 0 0 1 295.0886 295.1036)" class="st17 st18 st19">un partenaire </text>
<text transform="matrix(1 0 0 1 276.9186 309.5035)" class="st17 st18 st19">technologique fiable </text>
<text transform="matrix(1.1242 0 0 1 284.5718 324.5001)" class="st17 st18 st19">et professionnel</text>
<rect x="50.8" y="349.7" class="st22" width="119" height="67.8"/>
<text transform="matrix(1 0 0 1 40.2897 347.1144)" class="st17 st18 st19">Innovez, surprenez et </text>
<text transform="matrix(1 0 0 1 50.1797 361.5145)" class="st17 st18 st19">essayer de ne pas </text>
<text transform="matrix(1 0 0 1 73.0797 375.9147)" class="st17 st18 st19">ennuyer</text>
<rect x="492.7" y="313" class="st22" width="119" height="23"/>
<path class="st13" d="M641.8,4001.3v-155.4c-0.6-0.7-1.2-1.3-1.8-1.9c-72.4-72.5-258.3,75.6-491,14c-67.3-17.8-117.9-47.7-149-69
	l-1,15v197.3L641.8,4001.3L641.8,4001.3z"/>
<path class="st14" d="M527.5,2685.6c-64,16.5-59.5,134.5-59.5,134.5"/>
<rect x="123.4" y="3167.6" class="st22" width="142.6" height="40.6"/>
<text transform="matrix(1.0353 0 0 1 24.6445 3298.7744)" class="st17 st18 st23">N&apos;envoyez pas d&apos;emails  </text>
<text transform="matrix(1.0353 0 0 1 23.6445 3312.6836)" class="st17 st18 st23">ceux qui ne les attendent </text>
<text transform="matrix(1.0353 0 0 1 76.7144 3326.5918)" class="st17 st18 st23">pas. </text>
<rect x="30.8" y="2750.7" class="st22" width="142.6" height="40.6"/>
<text transform="matrix(1.0353 0 0 1 27.3604 2764.0449)" class="st17 st18 st23">Entretenez bien votre base </text>
<text transform="matrix(1.0353 0 0 1 63.6499 2777.9541)" class="st17 st18 st23">de donnes.</text>
<text transform="matrix(1.0353 0 0 1 494.4951 2598.2998)" class="st17 st18 st23">Traitez vos usagers </text>
<text transform="matrix(1.0353 0 0 1 494.4951 2598.2998)" class="st17 st20 st23"> </text>
<text transform="matrix(1.0353 0 0 1 494.4951 2598.2998)" class="st21 st20 st23"> </text>
<text transform="matrix(1.0353 0 0 1 477.666 2612.208)" class="st17 st18 st23">comme des clients et non </text>
<text transform="matrix(1.0353 0 0 1 494.7451 2626.1172)" class="st17 st18 st23">comme de simples </text>
<text transform="matrix(1.0353 0 0 1 494.7451 2626.1172)" class="st17 st20 st23"> </text>
<text transform="matrix(1.0353 0 0 1 494.7451 2626.1172)" class="st21 st20 st23"> </text>
<text transform="matrix(1.0353 0 0 1 504.0557 2640.0254)" class="st17 st18 st23">adresses email. </text>
<text transform="matrix(1.0353 0 0 1 504.0557 2640.0254)" class="st17 st20 st23">. </text>
<rect x="28.1" y="2151.6" transform="matrix(1 -8.783495e-03 8.783495e-03 1 -19.0241 0.9567)" class="st22" width="142.6" height="29.5"/>
<text transform="matrix(1.0353 -9.093440e-03 9.414649e-03 1 18.314 2174.4417)" class="st17 st18 st24">Identifiez-vous toujours de </text>
<text transform="matrix(1.0353 -9.093440e-03 9.414649e-03 1 59.7313 2188.0269)" class="st17 st18 st24">faon claire. </text>
<text transform="matrix(1.0353 0 0 1 270.0283 1289.8292)" class="st17 st18 st25">Surveillez continuellement </text>
<text transform="matrix(1.0841 0 0 1 270.0288 1303.6993)" class="st17 st18 st25">les rsultats de vos cam</text>
<text transform="matrix(1.0353 0 0 1 423.3711 1303.7003)" class="st17 st18 st25">pagnes. </text>
<text transform="matrix(1.0353 0 0 1 455.624 863.6866)" class="st17 st18 st23">Analysez le comportement </text>
<text transform="matrix(1.0353 0 0 1 451.9736 877.5948)" class="st17 st18 st23">de votre base de donnes et </text>
<text transform="matrix(1.0353 0 0 1 463.6133 891.504)" class="st17 st18 st23">adaptez votre stratgie. </text>
<text transform="matrix(1.0353 0 0 1 74.4253 734.6915)" class="st17 st18 st23">Soignez la conception de </text>
<text transform="matrix(1.0353 0 0 1 107.9155 748.5997)" class="st17 st18 st23">votre email.</text>
<text transform="matrix(0.8971 0 0 1 73.0796 61.0001)" class="st17 st26 st27">Les 10 rgles dor de le-mail marketing</text>
<g id="Calque_5" class="st11">
</g>
<image style="display:none;overflow:visible;enable-background:new    ;" width="858" height="1080" xlink:href="../image-data-design/databases-with-laptop-data-center-icon-image-vector-18733663.png"  transform="matrix(0.1267 0 0 0.1224 36.3278 2623.4849)">
</image>
<image style="display:none;overflow:visible;enable-background:new    ;" width="272" height="244" xlink:href="../image-data-design/istockphoto-1173282715-170667a.png"  transform="matrix(0.4615 0 0 0.4615 36.9372 2046.6738)">
</image>
<image style="display:none;overflow:visible;enable-background:new    ;" width="3379" height="2972" xlink:href="../image-data-design/ordi.png"  transform="matrix(3.222965e-02 0 0 3.222965e-02 40.2897 3181.3135)">
</image>
<image style="display:none;overflow:visible;enable-background:new    ;" width="576" height="659" xlink:href="../image-data-design/image_0643575_201306_ob_a7daef_flat-ui-login-iphone-2-png.png"  transform="matrix(0.2855 0 0 0.2758 431.3706 311.3705)">
</image>
<ellipse class="st28" cx="511.8" cy="768.2" rx="34.9" ry="33.4"/>
<polygon class="st28" points="540.8,803.2 535.8,806.2 529.6,796.8 534.7,793.8 "/>
<path class="st13" d="M562.3,839.5l-3.4,2.1c-1.7,1.1-4,0.5-5.1-1.2l-20.7-32.8l9.7-6l20.6,32.8C564.5,836.2,564,838.5,562.3,839.5z
	"/>
<path class="st29" d="M521.4,687.8"/>
<path class="st29" d="M523.3,687.1"/>
<g class="st11">
	<polyline class="st30" points="514,763 521,756.2 529.1,761.1 539,752.3 532.7,752.3 	"/>
	<line class="st30" x1="539.8" y1="751.9" x2="540" y2="757.3"/>
</g>
<ellipse class="st31" cx="511.8" cy="768.2" rx="30.6" ry="29.3"/>
<ellipse class="st32" cx="495.2" cy="773.6" rx="5" ry="4.9"/>
<image style="display:none;overflow:visible;enable-background:new    ;" width="586" height="388" xlink:href="../image-data-design/png-transparent-computer-icons-contract-handshake-partnership-greeting-miscellaneous-angle-text.png"  transform="matrix(0.171 0 0 0.171 495.7392 2512.9521)">
</image>
<image style="display:none;overflow:visible;enable-background:new    ;" width="407" height="331" xlink:href="../image-data-design/socialmediaguide light_v5.png"  transform="matrix(0.3627 0 0 0.3627 246.1804 141.1899)">
</image>
<ellipse transform="matrix(0.9987 -5.099109e-02 5.099109e-02 0.9987 -171.6922 8.794)" class="st33" cx="86.5" cy="3369.3" rx="28.7" ry="28.7"/>
<text transform="matrix(1 0 0 1 78.1939 3379.707)" class="st34 st20 st35">1</text>
<circle class="st14" cx="146.6" cy="2822.4" r="28.7"/>
<text transform="matrix(1 0 0 1 138.3907 2832.5029)" class="st34 st20 st35">2</text>
<circle class="st14" cx="554.1" cy="2680.1" r="28.7"/>
<text transform="matrix(1 0 0 1 545.8422 2690.3193)" class="st34 st20 st35">3</text>
<ellipse transform="matrix(6.863537e-03 -1 1 6.863537e-03 -2143.5339 2295.9058)" class="st36" cx="84.1" cy="2227.1" rx="28.7" ry="28.7"/>
<text transform="matrix(1 0 0 1 76.6472 2237.6396)" class="st34 st20 st35">4</text>
<circle class="st14" cx="364.8" cy="1349.6" r="28.7"/>
<text transform="matrix(1 0 0 1 356.471 1359.8828)" class="st34 st20 st35">5</text>
<circle class="st14" cx="565.3" cy="417.6" r="28.7"/>
<text transform="matrix(1 0 0 1 557.0257 427.8469)" class="st34 st20 st35">8</text>
<circle class="st14" cx="98.8" cy="417.6" r="28.7"/>
<text transform="matrix(1 0 0 1 90.4924 427.8569)" class="st34 st20 st35">9</text>
<image style="display:none;overflow:visible;enable-background:new    ;" width="1000" height="679" xlink:href="../image-data-design/flat-design-concept-email-send-icon-with-lon-vector-3174589.png"  transform="matrix(0.1381 0 0 0.1334 65.468 634)">
</image>
<g id="Calque_4" class="st11">
</g>
<g class="st11">
	<g class="st37">
		<g class="st38">
			<g>
				<polygon class="st39" points="353.7,1225.7 357.1,1239.1 317,1252.1 313.6,1238.7 				"/>
			</g>
			<g class="st38">
				<g>
					<g>
						<g>
							<g>
								<g>
									<defs>
										<path id="SVGID_1_" d="M316.1,1249.5l-3.4-13.4c0.2,0.9,0.5,1.8,0.8,2.6l3.4,13.4C316.6,1251.2,316.3,1250.3,316.1,1249.5
											z"/>
									</defs>
									<clipPath id="SVGID_2_">
										<use xlink:href="#SVGID_1_"  style="overflow:visible;"/>
									</clipPath>
									<g class="st40">
										<path class="st41" d="M313.6,1238.7l3.4,13.4c-0.3-0.9-0.6-1.8-0.8-2.6l-3.4-13.4C312.9,1237,313.2,1237.9,313.6,1238.7"
											/>
									</g>
								</g>
							</g>
						</g>
					</g>
				</g>
			</g>
			<g class="st38">
				<g>
					<g>
						<g>
							<g>
								<g>
									<defs>
										<path id="SVGID_3_" d="M331.8,1258.9l3.4,13.4c-11.3-2.7-18.9-8.5-22.3-17.1l-3.4-13.4
											C312.9,1250.4,320.5,1256.2,331.8,1258.9z"/>
									</defs>
									<clipPath id="SVGID_4_">
										<use xlink:href="#SVGID_3_"  style="overflow:visible;"/>
									</clipPath>
									<g class="st42">
										<path class="st43" d="M331.8,1258.9l3.4,13.4c-11.3-2.7-18.9-8.5-22.3-17.1l-3.4-13.4
											C312.9,1250.4,320.5,1256.2,331.8,1258.9"/>
									</g>
								</g>
							</g>
						</g>
					</g>
				</g>
			</g>
			<g>
				<path class="st44" d="M331.8,1258.9c-11.3-2.7-18.9-8.5-22.3-17.1l40.2-13.1L331.8,1258.9z"/>
			</g>
			<g>
				<polygon class="st45" points="349.7,1228.7 353.1,1242.1 335.2,1272.2 331.8,1258.9 				"/>
			</g>
			<g class="st38">
				<g>
					<g>
						<g>
							<g>
								<g>
									<defs>
										<path id="SVGID_5_" d="M394.7,1215.3l3.4,13.4c3.9,15.2-8.9,32.2-29.8,39c-10.1,3.3-19.7,3.8-29.1,1.5l-3.4-13.4
											c9.4,2.2,19,1.7,29.1-1.5C385.9,1247.5,398.6,1230.5,394.7,1215.3z"/>
									</defs>
									<clipPath id="SVGID_6_">
										<use xlink:href="#SVGID_5_"  style="overflow:visible;"/>
									</clipPath>
									<g class="st46">
										<path class="st47" d="M394.7,1215.3l3.4,13.4c0.2,0.6,0.3,1.3,0.4,1.9l-3.4-13.4C395,1216.6,394.9,1215.9,394.7,1215.3"/>
										<path class="st48" d="M395.1,1217.2l3.4,13.4c0.2,1.1,0.3,2.2,0.3,3.2l-3.4-13.4C395.4,1219.4,395.3,1218.3,395.1,1217.2"
											/>
										<path class="st49" d="M395.4,1220.5l3.4,13.4c0,1.2-0.1,2.4-0.2,3.7l-3.4-13.4C395.3,1222.9,395.4,1221.7,395.4,1220.5"/>
										<path class="st39" d="M395.2,1224.1l3.4,13.4c-0.2,1.5-0.6,3.1-1.1,4.6l-3.4-13.4C394.6,1227.2,395,1225.7,395.2,1224.1"
											/>
										<path class="st50" d="M394.1,1228.7l3.4,13.4c-2.2,6.5-7,12.8-13.7,17.7l-3.4-13.4
											C387.1,1241.5,391.9,1235.2,394.1,1228.7"/>
										<path class="st39" d="M380.4,1246.4l3.4,13.4c-1.5,1.1-3.2,2.2-4.9,3.2l-3.4-13.4C377.3,1248.6,378.9,1247.6,380.4,1246.4
											"/>
										<path class="st49" d="M375.5,1249.6l3.4,13.4c-1.4,0.8-2.8,1.5-4.3,2.2l-3.4-13.4C372.7,1251.2,374.2,1250.4,375.5,1249.6
											"/>
										<path class="st48" d="M371.2,1251.9l3.4,13.4c-1.3,0.6-2.7,1.2-4.1,1.7l-3.4-13.4C368.5,1253,369.9,1252.5,371.2,1251.9"
											/>
										<path class="st47" d="M367.1,1253.6l3.4,13.4c-0.7,0.3-1.5,0.5-2.2,0.8c-0.7,0.2-1.4,0.5-2.1,0.7l-3.4-13.4
											c0.7-0.2,1.4-0.4,2.1-0.7C365.6,1254.1,366.4,1253.8,367.1,1253.6"/>
										<path class="st51" d="M362.8,1255l3.4,13.4c-1.5,0.4-2.9,0.8-4.4,1.1l-3.4-13.4C359.9,1255.8,361.3,1255.4,362.8,1255"/>
										<path class="st52" d="M358.4,1256.1l3.4,13.4c-1.4,0.3-2.8,0.5-4.3,0.7l-3.4-13.4C355.6,1256.6,357,1256.4,358.4,1256.1"
											/>
										<path class="st53" d="M354.1,1256.8l3.4,13.4c-1.5,0.2-3,0.3-4.5,0.4l-3.4-13.4C351.1,1257.1,352.6,1257,354.1,1256.8"/>
										<path class="st54" d="M349.6,1257.2l3.4,13.4c-1.8,0.1-3.7,0.1-5.5-0.1l-3.4-13.4C346,1257.2,347.8,1257.3,349.6,1257.2"
											/>
										<path class="st41" d="M344.1,1257.1l3.4,13.4c-2.8-0.2-5.6-0.6-8.3-1.3l-3.4-13.4C338.6,1256.5,341.3,1256.9,344.1,1257.1
											"/>
									</g>
								</g>
							</g>
						</g>
					</g>
				</g>
			</g>
			<g>
				<path class="st55" d="M335.8,1255.9l17.9-30.2l-40.2,13c-6.2-15.8,6.8-34.5,29-41.7c10.1-3.3,20.3-3.6,29.1-1.5
					c10.5,2.5,18.9,8.5,22.3,17.1c6.2,15.8-6.8,34.5-29,41.7C354.8,1257.6,345.2,1258.1,335.8,1255.9z"/>
			</g>
		</g>
	</g>
</g>
<image style="display:none;overflow:visible;enable-background:new    ;" width="1300" height="1071" xlink:href="../image-data-design/innovation-idea-concept-in-flat-design-style-F2TFRR.png"  transform="matrix(0.1092 0 0 0.1092 27.82 218.8457)">
</image>
<circle class="st14" cx="467.7" cy="941.2" r="30.4"/>
<text transform="matrix(1 0 0 1 458.9717 952.1289)" class="st34 st20 st56">6</text>
<circle class="st14" cx="134.5" cy="801.2" r="28.7"/>
<text transform="matrix(1 0 0 1 126.2058 811.4291)" class="st34 st20 st35">7</text>
</svg>
