<?xml version="1.0" standalone="no"?>
<!DOCTYPE svg PUBLIC "-//W3C//DTD SVG 20010904//EN"
 "http://www.w3.org/TR/2001/REC-SVG-20010904/DTD/svg10.dtd">
<svg version="1.0" xmlns="http://www.w3.org/2000/svg"
 width="653.000000pt" height="649.000000pt" viewBox="0 0 653.000000 649.000000"
 preserveAspectRatio="xMidYMid meet">

<g transform="translate(0.000000,649.000000) scale(0.100000,-0.100000)"
fill="#000000" stroke="none">
<path d="M3060 6479 c-484 -42 -861 -144 -1250 -339 -339 -170 -607 -366 -875
-642 -148 -151 -198 -210 -308 -360 -293 -403 -497 -890 -577 -1378 -33 -206
-53 -469 -46 -615 38 -766 267 -1388 724 -1965 101 -128 393 -416 522 -516
354 -274 740 -469 1145 -579 126 -35 354 -83 360 -77 3 3 5 515 5 1139 l0
1133 -415 0 -415 0 0 475 0 475 414 0 415 0 4 483 c3 451 5 488 26 579 112
500 413 794 916 895 134 27 495 24 750 -6 105 -12 206 -25 225 -29 l35 -8 3
-396 2 -396 -267 -5 c-152 -3 -290 -10 -318 -17 -130 -31 -248 -117 -299 -218
-55 -109 -59 -138 -64 -524 l-4 -358 451 0 c247 0 452 -3 454 -7 3 -6 -135
-917 -142 -940 -1 -2 -172 -3 -381 -3 l-380 0 0 -1133 c0 -624 2 -1136 5
-1139 6 -6 234 42 360 77 405 110 791 305 1145 579 129 100 421 388 522 516
457 577 686 1199 724 1965 15 314 -57 779 -174 1125 -127 374 -341 757 -585
1045 -82 96 -284 300 -382 385 -456 394 -1046 662 -1645 749 -225 33 -507 45
-680 30z"/>
</g>
</svg>
