<svg id="Calque_1" data-name="Calque 1" xmlns="http://www.w3.org/2000/svg" viewBox="0 0 10764.92 2007.42"><defs><style>.cls-1{opacity:0.79;}.cls-1,.cls-10,.cls-11,.cls-4,.cls-5,.cls-6,.cls-9{isolation:isolate;}.cls-2{opacity:0.08;}.cls-11,.cls-3,.cls-6,.cls-8{fill:none;}.cls-3,.cls-4,.cls-5,.cls-6{stroke:#fff;stroke-width:5px;}.cls-10,.cls-11,.cls-3,.cls-4,.cls-5,.cls-6,.cls-8,.cls-9{stroke-miterlimit:10;}.cls-11,.cls-4,.cls-6,.cls-9{opacity:0.47;}.cls-10,.cls-5{opacity:0.13;}.cls-7{opacity:0.16;}.cls-10,.cls-11,.cls-8,.cls-9{stroke:#000;stroke-width:4px;}</style></defs><title>fond</title><g id="Calque_1-2" data-name="Calque 1"><g id="Calque_2" data-name="Calque 2"><path class="cls-1" d="M6620-229.75l-9084.8,27.18a12.08,12.08,0,0,1-6.31,1.64l-472.31,1.42,4.53,1514.9,9563.43-28.61Z" transform="translate(3535.68 464.76)"/></g><g id="Calque_3" data-name="Calque 3"><g class="cls-2"><polygon class="cls-3" points="5966.75 489.25 5966.19 303.95 6130.76 211.04 6296.11 302.96 6296.67 488.26 6131.86 581.17 5966.75 489.25"/><polygon class="cls-3" points="5636.59 490.24 5636.03 304.93 5800.6 212.03 5965.95 303.95 5966.51 489.25 5801.7 582.15 5636.59 490.24"/><polygon class="cls-4" points="5306.19 491.22 5305.63 305.92 5470.44 213.01 5635.55 304.94 5636.1 490.24 5471.54 583.14 5306.19 491.22"/><polygon class="cls-5" points="4976.03 492.21 4975.47 306.91 5140.27 214 5305.39 305.92 5305.94 491.22 5141.38 584.13 4976.03 492.21"/><polygon class="cls-3" points="4645.87 493.2 4645.31 307.9 4809.87 214.99 4975.23 306.91 4975.78 492.21 4810.98 585.12 4645.87 493.2"/><polygon class="cls-4" points="4315.71 494.19 4315.15 308.89 4479.71 215.98 4645.07 307.9 4645.62 493.2 4480.82 586.11 4315.71 494.19"/><polygon class="cls-3" points="3985.3 495.18 3984.75 309.87 4149.55 216.97 4314.66 308.89 4315.22 494.19 4150.66 587.1 3985.3 495.18"/><polygon class="cls-3" points="3655.14 496.16 3654.59 310.86 3819.39 217.96 3984.5 309.88 3985.06 495.18 3820.5 588.08 3655.14 496.16"/><polygon class="cls-5" points="3324.98 497.15 3324.43 311.85 3488.99 218.94 3654.34 310.86 3654.9 496.16 3490.09 589.07 3324.98 497.15"/><polygon class="cls-3" points="2994.82 498.14 2994.27 312.84 3158.83 219.93 3324.18 311.85 3324.74 497.15 3159.93 590.06 2994.82 498.14"/><polygon class="cls-4" points="2664.42 499.13 2663.86 313.83 2828.67 220.92 2994.02 312.84 2994.58 498.14 2829.78 591.05 2664.42 499.13"/><polygon class="cls-3" points="2334.26 500.12 2333.7 314.81 2498.51 221.91 2663.62 313.83 2664.17 499.13 2499.61 592.03 2334.26 500.12"/><polygon class="cls-5" points="2004.1 501.1 2003.54 315.8 2168.35 222.89 2333.46 314.81 2334.01 500.12 2169.45 593.02 2004.1 501.1"/><polygon class="cls-4" points="1673.94 502.09 1673.38 316.79 1837.94 223.88 2003.3 315.8 2003.86 501.1 1839.05 594.01 1673.94 502.09"/><polygon class="cls-3" points="1343.78 503.08 1343.22 317.78 1507.78 224.87 1673.14 316.79 1673.69 502.09 1508.89 595 1343.78 503.08"/><polygon class="cls-4" points="1013.38 504.07 1012.82 318.76 1177.62 225.86 1342.74 317.78 1343.29 503.08 1178.73 595.99 1013.38 504.07"/><polygon class="cls-3" points="872.38 240.72 847.46 226.85 822.59 240.87 872.38 240.72"/><polygon class="cls-3" points="1013.13 504.07 1012.58 318.77 914.72 264.29 780.34 264.69 682.66 319.75 683.22 505.05 848.57 596.97 1013.13 504.07"/><polygon class="cls-5" points="549.05 580.55 682.97 505.06 682.42 319.75 584.41 265.27 548.11 265.38 549.05 580.55"/><path class="cls-5" d="M-3012-199.65a10.86,10.86,0,0,1,8.29-10.93c-.26-5.71,3.12-11.61,10.16-12.39l-25.11-14L-3183.18-144l.55,185.3,165.11,91.92,6.55-3.69Z" transform="translate(3535.68 464.76)"/><polygon class="cls-4" points="22.89 507.03 22.34 321.73 186.9 228.82 352.26 320.74 352.81 506.04 188.01 598.95 22.89 507.03"/><polygon class="cls-3" points="10259.56 476.4 10259.01 291.1 10423.57 198.2 10588.92 290.12 10589.48 475.42 10424.67 568.33 10259.56 476.4"/><polygon class="cls-3" points="9929.4 477.39 9928.85 292.09 10093.41 199.19 10258.76 291.11 10259.32 476.4 10094.51 569.31 9929.4 477.39"/><polygon class="cls-4" points="9599 478.38 9598.44 293.08 9763.25 200.17 9928.36 292.09 9928.91 477.39 9764.35 570.3 9599 478.38"/><polygon class="cls-3" points="9268.84 479.37 9268.28 294.07 9433.09 201.16 9598.2 293.08 9598.75 478.38 9434.19 571.29 9268.84 479.37"/><polygon class="cls-3" points="8938.68 480.36 8938.12 295.06 9102.68 202.15 9268.04 294.07 9268.59 479.37 9103.79 572.28 8938.68 480.36"/><polygon class="cls-3" points="8608.52 481.34 8607.96 296.04 8772.52 203.14 8937.88 295.06 8938.43 480.36 8773.63 573.26 8608.52 481.34"/><polygon class="cls-4" points="8278.11 482.33 8277.56 297.03 8442.36 204.12 8607.48 296.05 8608.03 481.35 8443.47 574.25 8278.11 482.33"/><polygon class="cls-3" points="7947.95 483.32 7947.4 298.02 8112.2 205.11 8277.32 297.03 8277.87 482.33 8113.31 575.24 7947.95 483.32"/><polygon class="cls-3" points="7617.79 484.31 7617.24 299.01 7781.8 206.1 7947.15 298.02 7947.71 483.32 7782.91 576.23 7617.79 484.31"/><polygon class="cls-4" points="7287.63 485.3 7287.08 300 7451.64 207.09 7616.99 299.01 7617.55 484.31 7452.75 577.22 7287.63 485.3"/><polygon class="cls-3" points="6957.23 486.28 6956.68 300.98 7121.48 208.08 7286.84 300 7287.39 485.3 7122.59 578.2 6957.23 486.28"/><polygon class="cls-3" points="6627.07 487.27 6626.52 301.97 6791.32 209.06 6956.43 300.98 6956.99 486.29 6792.43 579.19 6627.07 487.27"/><polygon class="cls-4" points="6296.91 488.26 6296.35 302.96 6461.16 210.05 6626.27 301.97 6626.83 487.27 6462.27 580.18 6296.91 488.26"/><polygon class="cls-3" points="10425.24 756.47 10424.68 571.4 10589.49 478.26 10754.6 570.42 10755.15 755.48 10590.59 848.63 10425.24 756.47"/><polygon class="cls-4" points="10095.08 757.46 10094.52 572.39 10259.33 479.25 10424.44 571.41 10424.99 756.47 10260.43 849.61 10095.08 757.46"/><polygon class="cls-5" points="9764.92 758.45 9764.36 573.38 9928.92 480.24 10094.28 572.39 10094.83 757.46 9930.03 850.6 9764.92 758.45"/><polygon class="cls-3" points="9434.76 759.43 9434.2 574.37 9598.76 481.23 9764.12 573.38 9764.67 758.45 9599.87 851.59 9434.76 759.43"/><polygon class="cls-3" points="9104.35 760.42 9103.8 575.36 9268.6 482.21 9433.72 574.37 9434.27 759.43 9269.71 852.58 9104.35 760.42"/><polygon class="cls-5" points="8774.19 761.41 8773.64 576.35 8938.44 483.2 9103.56 575.36 9104.11 760.42 8939.55 853.57 8774.19 761.41"/><polygon class="cls-6" points="8444.03 762.4 8443.48 577.33 8608.04 484.19 8773.4 576.35 8773.95 761.41 8609.15 854.55 8444.03 762.4"/><polygon class="cls-3" points="8113.87 763.38 8113.32 578.32 8277.88 485.18 8443.24 577.33 8443.79 762.4 8278.99 855.54 8113.87 763.38"/><polygon class="cls-4" points="7783.47 764.37 7782.91 579.31 7947.72 486.16 8113.07 578.32 8113.63 763.38 7948.83 856.53 7783.47 764.37"/><polygon class="cls-3" points="7453.31 765.36 7452.76 580.3 7617.56 487.15 7782.67 579.31 7783.23 764.37 7618.67 857.52 7453.31 765.36"/><polygon class="cls-3" points="7123.15 766.35 7122.6 581.28 7287.4 488.14 7452.51 580.3 7453.06 765.36 7288.51 858.5 7123.15 766.35"/><polygon class="cls-4" points="6792.99 767.34 6792.44 582.27 6956.99 489.13 7122.35 581.28 7122.9 766.35 6958.1 859.49 6792.99 767.34"/><polygon class="cls-5" points="6462.83 768.32 6462.27 583.26 6626.83 490.12 6792.19 582.27 6792.74 767.34 6627.94 860.48 6462.83 768.32"/><polygon class="cls-3" points="6132.43 769.31 6131.87 584.25 6296.67 491.1 6461.79 583.26 6462.34 768.33 6297.78 861.47 6132.43 769.31"/><polygon class="cls-4" points="5802.27 770.3 5801.71 585.24 5966.51 492.09 6131.63 584.25 6132.18 769.31 5967.62 862.46 5802.27 770.3"/><polygon class="cls-5" points="5472.1 771.29 5471.55 586.22 5636.11 493.08 5801.47 585.24 5802.02 770.3 5637.22 863.44 5472.1 771.29"/><polygon class="cls-3" points="5141.94 772.27 5141.39 587.21 5305.95 494.07 5471.31 586.22 5471.86 771.29 5307.06 864.43 5141.94 772.27"/><polygon class="cls-4" points="4811.54 773.26 4810.99 588.2 4975.79 495.06 5140.9 587.21 5141.46 772.28 4976.9 865.42 4811.54 773.26"/><polygon class="cls-3" points="4481.38 774.25 4480.83 589.19 4645.63 496.04 4810.74 588.2 4811.3 773.26 4646.74 866.41 4481.38 774.25"/><polygon class="cls-5" points="4151.22 775.24 4150.67 590.17 4315.23 497.03 4480.58 589.19 4481.14 774.25 4316.34 867.4 4151.22 775.24"/><polygon class="cls-3" points="3821.06 776.23 3820.51 591.16 3985.07 498.02 4150.42 590.18 4150.98 775.24 3986.18 868.38 3821.06 776.23"/><polygon class="cls-4" points="3490.66 777.22 3490.1 592.15 3654.91 499.01 3820.26 591.16 3820.82 776.23 3656.01 869.37 3490.66 777.22"/><polygon class="cls-3" points="3160.5 778.2 3159.94 593.14 3324.75 500 3489.86 592.15 3490.41 777.22 3325.86 870.36 3160.5 778.2"/><polygon class="cls-5" points="2830.34 779.19 2829.78 594.13 2994.59 500.98 3159.7 593.14 3160.25 778.2 2995.7 871.35 2830.34 779.19"/><polygon class="cls-3" points="2500.18 780.18 2499.62 595.12 2664.18 501.97 2829.54 594.13 2830.09 779.19 2665.29 872.34 2500.18 780.18"/><polygon class="cls-4" points="2170.02 781.17 2169.46 596.1 2334.02 502.96 2499.38 595.12 2499.93 780.18 2335.13 873.32 2170.02 781.17"/><polygon class="cls-3" points="1839.61 782.15 1839.06 597.09 2003.86 503.95 2168.98 596.1 2169.53 781.17 2004.97 874.31 1839.61 782.15"/><polygon class="cls-4" points="1509.45 783.14 1508.9 598.08 1673.7 504.93 1838.82 597.09 1839.37 782.15 1674.81 875.3 1509.45 783.14"/><polygon class="cls-5" points="1179.29 784.13 1178.74 599.07 1343.3 505.92 1508.66 598.08 1509.21 783.14 1344.41 876.29 1179.29 784.13"/><polygon class="cls-3" points="849.13 785.12 848.58 600.05 1013.14 506.91 1178.5 599.07 1179.05 784.13 1014.25 877.27 849.13 785.12"/><polygon class="cls-4" points="549.72 803.38 684.09 878.26 848.65 785.12 848.09 600.05 682.98 507.9 549.06 583.59 549.72 803.38"/><polygon class="cls-4" points="524.72 597.35 518.18 601.04 518.73 786.11 525.29 789.76 524.72 597.35"/><polygon class="cls-3" points="188.57 787.09 188.02 602.03 352.82 508.89 517.93 601.04 518.49 786.11 353.93 879.25 188.57 787.09"/><polygon class="cls-3" points="5968.43 1050.36 5967.87 864.83 6132.43 771.92 6297.79 863.84 6298.34 1049.38 6133.54 1142.28 5968.43 1050.36"/><polygon class="cls-3" points="5638.27 1051.35 5637.71 865.81 5802.27 772.91 5967.63 864.83 5968.18 1050.36 5803.38 1143.27 5638.27 1051.35"/><polygon class="cls-4" points="5307.86 1052.34 5307.31 866.8 5472.11 773.89 5637.23 865.81 5637.78 1051.35 5473.22 1144.26 5307.86 1052.34"/><polygon class="cls-3" points="4977.7 1053.33 4977.15 867.79 5141.95 774.88 5307.07 866.8 5307.62 1052.34 5143.06 1145.25 4977.7 1053.33"/><polygon class="cls-5" points="4647.55 1054.31 4646.99 868.78 4811.55 775.87 4976.9 867.79 4977.46 1053.33 4812.66 1146.23 4647.55 1054.31"/><polygon class="cls-3" points="4317.39 1055.3 4316.83 869.76 4481.39 776.86 4646.75 868.78 4647.3 1054.32 4482.5 1147.22 4317.39 1055.3"/><polygon class="cls-4" points="3986.98 1056.29 3986.43 870.75 4151.23 777.85 4316.34 869.77 4316.9 1055.3 4152.34 1148.21 3986.98 1056.29"/><polygon class="cls-5" points="3656.82 1057.28 3656.27 871.74 3821.07 778.83 3986.18 870.75 3986.74 1056.29 3822.18 1149.2 3656.82 1057.28"/><polygon class="cls-3" points="3326.66 1058.27 3326.11 872.73 3490.67 779.82 3656.02 871.74 3656.58 1057.28 3491.77 1150.19 3326.66 1058.27"/><polygon class="cls-4" points="2996.5 1059.25 2995.95 873.72 3160.51 780.81 3325.86 872.73 3326.42 1058.27 3161.61 1151.17 2996.5 1059.25"/><polygon class="cls-3" points="2666.1 1060.24 2665.54 874.7 2830.35 781.8 2995.7 873.72 2996.26 1059.25 2831.45 1152.16 2666.1 1060.24"/><polygon class="cls-4" points="2335.94 1061.23 2335.38 875.69 2500.19 782.78 2665.3 874.71 2665.85 1060.24 2501.29 1153.15 2335.94 1061.23"/><polygon class="cls-5" points="2005.78 1062.22 2005.22 876.68 2170.03 783.77 2335.14 875.69 2335.69 1061.23 2171.13 1154.14 2005.78 1062.22"/><polygon class="cls-3" points="1675.62 1063.2 1675.06 877.67 1839.62 784.76 2004.98 876.68 2005.53 1062.22 1840.73 1155.13 1675.62 1063.2"/><polygon class="cls-3" points="1345.46 1064.19 1344.9 878.65 1509.46 785.75 1674.82 877.67 1675.37 1063.21 1510.57 1156.11 1345.46 1064.19"/><polygon class="cls-4" points="1015.05 1065.18 1014.5 879.64 1179.3 786.74 1344.41 878.66 1344.97 1064.19 1180.41 1157.1 1015.05 1065.18"/><polygon class="cls-3" points="684.89 1066.17 684.34 880.63 849.14 787.72 1014.25 879.64 1014.81 1065.18 850.25 1158.09 684.89 1066.17"/><polygon class="cls-6" points="550.73 1141.66 684.65 1066.17 684.09 880.63 549.73 805.94 550.73 1141.66"/><polygon class="cls-6" points="525.3 792.36 518.74 788.71 354.18 881.62 354.73 1067.16 519.85 1159.08 526.39 1155.39 525.3 792.36"/><polygon class="cls-4" points="24.57 1068.14 24.02 882.61 188.58 789.7 353.94 881.62 354.49 1067.16 189.69 1160.07 24.57 1068.14"/><polygon class="cls-3" points="10261.24 1037.52 10260.68 851.98 10425.24 759.08 10590.6 851 10591.16 1036.53 10426.35 1129.44 10261.24 1037.52"/><polygon class="cls-3" points="9931.08 1038.51 9930.52 852.97 10095.08 760.06 10260.44 851.98 10261 1037.52 10096.19 1130.43 9931.08 1038.51"/><polygon class="cls-3" points="9600.68 1039.5 9600.12 853.96 9764.92 761.05 9930.04 852.97 9930.59 1038.51 9766.03 1131.42 9600.68 1039.5"/><polygon class="cls-4" points="9270.52 1040.48 9269.96 854.95 9434.76 762.04 9599.88 853.96 9600.43 1039.5 9435.87 1132.4 9270.52 1040.48"/><polygon class="cls-3" points="8940.36 1041.47 8939.8 855.93 9104.36 763.03 9269.72 854.95 9270.27 1040.48 9105.47 1133.39 8940.36 1041.47"/><polygon class="cls-3" points="8610.2 1042.46 8609.64 856.92 8774.2 764.01 8939.56 855.93 8940.11 1041.47 8775.31 1134.38 8610.2 1042.46"/><polygon class="cls-5" points="8279.79 1043.45 8279.24 857.91 8444.04 765 8609.15 856.92 8609.71 1042.46 8445.15 1135.37 8279.79 1043.45"/><polygon class="cls-3" points="7949.63 1044.43 7949.08 858.9 8113.88 765.99 8278.99 857.91 8279.55 1043.45 8114.99 1136.36 7949.63 1044.43"/><polygon class="cls-3" points="7619.47 1045.42 7618.92 859.88 7783.48 766.98 7948.83 858.9 7949.39 1044.44 7784.59 1137.34 7619.47 1045.42"/><polygon class="cls-5" points="7289.31 1046.41 7288.76 860.87 7453.32 767.97 7618.67 859.89 7619.23 1045.42 7454.43 1138.33 7289.31 1046.41"/><polygon class="cls-6" points="6958.91 1047.4 6958.35 861.86 7123.16 768.95 7288.51 860.87 7289.07 1046.41 7124.27 1139.32 6958.91 1047.4"/><polygon class="cls-3" points="6628.75 1048.39 6628.19 862.85 6793 769.94 6958.11 861.86 6958.66 1047.4 6794.1 1140.31 6628.75 1048.39"/><polygon class="cls-4" points="6298.59 1049.38 6298.03 863.84 6462.84 770.93 6627.95 862.85 6628.5 1048.39 6463.94 1141.29 6298.59 1049.38"/><polygon class="cls-3" points="10426.92 1317.58 10426.36 1132.28 10591.16 1039.38 10756.28 1131.3 10756.83 1316.6 10592.27 1409.74 10426.92 1317.58"/><polygon class="cls-3" points="10096.75 1318.57 10096.2 1133.27 10261 1040.36 10426.12 1132.28 10426.67 1317.59 10262.11 1410.73 10096.75 1318.57"/><polygon class="cls-4" points="9766.59 1319.56 9766.04 1134.26 9930.6 1041.35 10095.96 1133.27 10096.51 1318.57 9931.71 1411.72 9766.59 1319.56"/><polygon class="cls-3" points="9436.43 1320.55 9435.88 1135.25 9600.44 1042.34 9765.8 1134.26 9766.35 1319.56 9601.55 1412.7 9436.43 1320.55"/><polygon class="cls-3" points="9106.03 1321.54 9105.48 1136.23 9270.28 1043.33 9435.39 1135.25 9435.95 1320.55 9271.39 1413.69 9106.03 1321.54"/><polygon class="cls-4" points="8775.87 1322.52 8775.32 1137.22 8940.12 1044.32 9105.23 1136.24 9105.79 1321.54 8941.23 1414.68 8775.87 1322.52"/><polygon class="cls-3" points="8445.71 1323.51 8445.16 1138.21 8609.72 1045.3 8775.07 1137.22 8775.63 1322.53 8610.83 1415.67 8445.71 1323.51"/><polygon class="cls-4" points="8115.55 1324.5 8115 1139.2 8279.56 1046.29 8444.91 1138.21 8445.47 1323.51 8280.67 1416.66 8115.55 1324.5"/><polygon class="cls-5" points="7785.15 1325.49 7784.59 1140.19 7949.4 1047.28 8114.75 1139.2 8115.31 1324.5 7950.51 1417.64 7785.15 1325.49"/><polygon class="cls-4" points="7454.99 1326.47 7454.43 1141.17 7619.24 1048.27 7784.35 1140.19 7784.9 1325.49 7620.35 1418.63 7454.99 1326.47"/><polygon class="cls-3" points="7124.83 1327.46 7124.27 1142.16 7289.08 1049.26 7454.19 1141.17 7454.74 1326.48 7290.19 1419.62 7124.83 1327.46"/><polygon class="cls-3" points="6794.67 1328.45 6794.11 1143.15 6958.67 1050.24 7124.03 1142.16 7124.58 1327.46 6959.78 1420.61 6794.67 1328.45"/><polygon class="cls-5" points="6464.51 1329.44 6463.95 1144.14 6628.51 1051.23 6793.87 1143.15 6794.42 1328.45 6629.62 1421.6 6464.51 1329.44"/><polygon class="cls-3" points="6134.1 1330.43 6133.55 1145.13 6298.35 1052.22 6463.47 1144.14 6464.02 1329.44 6299.46 1422.58 6134.1 1330.43"/><polygon class="cls-5" points="5803.94 1331.41 5803.39 1146.11 5968.19 1053.21 6133.31 1145.13 6133.86 1330.43 5969.3 1423.57 5803.94 1331.41"/><polygon class="cls-3" points="5473.78 1332.4 5473.23 1147.1 5637.79 1054.19 5803.15 1146.12 5803.7 1331.42 5638.9 1424.56 5473.78 1332.4"/><polygon class="cls-5" points="5143.62 1333.39 5143.07 1148.09 5307.63 1055.18 5472.99 1147.1 5473.54 1332.4 5308.74 1425.55 5143.62 1333.39"/><polygon class="cls-3" points="4813.22 1334.38 4812.67 1149.08 4977.47 1056.17 5142.58 1148.09 5143.14 1333.39 4978.58 1426.54 4813.22 1334.38"/><polygon class="cls-4" points="4483.06 1335.37 4482.51 1150.07 4647.31 1057.16 4812.42 1149.08 4812.98 1334.38 4648.42 1427.52 4483.06 1335.37"/><polygon class="cls-3" points="4152.9 1336.35 4152.35 1151.05 4316.91 1058.15 4482.26 1150.07 4482.82 1335.37 4318.01 1428.51 4152.9 1336.35"/><polygon class="cls-3" points="3822.74 1337.34 3822.19 1152.04 3986.75 1059.13 4152.1 1151.05 4152.66 1336.36 3987.85 1429.5 3822.74 1337.34"/><polygon class="cls-4" points="3492.34 1338.33 3491.78 1153.03 3656.59 1060.12 3821.94 1152.04 3822.5 1337.34 3657.69 1430.49 3492.34 1338.33"/><polygon class="cls-5" points="3162.18 1339.32 3161.62 1154.02 3326.43 1061.11 3491.54 1153.03 3492.09 1338.33 3327.53 1431.47 3162.18 1339.32"/><polygon class="cls-3" points="2832.02 1340.31 2831.46 1155.01 2996.26 1062.1 3161.38 1154.02 3161.93 1339.32 2997.37 1432.46 2832.02 1340.31"/><polygon class="cls-5" points="2501.86 1341.29 2501.3 1155.99 2665.86 1063.09 2831.22 1155.01 2831.77 1340.31 2666.97 1433.45 2501.86 1341.29"/><polygon class="cls-3" points="2171.7 1342.28 2171.14 1156.98 2335.7 1064.07 2501.06 1155.99 2501.61 1341.29 2336.81 1434.44 2171.7 1342.28"/><polygon class="cls-4" points="1841.29 1343.27 1840.74 1157.97 2005.54 1065.06 2170.65 1156.98 2171.21 1342.28 2006.65 1435.43 1841.29 1343.27"/><polygon class="cls-5" points="1511.13 1344.26 1510.58 1158.96 1675.38 1066.05 1840.49 1157.97 1841.05 1343.27 1676.49 1436.41 1511.13 1344.26"/><polygon class="cls-3" points="1180.97 1345.24 1180.42 1159.94 1344.98 1067.04 1510.33 1158.96 1510.89 1344.26 1346.09 1437.4 1180.97 1345.24"/><polygon class="cls-3" points="850.81 1346.23 850.26 1160.93 1014.82 1068.03 1180.17 1159.94 1180.73 1345.25 1015.93 1438.39 850.81 1346.23"/><polygon class="cls-5" points="551.4 1364.49 685.77 1439.38 850.33 1346.23 849.77 1160.93 684.66 1069.01 550.74 1144.51 551.4 1364.49"/><polygon class="cls-5" points="526.4 1158.23 519.86 1161.92 520.41 1347.22 526.97 1350.88 526.4 1158.23"/><polygon class="cls-3" points="190.25 1348.21 189.69 1162.91 354.5 1070 519.61 1161.92 520.16 1347.22 355.61 1440.37 190.25 1348.21"/><polygon class="cls-3" points="5974.02 1614.55 5973.46 1429.25 6138.02 1336.34 6303.38 1428.26 6303.93 1613.56 6139.13 1706.47 5974.02 1614.55"/><polygon class="cls-4" points="5643.86 1615.54 5643.3 1430.23 5807.86 1337.33 5973.22 1429.25 5973.77 1614.55 5808.97 1707.45 5643.86 1615.54"/><polygon class="cls-3" points="5313.45 1616.52 5312.9 1431.22 5477.7 1338.32 5642.82 1430.23 5643.37 1615.54 5478.81 1708.44 5313.45 1616.52"/><polygon class="cls-4" points="4983.29 1617.51 4982.74 1432.21 5147.54 1339.3 5312.66 1431.22 5313.21 1616.52 5148.65 1709.43 4983.29 1617.51"/><polygon class="cls-3" points="4653.13 1618.5 4652.58 1433.2 4817.14 1340.29 4982.5 1432.21 4983.05 1617.51 4818.25 1710.42 4653.13 1618.5"/><polygon class="cls-3" points="4322.97 1619.49 4322.42 1434.18 4486.98 1341.28 4652.34 1433.2 4652.89 1618.5 4488.09 1711.41 4322.97 1619.49"/><polygon class="cls-5" points="3992.57 1620.47 3992.02 1435.17 4156.82 1342.27 4321.93 1434.19 4322.49 1619.49 4157.93 1712.39 3992.57 1620.47"/><polygon class="cls-3" points="3662.41 1621.46 3661.86 1436.16 3826.66 1343.25 3991.77 1435.17 3992.33 1620.47 3827.77 1713.38 3662.41 1621.46"/><polygon class="cls-3" points="3332.25 1622.45 3331.7 1437.15 3496.26 1344.24 3661.61 1436.16 3662.17 1621.46 3497.36 1714.37 3332.25 1622.45"/><polygon class="cls-3" points="3002.09 1623.44 3001.54 1438.14 3166.1 1345.23 3331.45 1437.15 3332.01 1622.45 3167.2 1715.36 3002.09 1623.44"/><polygon class="cls-4" points="2671.69 1624.43 2671.13 1439.13 2835.94 1346.22 3001.29 1438.14 3001.85 1623.44 2837.04 1716.35 2671.69 1624.43"/><polygon class="cls-3" points="2341.53 1625.41 2340.97 1440.11 2505.78 1347.21 2670.89 1439.13 2671.44 1624.43 2506.88 1717.33 2341.53 1625.41"/><polygon class="cls-5" points="2011.37 1626.4 2010.81 1441.1 2175.62 1348.19 2340.73 1440.11 2341.28 1625.41 2176.72 1718.32 2011.37 1626.4"/><polygon class="cls-3" points="1681.21 1627.39 1680.65 1442.09 1845.21 1349.18 2010.57 1441.1 2011.12 1626.4 1846.32 1719.31 1681.21 1627.39"/><polygon class="cls-4" points="1351.05 1628.38 1350.49 1443.08 1515.05 1350.17 1680.41 1442.09 1680.96 1627.39 1516.16 1720.3 1351.05 1628.38"/><polygon class="cls-5" points="1020.64 1629.37 1020.09 1444.07 1184.89 1351.16 1350.01 1443.08 1350.56 1628.38 1186 1721.29 1020.64 1629.37"/><polygon class="cls-4" points="690.48 1630.35 689.93 1445.05 854.73 1352.14 1019.84 1444.07 1020.4 1629.37 855.84 1722.27 690.48 1630.35"/><path class="cls-3" d="M-2845.44,1165.59l-.56-185.3-138.27-76.87.54,182.49c.05,15.28-24.34,15.32-24.38.08l-.59-196.14-2.66-1.48-164.56,92.91.56,185.3,165.11,91.92Z" transform="translate(3535.68 464.76)"/><polygon class="cls-5" points="30.16 1632.33 29.61 1447.03 194.17 1354.12 359.52 1446.04 360.08 1631.34 195.28 1724.25 30.16 1632.33"/><polygon class="cls-3" points="10266.83 1601.7 10266.27 1416.4 10430.83 1323.5 10596.19 1415.42 10596.75 1600.72 10431.94 1693.62 10266.83 1601.7"/><polygon class="cls-5" points="9936.67 1602.69 9936.11 1417.39 10100.67 1324.48 10266.03 1416.4 10266.58 1601.7 10101.78 1694.61 9936.67 1602.69"/><polygon class="cls-3" points="9606.26 1603.68 9605.71 1418.38 9770.51 1325.47 9935.63 1417.39 9936.18 1602.69 9771.62 1695.6 9606.26 1603.68"/><polygon class="cls-5" points="9276.1 1604.67 9275.55 1419.37 9440.35 1326.46 9605.47 1418.38 9606.02 1603.68 9441.46 1696.59 9276.1 1604.67"/><polygon class="cls-3" points="8945.94 1605.66 8945.39 1420.36 9109.95 1327.45 9275.31 1419.37 9275.86 1604.67 9111.06 1697.58 8945.94 1605.66"/><polygon class="cls-5" points="8615.78 1606.64 8615.23 1421.34 8779.79 1328.44 8945.15 1420.36 8945.7 1605.66 8780.9 1698.56 8615.78 1606.64"/><polygon class="cls-3" points="8285.38 1607.63 8284.83 1422.33 8449.63 1329.42 8614.74 1421.34 8615.3 1606.64 8450.74 1699.55 8285.38 1607.63"/><polygon class="cls-3" points="7955.22 1608.62 7954.67 1423.32 8119.47 1330.41 8284.58 1422.33 8285.14 1607.63 8120.58 1700.54 7955.22 1608.62"/><polygon class="cls-3" points="7625.06 1609.61 7624.51 1424.31 7789.07 1331.4 7954.42 1423.32 7954.98 1608.62 7790.17 1701.53 7625.06 1609.61"/><polygon class="cls-3" points="7294.9 1610.6 7294.35 1425.29 7458.91 1332.39 7624.26 1424.31 7624.82 1609.61 7460.01 1702.52 7294.9 1610.6"/><polygon class="cls-4" points="6964.5 1611.58 6963.94 1426.28 7128.75 1333.38 7294.1 1425.3 7294.66 1610.6 7129.85 1703.5 6964.5 1611.58"/><polygon class="cls-3" points="6634.34 1612.57 6633.78 1427.27 6798.59 1334.36 6963.7 1426.28 6964.25 1611.58 6799.69 1704.49 6634.34 1612.57"/><polygon class="cls-4" points="6304.18 1613.56 6303.62 1428.26 6468.43 1335.35 6633.54 1427.27 6634.09 1612.57 6469.53 1705.48 6304.18 1613.56"/><polygon class="cls-3" points="10432.5 1881.77 10431.95 1696.7 10596.75 1603.56 10761.87 1695.72 10762.42 1880.78 10597.86 1973.92 10432.5 1881.77"/><polygon class="cls-4" points="10102.34 1882.76 10101.79 1697.69 10266.59 1604.55 10431.71 1696.7 10432.26 1881.77 10267.7 1974.91 10102.34 1882.76"/><polygon class="cls-3" points="9772.18 1883.74 9771.63 1698.68 9936.19 1605.54 10101.55 1697.69 10102.1 1882.76 9937.3 1975.9 9772.18 1883.74"/><polygon class="cls-4" points="9442.02 1884.73 9441.47 1699.67 9606.03 1606.52 9771.39 1698.68 9771.94 1883.74 9607.14 1976.89 9442.02 1884.73"/><polygon class="cls-3" points="9111.62 1885.72 9111.07 1700.66 9275.87 1607.51 9440.98 1699.67 9441.54 1884.73 9276.98 1977.88 9111.62 1885.72"/><polygon class="cls-3" points="8781.46 1886.71 8780.91 1701.64 8945.71 1608.5 9110.82 1700.66 9111.38 1885.72 8946.82 1978.87 8781.46 1886.71"/><polygon class="cls-4" points="8451.3 1887.7 8450.75 1702.63 8615.31 1609.49 8780.66 1701.64 8781.22 1886.71 8616.41 1979.85 8451.3 1887.7"/><polygon class="cls-3" points="8121.14 1888.68 8120.59 1703.62 8285.15 1610.48 8450.5 1702.63 8451.06 1887.7 8286.25 1980.84 8121.14 1888.68"/><polygon class="cls-4" points="7790.74 1889.67 7790.18 1704.61 7954.99 1611.46 8120.34 1703.62 8120.9 1888.68 7956.09 1981.83 7790.74 1889.67"/><polygon class="cls-3" points="7460.58 1890.66 7460.02 1705.6 7624.83 1612.45 7789.94 1704.61 7790.49 1889.67 7625.93 1982.82 7460.58 1890.66"/><polygon class="cls-5" points="7130.42 1891.65 7129.86 1706.58 7294.67 1613.44 7459.78 1705.6 7460.33 1890.66 7295.77 1983.8 7130.42 1891.65"/><polygon class="cls-3" points="6800.26 1892.63 6799.7 1707.57 6964.26 1614.43 7129.62 1706.58 7130.17 1891.65 6965.37 1984.79 6800.26 1892.63"/><polygon class="cls-3" points="6470.1 1893.62 6469.54 1708.56 6634.1 1615.41 6799.46 1707.57 6800.01 1892.64 6635.21 1985.78 6470.1 1893.62"/><polygon class="cls-3" points="6139.69 1894.61 6139.14 1709.55 6303.94 1616.4 6469.06 1708.56 6469.61 1893.62 6305.05 1986.77 6139.69 1894.61"/><polygon class="cls-5" points="5809.53 1895.6 5808.98 1710.54 5973.78 1617.39 6138.9 1709.55 6139.45 1894.61 5974.89 1987.76 5809.53 1895.6"/><polygon class="cls-3" points="5479.37 1896.59 5478.82 1711.52 5643.38 1618.38 5808.74 1710.54 5809.29 1895.6 5644.49 1988.74 5479.37 1896.59"/><polygon class="cls-5" points="5149.21 1897.57 5148.66 1712.51 5313.22 1619.37 5478.58 1711.52 5479.13 1896.59 5314.33 1989.73 5149.21 1897.57"/><polygon class="cls-3" points="4818.81 1898.56 4818.26 1713.5 4983.06 1620.36 5148.17 1712.51 5148.73 1897.58 4984.17 1990.72 4818.81 1898.56"/><polygon class="cls-5" points="4488.65 1899.55 4488.1 1714.49 4652.9 1621.34 4818.01 1713.5 4818.57 1898.56 4654.01 1991.71 4488.65 1899.55"/><polygon class="cls-4" points="4158.49 1900.54 4157.94 1715.47 4322.49 1622.33 4487.85 1714.49 4488.41 1899.55 4323.6 1992.7 4158.49 1900.54"/><polygon class="cls-3" points="3828.33 1901.53 3827.78 1716.46 3992.34 1623.32 4157.69 1715.47 4158.24 1900.54 3993.44 1993.68 3828.33 1901.53"/><polygon class="cls-5" points="3497.93 1902.52 3497.37 1717.45 3662.18 1624.31 3827.53 1716.46 3828.09 1901.53 3663.28 1994.67 3497.93 1902.52"/><polygon class="cls-4" points="3167.77 1903.5 3167.21 1718.44 3332.01 1625.29 3497.13 1717.45 3497.68 1902.52 3333.12 1995.66 3167.77 1903.5"/><polygon class="cls-5" points="2837.61 1904.49 2837.05 1719.43 3001.86 1626.28 3166.97 1718.44 3167.52 1903.5 3002.96 1996.65 2837.61 1904.49"/><polygon class="cls-3" points="2507.45 1905.48 2506.89 1720.41 2671.45 1627.27 2836.81 1719.43 2837.36 1904.49 2672.56 1997.63 2507.45 1905.48"/><polygon class="cls-4" points="2177.29 1906.46 2176.73 1721.4 2341.29 1628.26 2506.65 1720.41 2507.2 1905.48 2342.4 1998.62 2177.29 1906.46"/><polygon class="cls-3" points="1846.88 1907.45 1846.33 1722.39 2011.13 1629.25 2176.24 1721.4 2176.8 1906.47 2012.24 1999.61 1846.88 1907.45"/><polygon class="cls-5" points="1516.72 1908.44 1516.17 1723.38 1680.97 1630.23 1846.08 1722.39 1846.64 1907.45 1682.08 2000.6 1516.72 1908.44"/><polygon class="cls-3" points="1186.56 1909.43 1186.01 1724.37 1350.57 1631.22 1515.92 1723.38 1516.48 1908.44 1351.68 2001.59 1186.56 1909.43"/><path class="cls-3" d="M-2349.37,1444.67l-.55-185.07-165.36-92.15-164.56,93.14.17,55.38,81.6-.24c5.46,0,9,2.83,10.7,6.56a10.73,10.73,0,0,1,6.8,10.35c0,12.52-16.35,14.8-22.27,6.8l-76.76.23.32,106,165.11,92.16Z" transform="translate(3535.68 464.76)"/><path class="cls-5" d="M-2679.77,1445.65l-.32-106-301.92.9c-15.71,0-15.76-23.64-.07-23.69l301.92-.91-.16-55.38-165.12-92.16-164.8,93.15.55,185.06,165.36,92.16Z" transform="translate(3535.68 464.76)"/><polygon class="cls-4" points="195.84 1912.39 195.28 1727.33 360.09 1634.18 525.2 1726.34 525.75 1911.41 361.2 2004.55 195.84 1912.39"/></g><g class="cls-7"><polygon class="cls-8" points="5946.41 293.34 5945.86 108.04 6110.42 15.13 6275.77 107.06 6276.33 292.36 6111.52 385.26 5946.41 293.34"/><polygon class="cls-8" points="5616.25 294.33 5615.7 109.03 5780.26 16.12 5945.61 108.04 5946.17 293.34 5781.36 386.25 5616.25 294.33"/><polygon class="cls-9" points="5285.85 295.32 5285.29 110.02 5450.1 17.11 5615.21 109.03 5615.77 294.33 5451.2 387.24 5285.85 295.32"/><polygon class="cls-10" points="4955.69 296.31 4955.13 111.01 5119.94 18.1 5285.05 110.02 5285.6 295.32 5121.05 388.23 4955.69 296.31"/><polygon class="cls-8" points="4625.53 297.29 4624.97 111.99 4789.53 19.09 4954.89 111.01 4955.44 296.31 4790.64 389.21 4625.53 297.29"/><polygon class="cls-9" points="4295.37 298.28 4294.81 112.98 4459.37 20.07 4624.73 111.99 4625.28 297.3 4460.48 390.2 4295.37 298.28"/><polygon class="cls-8" points="3964.97 299.27 3964.41 113.97 4129.21 21.06 4294.33 112.98 4294.88 298.28 4130.32 391.19 3964.97 299.27"/><polygon class="cls-8" points="3634.8 300.26 3634.25 114.96 3799.05 22.05 3964.17 113.97 3964.72 299.27 3800.16 392.18 3634.8 300.26"/><polygon class="cls-10" points="3304.64 301.25 3304.09 115.94 3468.65 23.04 3634.01 114.96 3634.56 300.26 3469.76 393.17 3304.64 301.25"/><polygon class="cls-8" points="2974.49 302.23 2973.93 116.93 3138.49 24.03 3303.85 115.95 3304.4 301.25 3139.6 394.15 2974.49 302.23"/><polygon class="cls-9" points="2644.08 303.22 2643.53 117.92 2808.33 25.01 2973.69 116.93 2974.24 302.23 2809.44 395.14 2644.08 303.22"/><polygon class="cls-8" points="2313.92 304.21 2313.37 118.91 2478.17 26 2643.28 117.92 2643.84 303.22 2479.28 396.13 2313.92 304.21"/><polygon class="cls-10" points="1983.76 305.2 1983.21 119.9 2148.01 26.99 2313.12 118.91 2313.68 304.21 2149.12 397.12 1983.76 305.2"/><polygon class="cls-9" points="1653.6 306.19 1653.05 120.88 1817.61 27.98 1982.96 119.9 1983.52 305.2 1818.71 398.11 1653.6 306.19"/><polygon class="cls-8" points="1323.44 307.17 1322.89 121.87 1487.45 28.97 1652.8 120.89 1653.36 306.19 1488.55 399.09 1323.44 307.17"/><path class="cls-9" d="M-2212.73-157.59l-.55-185.3-165.12-91.92-164.8,92.91.35,117.49,71.68-.21c15.72,0,15.76,23.65.07,23.69l-71.68.22.13,44.11,165.36,91.92Z" transform="translate(3535.68 464.76)"/><polygon class="cls-8" points="992.79 308.16 992.66 264.05 662.75 265.04 662.88 309.15 828.23 401.07 992.79 308.16"/><polygon class="cls-8" points="992.59 240.36 992.24 122.86 827.13 30.94 662.32 123.85 662.67 241.34 992.59 240.36"/><polygon class="cls-10" points="548.43 373.53 662.63 309.15 662.5 265.04 548.11 265.38 548.43 373.53"/><path class="cls-10" d="M-3012-199.65a10.88,10.88,0,0,1,8.3-10.94c-.29-6.11,3.61-12.45,11.71-12.47l118.7-.36-.35-117.49L-3039-432.83l-164.56,92.9.55,185.3,165.12,91.92,26.26-14.8Z" transform="translate(3535.68 464.76)"/><polygon class="cls-9" points="2.56 311.13 2 125.82 166.56 32.92 331.92 124.84 332.47 310.14 167.67 403.05 2.56 311.13"/><polygon class="cls-8" points="10239.22 280.5 10238.67 95.2 10403.23 2.29 10568.58 94.21 10569.14 279.51 10404.34 372.42 10239.22 280.5"/><polygon class="cls-8" points="9909.06 281.49 9908.51 96.19 10073.07 3.28 10238.42 95.2 10238.98 280.5 10074.18 373.41 9909.06 281.49"/><polygon class="cls-9" points="9578.66 282.48 9578.1 97.17 9742.91 4.27 9908.02 96.19 9908.58 281.49 9744.02 374.4 9578.66 282.48"/><polygon class="cls-8" points="9248.5 283.46 9247.94 98.16 9412.75 5.26 9577.86 97.18 9578.42 282.48 9413.86 375.38 9248.5 283.46"/><polygon class="cls-8" points="8918.34 284.45 8917.78 99.15 9082.34 6.24 9247.7 98.16 9248.26 283.46 9083.45 376.37 8918.34 284.45"/><polygon class="cls-8" points="8588.18 285.44 8587.63 100.14 8752.18 7.23 8917.54 99.15 8918.1 284.45 8753.29 377.36 8588.18 285.44"/><polygon class="cls-9" points="8257.78 286.43 8257.22 101.13 8422.02 8.22 8587.14 100.14 8587.69 285.44 8423.13 378.35 8257.78 286.43"/><polygon class="cls-8" points="7927.62 287.42 7927.06 102.11 8091.86 9.21 8256.98 101.13 8257.53 286.43 8092.97 379.33 7927.62 287.42"/><polygon class="cls-8" points="7597.46 288.4 7596.9 103.1 7761.46 10.2 7926.82 102.11 7927.37 287.42 7762.57 380.32 7597.46 288.4"/><polygon class="cls-9" points="7267.3 289.39 7266.74 104.09 7431.3 11.18 7596.66 103.1 7597.21 288.4 7432.41 381.31 7267.3 289.39"/><polygon class="cls-8" points="6936.89 290.38 6936.34 105.08 7101.14 12.17 7266.5 104.09 7267.05 289.39 7102.25 382.3 6936.89 290.38"/><polygon class="cls-8" points="6606.73 291.37 6606.18 106.07 6770.98 13.16 6936.09 105.08 6936.65 290.38 6772.09 383.29 6606.73 291.37"/><polygon class="cls-9" points="6276.57 292.36 6276.02 107.05 6440.82 14.15 6605.93 106.07 6606.49 291.37 6441.93 384.27 6276.57 292.36"/><polygon class="cls-8" points="10404.9 560.56 10404.34 375.5 10569.15 282.36 10734.26 374.51 10734.82 559.58 10570.26 652.72 10404.9 560.56"/><polygon class="cls-9" points="10074.74 561.55 10074.18 376.49 10238.99 283.34 10404.1 375.5 10404.66 560.57 10240.1 653.71 10074.74 561.55"/><polygon class="cls-10" points="9744.58 562.54 9744.02 377.48 9908.58 284.33 10073.94 376.49 10074.5 561.55 9909.69 654.7 9744.58 562.54"/><polygon class="cls-8" points="9414.42 563.53 9413.86 378.46 9578.42 285.32 9743.78 377.48 9744.33 562.54 9579.53 655.68 9414.42 563.53"/><polygon class="cls-8" points="9084.01 564.52 9083.46 379.45 9248.26 286.31 9413.38 378.46 9413.93 563.53 9249.37 656.67 9084.01 564.52"/><polygon class="cls-10" points="8753.85 565.5 8753.3 380.44 8918.1 287.3 9083.22 379.45 9083.77 564.52 8919.21 657.66 8753.85 565.5"/><polygon class="cls-11" points="8423.69 566.49 8423.14 381.43 8587.7 288.28 8753.06 380.44 8753.61 565.5 8588.81 658.65 8423.69 566.49"/><polygon class="cls-8" points="8093.53 567.48 8092.98 382.42 8257.54 289.27 8422.9 381.43 8423.45 566.49 8258.65 659.64 8093.53 567.48"/><polygon class="cls-9" points="7763.13 568.47 7762.58 383.4 7927.38 290.26 8092.74 382.42 8093.29 567.48 7928.49 660.62 7763.13 568.47"/><polygon class="cls-8" points="7432.97 569.46 7432.42 384.39 7597.22 291.25 7762.33 383.4 7762.89 568.47 7598.33 661.61 7432.97 569.46"/><polygon class="cls-8" points="7102.81 570.44 7102.26 385.38 7267.06 292.24 7432.17 384.39 7432.73 569.46 7268.17 662.6 7102.81 570.44"/><polygon class="cls-9" points="6772.65 571.43 6772.1 386.37 6936.66 293.22 7102.01 385.38 7102.57 570.44 6937.77 663.59 6772.65 571.43"/><polygon class="cls-10" points="6442.49 572.42 6441.94 387.36 6606.5 294.21 6771.85 386.37 6772.41 571.43 6607.6 664.58 6442.49 572.42"/><polygon class="cls-8" points="6112.09 573.41 6111.53 388.34 6276.34 295.2 6441.45 387.36 6442 572.42 6277.44 665.56 6112.09 573.41"/><polygon class="cls-9" points="5781.93 574.39 5781.37 389.33 5946.18 296.19 6111.29 388.34 6111.84 573.41 5947.28 666.55 5781.93 574.39"/><polygon class="cls-10" points="5451.77 575.38 5451.21 390.32 5615.77 297.18 5781.13 389.33 5781.68 574.39 5616.88 667.54 5451.77 575.38"/><polygon class="cls-8" points="5121.61 576.37 5121.06 391.31 5285.61 298.16 5450.97 390.32 5451.52 575.38 5286.72 668.53 5121.61 576.37"/><polygon class="cls-9" points="4791.2 577.36 4790.65 392.3 4955.45 299.15 5120.57 391.31 5121.12 576.37 4956.56 669.51 4791.2 577.36"/><polygon class="cls-8" points="4461.04 578.35 4460.49 393.28 4625.29 300.14 4790.41 392.3 4790.96 577.36 4626.4 670.5 4461.04 578.35"/><polygon class="cls-10" points="4130.88 579.33 4130.33 394.27 4294.89 301.13 4460.25 393.28 4460.8 578.35 4296 671.49 4130.88 579.33"/><polygon class="cls-8" points="3800.72 580.32 3800.17 395.26 3964.73 302.12 4130.09 394.27 4130.64 579.34 3965.84 672.48 3800.72 580.32"/><polygon class="cls-9" points="3470.32 581.31 3469.77 396.25 3634.57 303.1 3799.93 395.26 3800.48 580.32 3635.68 673.47 3470.32 581.31"/><polygon class="cls-8" points="3140.16 582.3 3139.61 397.23 3304.41 304.09 3469.52 396.25 3470.08 581.31 3305.52 674.46 3140.16 582.3"/><polygon class="cls-10" points="2810 583.29 2809.45 398.22 2974.25 305.08 3139.36 397.24 3139.92 582.3 2975.36 675.44 2810 583.29"/><polygon class="cls-8" points="2479.84 584.27 2479.29 399.21 2643.85 306.07 2809.2 398.22 2809.76 583.29 2644.95 676.43 2479.84 584.27"/><polygon class="cls-9" points="2149.68 585.26 2149.13 400.2 2313.69 307.05 2479.04 399.21 2479.6 584.27 2314.79 677.42 2149.68 585.26"/><polygon class="cls-8" points="1819.28 586.25 1818.72 401.19 1983.53 308.04 2148.64 400.2 2149.19 585.26 1984.63 678.41 1819.28 586.25"/><polygon class="cls-9" points="1489.12 587.24 1488.56 402.17 1653.37 309.03 1818.48 401.19 1819.03 586.25 1654.47 679.39 1489.12 587.24"/><polygon class="cls-10" points="1158.96 588.23 1158.4 403.16 1322.96 310.02 1488.32 402.17 1488.87 587.24 1324.07 680.38 1158.96 588.23"/><polygon class="cls-8" points="828.8 589.21 828.24 404.15 992.8 311.01 1158.16 403.16 1158.71 588.23 993.91 681.37 828.8 589.21"/><polygon class="cls-9" points="549.17 618.5 663.75 682.36 828.31 589.21 827.75 404.15 662.64 311.99 548.44 376.54 549.17 618.5"/><polygon class="cls-9" points="524.1 390.3 497.84 405.14 498.39 590.2 524.74 604.89 524.1 390.3"/><polygon class="cls-8" points="168.23 591.19 167.68 406.13 332.48 312.98 497.6 405.14 498.15 590.2 333.59 683.35 168.23 591.19"/><polygon class="cls-8" points="5948.09 854.46 5947.54 669.16 6112.1 576.25 6277.45 668.17 6278.01 853.47 6113.2 946.38 5948.09 854.46"/><polygon class="cls-8" points="5617.93 855.45 5617.38 670.14 5781.94 577.24 5947.29 669.16 5947.85 854.46 5783.04 947.37 5617.93 855.45"/><polygon class="cls-9" points="5287.53 856.43 5286.97 671.13 5451.78 578.23 5616.89 670.15 5617.44 855.45 5452.88 948.35 5287.53 856.43"/><polygon class="cls-8" points="4957.37 857.42 4956.81 672.12 5121.62 579.21 5286.73 671.13 5287.28 856.43 5122.72 949.34 4957.37 857.42"/><polygon class="cls-10" points="4627.21 858.41 4626.65 673.11 4791.21 580.2 4956.57 672.12 4957.12 857.42 4792.32 950.33 4627.21 858.41"/><polygon class="cls-8" points="4297.05 859.4 4296.49 674.1 4461.05 581.19 4626.41 673.11 4626.96 858.41 4462.16 951.32 4297.05 859.4"/><polygon class="cls-9" points="3966.64 860.39 3966.09 675.09 4130.89 582.18 4296.01 674.1 4296.56 859.4 4132 952.3 3966.64 860.39"/><polygon class="cls-10" points="3636.48 861.37 3635.93 676.07 3800.73 583.16 3965.84 675.09 3966.4 860.39 3801.84 953.29 3636.48 861.37"/><polygon class="cls-8" points="3306.32 862.36 3305.77 677.06 3470.33 584.15 3635.69 676.07 3636.24 861.37 3471.44 954.28 3306.32 862.36"/><polygon class="cls-9" points="2976.16 863.35 2975.61 678.05 3140.17 585.14 3305.53 677.06 3306.08 862.36 3141.28 955.27 2976.16 863.35"/><polygon class="cls-8" points="2645.76 864.34 2645.2 679.04 2810.01 586.13 2975.37 678.05 2975.92 863.35 2811.12 956.26 2645.76 864.34"/><polygon class="cls-9" points="2315.6 865.33 2315.05 680.02 2479.85 587.12 2644.96 679.04 2645.52 864.34 2480.96 957.25 2315.6 865.33"/><polygon class="cls-10" points="1985.44 866.31 1984.89 681.01 2149.69 588.11 2314.8 680.02 2315.36 865.33 2150.8 958.23 1985.44 866.31"/><polygon class="cls-8" points="1655.28 867.3 1654.72 682 1819.29 589.09 1984.64 681.01 1985.2 866.31 1820.39 959.22 1655.28 867.3"/><polygon class="cls-8" points="1325.12 868.29 1324.57 682.99 1489.13 590.08 1654.48 682 1655.04 867.3 1490.23 960.21 1325.12 868.29"/><polygon class="cls-9" points="994.72 869.28 994.16 683.98 1158.96 591.07 1324.08 682.99 1324.63 868.29 1160.07 961.2 994.72 869.28"/><polygon class="cls-8" points="664.56 870.26 664 684.96 828.81 592.06 993.92 683.98 994.47 869.28 829.91 962.18 664.56 870.26"/><polygon class="cls-11" points="550.11 934.64 664.31 870.26 663.76 684.97 549.17 621.27 550.11 934.64"/><polygon class="cls-11" points="524.75 607.69 498.4 593.04 333.84 685.95 334.4 871.25 499.51 963.17 525.77 948.37 524.75 607.69"/><polygon class="cls-9" points="4.24 872.24 3.68 686.94 168.24 594.03 333.6 685.95 334.15 871.25 169.35 964.16 4.24 872.24"/><polygon class="cls-8" points="10240.9 841.62 10240.35 656.31 10404.91 563.41 10570.26 655.33 10570.82 840.63 10406.01 933.53 10240.9 841.62"/><polygon class="cls-8" points="9910.74 842.6 9910.19 657.3 10074.75 564.4 10240.1 656.32 10240.66 841.62 10075.85 934.52 9910.74 842.6"/><polygon class="cls-8" points="9580.34 843.59 9579.78 658.29 9744.59 565.38 9909.7 657.3 9910.25 842.6 9745.69 935.51 9580.34 843.59"/><polygon class="cls-9" points="9250.18 844.58 9249.62 659.28 9414.43 566.37 9579.54 658.29 9580.09 843.59 9415.53 936.5 9250.18 844.58"/><polygon class="cls-8" points="8920.02 845.57 8919.46 660.27 9084.02 567.36 9249.38 659.28 9249.93 844.58 9085.13 937.49 8920.02 845.57"/><polygon class="cls-8" points="8589.86 846.55 8589.3 661.25 8753.86 568.35 8919.22 660.27 8919.77 845.57 8754.97 938.48 8589.86 846.55"/><polygon class="cls-10" points="8259.45 847.54 8258.9 662.24 8423.7 569.34 8588.82 661.25 8589.37 846.56 8424.81 939.46 8259.45 847.54"/><polygon class="cls-8" points="7929.3 848.53 7928.74 663.23 8093.54 570.32 8258.66 662.24 8259.21 847.54 8094.65 940.45 7929.3 848.53"/><polygon class="cls-8" points="7599.14 849.52 7598.58 664.22 7763.14 571.31 7928.5 663.23 7929.05 848.53 7764.25 941.44 7599.14 849.52"/><polygon class="cls-10" points="7268.98 850.51 7268.42 665.21 7432.98 572.3 7598.34 664.22 7598.89 849.52 7434.09 942.43 7268.98 850.51"/><polygon class="cls-11" points="6938.57 851.5 6938.02 666.19 7102.82 573.29 7268.18 665.21 7268.73 850.51 7103.93 943.41 6938.57 851.5"/><polygon class="cls-8" points="6608.41 852.48 6607.86 667.18 6772.66 574.27 6937.77 666.2 6938.33 851.5 6773.77 944.4 6608.41 852.48"/><polygon class="cls-9" points="6278.25 853.47 6277.7 668.17 6442.5 575.26 6607.61 667.18 6608.17 852.48 6443.61 945.39 6278.25 853.47"/><polygon class="cls-8" points="10406.58 1121.68 10406.02 936.62 10570.83 843.47 10735.94 935.63 10736.49 1120.69 10571.93 1213.84 10406.58 1121.68"/><polygon class="cls-8" points="10076.42 1122.67 10075.86 937.6 10240.67 844.46 10405.78 936.62 10406.33 1121.68 10241.77 1214.82 10076.42 1122.67"/><polygon class="cls-9" points="9746.26 1123.65 9745.7 938.59 9910.26 845.45 10075.62 937.6 10076.17 1122.67 9911.37 1215.81 9746.26 1123.65"/><polygon class="cls-8" points="9416.1 1124.64 9415.54 939.58 9580.1 846.44 9745.46 938.59 9746.01 1123.66 9581.21 1216.8 9416.1 1124.64"/><polygon class="cls-8" points="9085.69 1125.63 9085.14 940.57 9249.94 847.42 9415.06 939.58 9415.61 1124.64 9251.05 1217.79 9085.69 1125.63"/><polygon class="cls-9" points="8755.53 1126.62 8754.98 941.55 8919.78 848.41 9084.9 940.57 9085.45 1125.63 8920.89 1218.78 8755.53 1126.62"/><polygon class="cls-8" points="8425.37 1127.61 8424.82 942.54 8589.38 849.4 8754.74 941.56 8755.29 1126.62 8590.49 1219.76 8425.37 1127.61"/><polygon class="cls-9" points="8095.21 1128.6 8094.66 943.53 8259.22 850.39 8424.58 942.54 8425.13 1127.61 8260.33 1220.75 8095.21 1128.6"/><polygon class="cls-10" points="7764.81 1129.58 7764.26 944.52 7929.06 851.38 8094.42 943.53 8094.97 1128.6 7930.17 1221.74 7764.81 1129.58"/><polygon class="cls-9" points="7434.65 1130.57 7434.1 945.51 7598.9 852.36 7764.01 944.52 7764.57 1129.58 7600.01 1222.73 7434.65 1130.57"/><polygon class="cls-8" points="7104.49 1131.56 7103.94 946.5 7268.74 853.35 7433.85 945.51 7434.41 1130.57 7269.85 1223.71 7104.49 1131.56"/><polygon class="cls-8" points="6774.33 1132.55 6773.78 947.48 6938.34 854.34 7103.69 946.5 7104.25 1131.56 6939.44 1224.7 6774.33 1132.55"/><polygon class="cls-10" points="6444.17 1133.53 6443.62 948.47 6608.18 855.33 6773.53 947.48 6774.09 1132.55 6609.28 1225.69 6444.17 1133.53"/><polygon class="cls-8" points="6113.77 1134.52 6113.21 949.46 6278.02 856.31 6443.13 948.47 6443.68 1133.54 6279.12 1226.68 6113.77 1134.52"/><polygon class="cls-10" points="5783.61 1135.51 5783.05 950.45 5947.86 857.3 6112.97 949.46 6113.52 1134.52 5948.96 1227.67 5783.61 1135.51"/><polygon class="cls-8" points="5453.45 1136.5 5452.89 951.43 5617.45 858.29 5782.81 950.45 5783.36 1135.51 5618.56 1228.65 5453.45 1136.5"/><polygon class="cls-10" points="5123.29 1137.49 5122.73 952.42 5287.29 859.28 5452.65 951.43 5453.2 1136.5 5288.4 1229.64 5123.29 1137.49"/><polygon class="cls-8" points="4792.88 1138.47 4792.33 953.41 4957.13 860.27 5122.24 952.42 5122.8 1137.49 4958.24 1230.63 4792.88 1138.47"/><polygon class="cls-9" points="4462.72 1139.46 4462.17 954.4 4626.97 861.25 4792.09 953.41 4792.64 1138.47 4628.08 1231.62 4462.72 1139.46"/><polygon class="cls-8" points="4132.56 1140.45 4132.01 955.39 4296.57 862.24 4461.93 954.4 4462.48 1139.46 4297.68 1232.61 4132.56 1140.45"/><polygon class="cls-8" points="3802.4 1141.44 3801.85 956.37 3966.41 863.23 4131.77 955.39 4132.32 1140.45 3967.52 1233.59 3802.4 1141.44"/><polygon class="cls-9" points="3472 1142.43 3471.45 957.36 3636.25 864.22 3801.61 956.37 3802.16 1141.44 3637.36 1234.58 3472 1142.43"/><polygon class="cls-10" points="3141.84 1143.41 3141.28 958.35 3306.09 865.21 3471.2 957.36 3471.76 1142.43 3307.2 1235.57 3141.84 1143.41"/><polygon class="cls-8" points="2811.68 1144.4 2811.13 959.34 2975.93 866.19 3141.04 958.35 3141.59 1143.41 2977.04 1236.56 2811.68 1144.4"/><polygon class="cls-10" points="2481.52 1145.39 2480.97 960.33 2645.53 867.18 2810.88 959.34 2811.43 1144.4 2646.63 1237.55 2481.52 1145.39"/><polygon class="cls-8" points="2151.36 1146.38 2150.81 961.31 2315.36 868.17 2480.72 960.33 2481.28 1145.39 2316.47 1238.53 2151.36 1146.38"/><polygon class="cls-9" points="1820.96 1147.37 1820.4 962.3 1985.2 869.16 2150.32 961.31 2150.87 1146.38 1986.31 1239.52 1820.96 1147.37"/><polygon class="cls-10" points="1490.8 1148.35 1490.24 963.29 1655.05 870.14 1820.16 962.3 1820.71 1147.37 1656.15 1240.51 1490.8 1148.35"/><polygon class="cls-8" points="1160.64 1149.34 1160.08 964.28 1324.64 871.13 1490 963.29 1490.55 1148.35 1325.75 1241.5 1160.64 1149.34"/><polygon class="cls-8" points="830.48 1150.33 829.92 965.26 994.48 872.12 1159.84 964.28 1160.39 1149.34 995.59 1242.49 830.48 1150.33"/><polygon class="cls-10" points="550.85 1179.61 665.43 1243.47 829.99 1150.33 829.43 965.27 664.32 873.11 550.12 937.65 550.85 1179.61"/><polygon class="cls-10" points="525.78 951.41 499.52 966.25 500.07 1151.32 526.42 1166 525.78 951.41"/><polygon class="cls-8" points="169.91 1152.3 169.36 967.24 334.16 874.1 499.27 966.25 499.83 1151.32 335.27 1244.46 169.91 1152.3"/><polygon class="cls-8" points="5953.68 1418.64 5953.13 1233.34 6117.69 1140.43 6283.04 1232.35 6283.6 1417.65 6118.79 1510.56 5953.68 1418.64"/><polygon class="cls-9" points="5623.52 1419.63 5622.97 1234.33 5787.53 1141.42 5952.88 1233.34 5953.44 1418.64 5788.63 1511.55 5623.52 1419.63"/><polygon class="cls-8" points="5293.12 1420.62 5292.56 1235.32 5457.37 1142.41 5622.48 1234.33 5623.03 1419.63 5458.47 1512.54 5293.12 1420.62"/><polygon class="cls-9" points="4962.96 1421.61 4962.4 1236.31 5127.21 1143.4 5292.32 1235.32 5292.87 1420.62 5128.31 1513.53 4962.96 1421.61"/><polygon class="cls-8" points="4632.8 1422.59 4632.24 1237.29 4796.8 1144.39 4962.16 1236.31 4962.71 1421.61 4797.91 1514.51 4632.8 1422.59"/><polygon class="cls-8" points="4302.64 1423.58 4302.08 1238.28 4466.64 1145.37 4632 1237.29 4632.55 1422.59 4467.75 1515.5 4302.64 1423.58"/><polygon class="cls-10" points="3972.23 1424.57 3971.68 1239.27 4136.48 1146.36 4301.6 1238.28 4302.15 1423.58 4137.59 1516.49 3972.23 1424.57"/><polygon class="cls-8" points="3642.07 1425.56 3641.52 1240.26 3806.32 1147.35 3971.43 1239.27 3971.99 1424.57 3807.43 1517.48 3642.07 1425.56"/><polygon class="cls-8" points="3311.91 1426.55 3311.36 1241.24 3475.92 1148.34 3641.28 1240.26 3641.83 1425.56 3477.03 1518.47 3311.91 1426.55"/><polygon class="cls-8" points="2981.75 1427.53 2981.2 1242.23 3145.76 1149.33 3311.11 1241.24 3311.67 1426.55 3146.87 1519.45 2981.75 1427.53"/><polygon class="cls-9" points="2651.35 1428.52 2650.8 1243.22 2815.6 1150.31 2980.95 1242.23 2981.51 1427.53 2816.71 1520.44 2651.35 1428.52"/><polygon class="cls-8" points="2321.19 1429.51 2320.64 1244.21 2485.44 1151.3 2650.55 1243.22 2651.11 1428.52 2486.55 1521.43 2321.19 1429.51"/><polygon class="cls-10" points="1991.03 1430.5 1990.47 1245.2 2155.28 1152.29 2320.39 1244.21 2320.95 1429.51 2156.39 1522.42 1991.03 1430.5"/><polygon class="cls-8" points="1660.87 1431.48 1660.32 1246.18 1824.87 1153.28 1990.23 1245.2 1990.79 1430.5 1825.98 1523.4 1660.87 1431.48"/><polygon class="cls-9" points="1330.71 1432.47 1330.15 1247.17 1494.71 1154.27 1660.07 1246.18 1660.63 1431.48 1495.82 1524.39 1330.71 1432.47"/><polygon class="cls-10" points="1000.3 1433.46 999.75 1248.16 1164.56 1155.25 1329.67 1247.17 1330.22 1432.47 1165.66 1525.38 1000.3 1433.46"/><polygon class="cls-9" points="670.15 1434.45 669.59 1249.15 834.39 1156.24 999.51 1248.16 1000.06 1433.46 835.5 1526.37 670.15 1434.45"/><polygon class="cls-8" points="551.81 1501.03 669.9 1434.45 669.35 1249.15 550.86 1183.28 551.81 1501.03"/><polygon class="cls-8" points="526.43 1169.7 503.99 1157.23 339.43 1250.14 339.99 1435.44 505.1 1527.36 527.46 1514.75 526.43 1169.7"/><polygon class="cls-10" points="9.83 1436.42 9.27 1251.12 173.83 1158.22 339.19 1250.14 339.74 1435.44 174.94 1528.34 9.83 1436.42"/><polygon class="cls-8" points="10246.49 1405.8 10245.94 1220.5 10410.5 1127.59 10575.85 1219.51 10576.41 1404.81 10411.6 1497.72 10246.49 1405.8"/><polygon class="cls-10" points="9916.33 1406.79 9915.78 1221.49 10080.34 1128.58 10245.69 1220.5 10246.25 1405.8 10081.44 1498.71 9916.33 1406.79"/><polygon class="cls-8" points="9585.93 1407.78 9585.37 1222.47 9750.18 1129.57 9915.29 1221.49 9915.84 1406.79 9751.28 1499.69 9585.93 1407.78"/><polygon class="cls-10" points="9255.77 1408.76 9255.21 1223.46 9420.02 1130.56 9585.13 1222.47 9585.68 1407.78 9421.12 1500.68 9255.77 1408.76"/><polygon class="cls-8" points="8925.61 1409.75 8925.05 1224.45 9089.61 1131.54 9254.97 1223.46 9255.52 1408.76 9090.72 1501.67 8925.61 1409.75"/><polygon class="cls-10" points="8595.45 1410.74 8594.89 1225.44 8759.45 1132.53 8924.81 1224.45 8925.36 1409.75 8760.56 1502.66 8595.45 1410.74"/><polygon class="cls-8" points="8265.04 1411.73 8264.49 1226.43 8429.29 1133.52 8594.41 1225.44 8594.96 1410.74 8430.4 1503.65 8265.04 1411.73"/><polygon class="cls-8" points="7934.88 1412.71 7934.33 1227.41 8099.13 1134.51 8264.25 1226.43 8264.8 1411.73 8100.24 1504.63 7934.88 1412.71"/><polygon class="cls-8" points="7604.72 1413.7 7604.17 1228.4 7768.73 1135.49 7934.09 1227.41 7934.64 1412.72 7769.84 1505.62 7604.72 1413.7"/><polygon class="cls-8" points="7274.56 1414.69 7274.01 1229.39 7438.57 1136.48 7603.93 1228.4 7604.48 1413.7 7439.68 1506.61 7274.56 1414.69"/><polygon class="cls-9" points="6944.16 1415.68 6943.61 1230.38 7108.41 1137.47 7273.77 1229.39 7274.32 1414.69 7109.52 1507.6 6944.16 1415.68"/><polygon class="cls-8" points="6614 1416.67 6613.45 1231.37 6778.25 1138.46 6943.36 1230.38 6943.92 1415.68 6779.36 1508.59 6614 1416.67"/><polygon class="cls-9" points="6283.84 1417.65 6283.29 1232.35 6448.09 1139.45 6613.2 1231.37 6613.76 1416.67 6449.2 1509.57 6283.84 1417.65"/><polygon class="cls-8" points="10412.17 1685.86 10411.61 1500.8 10576.42 1407.66 10741.53 1499.81 10742.08 1684.88 10577.52 1778.02 10412.17 1685.86"/><polygon class="cls-9" points="10082.01 1686.85 10081.45 1501.79 10246.26 1408.64 10411.37 1500.8 10411.92 1685.86 10247.36 1779.01 10082.01 1686.85"/><polygon class="cls-8" points="9751.85 1687.84 9751.29 1502.78 9915.85 1409.63 10081.21 1501.79 10081.76 1686.85 9916.96 1780 9751.85 1687.84"/><polygon class="cls-9" points="9421.69 1688.83 9421.13 1503.76 9585.69 1410.62 9751.05 1502.78 9751.6 1687.84 9586.8 1780.98 9421.69 1688.83"/><polygon class="cls-8" points="9091.28 1689.82 9090.73 1504.75 9255.53 1411.61 9420.65 1503.77 9421.2 1688.83 9256.64 1781.97 9091.28 1689.82"/><polygon class="cls-8" points="8761.12 1690.8 8760.57 1505.74 8925.37 1412.6 9090.49 1504.75 9091.04 1689.82 8926.48 1782.96 8761.12 1690.8"/><polygon class="cls-9" points="8430.96 1691.79 8430.41 1506.73 8594.97 1413.58 8760.33 1505.74 8760.88 1690.8 8596.08 1783.95 8430.96 1691.79"/><polygon class="cls-8" points="8100.8 1692.78 8100.25 1507.71 8264.81 1414.57 8430.17 1506.73 8430.72 1691.79 8265.92 1784.94 8100.8 1692.78"/><polygon class="cls-9" points="7770.4 1693.77 7769.85 1508.7 7934.65 1415.56 8100.01 1507.72 8100.56 1692.78 7935.76 1785.92 7770.4 1693.77"/><polygon class="cls-8" points="7440.24 1694.76 7439.69 1509.69 7604.49 1416.55 7769.6 1508.7 7770.16 1693.77 7605.6 1786.91 7440.24 1694.76"/><polygon class="cls-10" points="7110.08 1695.74 7109.53 1510.68 7274.33 1417.54 7439.44 1509.69 7440 1694.76 7275.44 1787.9 7110.08 1695.74"/><polygon class="cls-8" points="6779.92 1696.73 6779.37 1511.67 6943.93 1418.52 7109.28 1510.68 7109.84 1695.74 6945.03 1788.89 6779.92 1696.73"/><polygon class="cls-8" points="6449.76 1697.72 6449.21 1512.65 6613.77 1419.51 6779.12 1511.67 6779.68 1696.73 6614.87 1789.88 6449.76 1697.72"/><polygon class="cls-8" points="6119.36 1698.71 6118.8 1513.64 6283.6 1420.5 6448.72 1512.66 6449.27 1697.72 6284.71 1790.86 6119.36 1698.71"/><polygon class="cls-10" points="5789.2 1699.69 5788.64 1514.63 5953.44 1421.49 6118.56 1513.64 6119.11 1698.71 5954.55 1791.85 5789.2 1699.69"/><polygon class="cls-8" points="5459.04 1700.68 5458.48 1515.62 5623.04 1422.47 5788.4 1514.63 5788.95 1699.69 5624.15 1792.84 5459.04 1700.68"/><polygon class="cls-10" points="5128.88 1701.67 5128.32 1516.61 5292.88 1423.46 5458.24 1515.62 5458.79 1700.68 5293.99 1793.83 5128.88 1701.67"/><polygon class="cls-8" points="4798.47 1702.66 4797.92 1517.59 4962.72 1424.45 5127.84 1516.61 5128.39 1701.67 4963.83 1794.82 4798.47 1702.66"/><polygon class="cls-10" points="4468.31 1703.65 4467.76 1518.58 4632.56 1425.44 4797.68 1517.6 4798.23 1702.66 4633.67 1795.8 4468.31 1703.65"/><polygon class="cls-9" points="4138.15 1704.63 4137.6 1519.57 4302.16 1426.43 4467.52 1518.58 4468.07 1703.65 4303.27 1796.79 4138.15 1704.63"/><polygon class="cls-8" points="3807.99 1705.62 3807.44 1520.56 3972 1427.41 4137.35 1519.57 4137.91 1704.63 3973.11 1797.78 3807.99 1705.62"/><polygon class="cls-10" points="3477.59 1706.61 3477.03 1521.55 3641.84 1428.4 3807.2 1520.56 3807.75 1705.62 3642.95 1798.77 3477.59 1706.61"/><polygon class="cls-9" points="3147.43 1707.6 3146.88 1522.53 3311.68 1429.39 3476.79 1521.55 3477.34 1706.61 3312.79 1799.75 3147.43 1707.6"/><polygon class="cls-10" points="2817.27 1708.59 2816.72 1523.52 2981.52 1430.38 3146.63 1522.53 3147.18 1707.6 2982.63 1800.74 2817.27 1708.59"/><polygon class="cls-8" points="2487.11 1709.57 2486.55 1524.51 2651.11 1431.37 2816.47 1523.52 2817.03 1708.59 2652.22 1801.73 2487.11 1709.57"/><polygon class="cls-9" points="2156.95 1710.56 2156.39 1525.5 2320.95 1432.35 2486.31 1524.51 2486.86 1709.57 2322.06 1802.72 2156.95 1710.56"/><polygon class="cls-8" points="1826.55 1711.55 1825.99 1526.48 1990.79 1433.34 2155.91 1525.5 2156.46 1710.56 1991.9 1803.71 1826.55 1711.55"/><polygon class="cls-10" points="1496.38 1712.54 1495.83 1527.47 1660.63 1434.33 1825.75 1526.49 1826.3 1711.55 1661.74 1804.69 1496.38 1712.54"/><polygon class="cls-8" points="1166.22 1713.53 1165.67 1528.46 1330.23 1435.32 1495.59 1527.47 1496.14 1712.54 1331.34 1805.68 1166.22 1713.53"/><polygon class="cls-8" points="836.07 1714.51 835.51 1529.45 1000.07 1436.31 1165.43 1528.46 1165.98 1713.53 1001.18 1806.67 836.07 1714.51"/><polygon class="cls-10" points="666.25 1805 671.02 1807.66 675.76 1804.97 666.25 1805"/><path class="cls-10" d="M-2700.11,1249.75l-.55-185.06-165.11-92.16-118.1,66.74.14,46.64c.05,15.28-24.34,15.32-24.38.08l-.1-33-22.37,12.64.56,185.07,118.3,65.93,93.88-.28Z" transform="translate(3535.68 464.76)"/><polygon class="cls-9" points="175.5 1716.49 174.95 1531.42 339.75 1438.28 504.86 1530.44 505.42 1715.5 340.86 1808.64 175.5 1716.49"/></g></g></g></svg>