<?xml version="1.0" encoding="utf-8"?>
<!-- Generator: Adobe Illustrator 24.0.0, SVG Export Plug-In . SVG Version: 6.00 Build 0)  -->
<svg version="1.1" id="Calque_1" xmlns="http://www.w3.org/2000/svg" xmlns:xlink="http://www.w3.org/1999/xlink" x="0px" y="0px"
	 viewBox="0 0 595.3 841.9" style="enable-background:new 0 0 595.3 841.9;" xml:space="preserve">
<style type="text/css">
	.st0{opacity:0.79;fill:#020203;enable-background:new    ;}
	.st1{opacity:8.000000e-02;}
	.st2{fill:none;stroke:#FFFFFF;stroke-width:5;stroke-miterlimit:10;}
	.st3{opacity:0.47;fill:#020203;stroke:#FFFFFF;stroke-width:5;stroke-miterlimit:10;enable-background:new    ;}
	.st4{opacity:0.13;fill:#020203;stroke:#FFFFFF;stroke-width:5;stroke-miterlimit:10;enable-background:new    ;}
	.st5{opacity:0.47;fill:none;stroke:#FFFFFF;stroke-width:5;stroke-miterlimit:10;enable-background:new    ;}
	.st6{opacity:0.16;}
	.st7{fill:none;stroke:#020203;stroke-width:4;stroke-miterlimit:10;}
	.st8{opacity:0.47;fill:#020203;stroke:#020203;stroke-width:4;stroke-miterlimit:10;enable-background:new    ;}
	.st9{opacity:0.13;fill:#020203;stroke:#020203;stroke-width:4;stroke-miterlimit:10;enable-background:new    ;}
	.st10{opacity:0.47;fill:none;stroke:#020203;stroke-width:4;stroke-miterlimit:10;enable-background:new    ;}
	.st11{display:none;}
	.st12{display:inline;fill:#A94434;}
	.st13{display:none;fill:#A94434;}
	.st14{display:none;fill:none;stroke:#A94434;stroke-width:5;stroke-miterlimit:10;}
	.st15{display:inline;fill:none;stroke:#A94434;stroke-width:5;stroke-miterlimit:10;}
	.st16{display:none;fill:none;stroke:#364093;stroke-width:5;stroke-miterlimit:10;}
	.st17{display:none;fill:none;}
	.st18{display:none;fill:#EEBD43;enable-background:new    ;}
	.st19{font-family:'Politica-BoldXp';}
	.st20{font-size:11.969px;}
	.st21{display:none;fill:none;stroke:#A94434;stroke-width:2;stroke-miterlimit:10;}
	.st22{display:none;fill:none;stroke:#EEBD43;stroke-miterlimit:10;}
	.st23{display:inline;fill:none;stroke:#A94434;stroke-miterlimit:10;}
	.st24{display:none;opacity:0.54;fill:#F1F1F1;stroke:#A94434;stroke-width:2;stroke-miterlimit:10;enable-background:new    ;}
	.st25{display:none;fill:none;stroke:#A94434;stroke-width:0.75;stroke-miterlimit:10;}
	.st26{display:none;fill:none;stroke:#A94434;stroke-width:4.9998;stroke-miterlimit:9.9996;}
	.st27{display:none;fill:none;stroke:#A94434;stroke-width:5.0004;stroke-miterlimit:10.0009;}
	.st28{display:none;fill:#A94434;enable-background:new    ;}
	.st29{font-family:'Politica-BlackCd';}
	.st30{font-size:31.2299px;}
	.st31{display:inline;}
	.st32{enable-background:new    ;}
	.st33{fill:#732F24;}
	.st34{clip-path:url(#SVGID_2_);enable-background:new    ;}
	.st35{fill:#57231B;}
	.st36{clip-path:url(#SVGID_4_);enable-background:new    ;}
	.st37{fill:#7C6324;}
	.st38{fill:#CBA238;}
	.st39{fill:#B58F33;}
	.st40{clip-path:url(#SVGID_6_);enable-background:new    ;}
	.st41{fill:#692A20;}
	.st42{fill:#6D2B21;}
	.st43{fill:#702C23;}
	.st44{fill:#773024;}
	.st45{fill:#65281F;}
	.st46{fill:#61271E;}
	.st47{fill:#5E261D;}
	.st48{fill:#5B241C;}
	.st49{fill:#913A2D;}
	.st50{display:none;fill:none;stroke:#A94434;stroke-width:6;stroke-miterlimit:10;}
</style>
<g id="Calque_1_2_">
	<g id="Calque_2_1_">
		<path class="st0" d="M-22.1-1601.2v3846.3c0.4,0.7,0.7,1.6,0.7,2.7v200H620v-4049H-22.1z"/>
	</g>
	<g id="Calque_3">
		<g class="st1">
			<polygon class="st2" points="80.3,172.6 1.8,172.6 -37.3,102.8 1.8,32.9 80.3,32.9 119.4,102.8 			"/>
			<polygon class="st2" points="80.3,312.4 1.8,312.4 -37.3,242.6 1.8,172.7 80.3,172.7 119.4,242.6 			"/>
			<polygon class="st3" points="80.3,452.3 1.8,452.3 -37.3,382.4 1.8,312.6 80.3,312.6 119.4,382.4 			"/>
			<polygon class="st4" points="80.3,592.1 1.8,592.1 -37.3,522.2 1.8,452.4 80.3,452.4 119.4,522.2 			"/>
			<polygon class="st2" points="80.3,731.9 1.8,731.9 -37.3,662.1 1.8,592.2 80.3,592.2 119.4,662.1 			"/>
			<polygon class="st3" points="80.3,871.6 1.8,871.6 -37.3,801.9 1.8,732 80.3,732 119.4,801.9 			"/>
			<polygon class="st2" points="80.3,1011.5 1.8,1011.5 -37.3,941.6 1.8,871.8 80.3,871.8 119.4,941.6 			"/>
			<polygon class="st2" points="80.3,1151.3 1.8,1151.3 -37.3,1081.4 1.8,1011.6 80.3,1011.6 119.4,1081.4 			"/>
			<polygon class="st4" points="80.3,1291.1 1.8,1291.1 -37.3,1221.3 1.8,1151.4 80.3,1151.4 119.4,1221.3 			"/>
			<polygon class="st2" points="80.3,1430.9 1.8,1430.9 -37.3,1361.1 1.8,1291.2 80.3,1291.2 119.4,1361.1 			"/>
			<polygon class="st3" points="80.3,1570.8 1.8,1570.8 -37.3,1500.9 1.8,1431 80.3,1431 119.4,1500.9 			"/>
			<polygon class="st2" points="80.3,1710.5 1.8,1710.5 -37.3,1640.7 1.8,1570.9 80.3,1570.9 119.4,1640.7 			"/>
			<polygon class="st4" points="80.3,1850.3 1.8,1850.3 -37.3,1780.4 1.8,1710.7 80.3,1710.7 119.4,1780.4 			"/>
			<polygon class="st3" points="80.3,1990.1 1.8,1990.1 -37.3,1920.3 1.8,1850.4 80.3,1850.4 119.4,1920.3 			"/>
			<polygon class="st2" points="80.3,2129.9 1.8,2129.9 -37.3,2060.1 1.8,1990.2 80.3,1990.2 119.4,2060.1 			"/>
			<polygon class="st3" points="80.3,2269.8 1.8,2269.8 -37.3,2199.9 1.8,2130.1 80.3,2130.1 119.4,2199.9 			"/>
			<polygon class="st2" points="-31.4,2329.1 -37.3,2339.7 -31.4,2350.2 			"/>
			<polygon class="st2" points="80.3,2269.9 1.8,2269.9 -21.4,2311.3 -21.4,2368.1 1.8,2409.6 80.3,2409.6 119.4,2339.7 			"/>
			<polygon class="st4" points="112.1,2466.5 80.3,2409.7 1.8,2409.7 -21.4,2451.1 -21.4,2466.5 			"/>
			<path class="st4" d="M-21.5,2476.8c-2.5,0-4.1-1.6-4.6-3.5c-2.4,0.1-4.9-1.3-5.2-4.3l-5.9,10.6l39.1,69.8h78.5l39.1-69.8
				l-1.6-2.8H-21.5z"/>
			<polygon class="st3" points="80.3,2689.1 1.8,2689.1 -37.3,2619.4 1.8,2549.5 80.3,2549.5 119.4,2619.4 			"/>
			<polygon class="st2" points="80.3,-1644.9 1.8,-1644.9 -37.3,-1714.7 1.8,-1784.6 80.3,-1784.6 119.4,-1714.7 			"/>
			<polygon class="st2" points="80.3,-1505.1 1.8,-1505.1 -37.3,-1574.9 1.8,-1644.8 80.3,-1644.8 119.4,-1574.9 			"/>
			<polygon class="st3" points="80.3,-1365.2 1.8,-1365.2 -37.3,-1435.1 1.8,-1504.9 80.3,-1504.9 119.4,-1435.1 			"/>
			<polygon class="st2" points="80.3,-1225.4 1.8,-1225.4 -37.3,-1295.3 1.8,-1365.1 80.3,-1365.1 119.4,-1295.3 			"/>
			<polygon class="st2" points="80.3,-1085.6 1.8,-1085.6 -37.3,-1155.4 1.8,-1225.3 80.3,-1225.3 119.4,-1155.4 			"/>
			<polygon class="st2" points="80.3,-945.9 1.8,-945.9 -37.3,-1015.6 1.8,-1085.5 80.3,-1085.5 119.4,-1015.6 			"/>
			<polygon class="st3" points="80.3,-806 1.8,-806 -37.3,-875.9 1.8,-945.7 80.3,-945.7 119.4,-875.9 			"/>
			<polygon class="st2" points="80.3,-666.2 1.8,-666.2 -37.3,-736.1 1.8,-805.9 80.3,-805.9 119.4,-736.1 			"/>
			<polygon class="st2" points="80.3,-526.4 1.8,-526.4 -37.3,-596.2 1.8,-666.1 80.3,-666.1 119.4,-596.2 			"/>
			<polygon class="st3" points="80.3,-386.6 1.8,-386.6 -37.3,-456.4 1.8,-526.3 80.3,-526.3 119.4,-456.4 			"/>
			<polygon class="st2" points="80.3,-246.7 1.8,-246.7 -37.3,-316.6 1.8,-386.5 80.3,-386.5 119.4,-316.6 			"/>
			<polygon class="st2" points="80.3,-106.9 1.8,-106.9 -37.3,-176.8 1.8,-246.6 80.3,-246.6 119.4,-176.8 			"/>
			<polygon class="st3" points="80.3,32.8 1.8,32.8 -37.3,-37.1 1.8,-106.8 80.3,-106.8 119.4,-37.1 			"/>
			<polygon class="st2" points="199,-1714.7 120.7,-1714.7 81.5,-1784.6 120.7,-1854.3 199,-1854.3 238.3,-1784.6 			"/>
			<polygon class="st3" points="199,-1574.9 120.7,-1574.9 81.5,-1644.8 120.7,-1714.6 199,-1714.6 238.3,-1644.8 			"/>
			<polygon class="st4" points="199,-1435.1 120.7,-1435.1 81.5,-1504.9 120.7,-1574.8 199,-1574.8 238.3,-1504.9 			"/>
			<polygon class="st2" points="199,-1295.3 120.7,-1295.3 81.5,-1365.1 120.7,-1435 199,-1435 238.3,-1365.1 			"/>
			<polygon class="st2" points="199,-1155.4 120.7,-1155.4 81.5,-1225.3 120.7,-1295.1 199,-1295.1 238.3,-1225.3 			"/>
			<polygon class="st4" points="199,-1015.6 120.7,-1015.6 81.5,-1085.5 120.7,-1155.3 199,-1155.3 238.3,-1085.5 			"/>
			<polygon class="st5" points="199,-875.9 120.7,-875.9 81.5,-945.7 120.7,-1015.5 199,-1015.5 238.3,-945.7 			"/>
			<polygon class="st2" points="199,-736.1 120.7,-736.1 81.5,-805.9 120.7,-875.8 199,-875.8 238.3,-805.9 			"/>
			<polygon class="st3" points="199,-596.2 120.7,-596.2 81.5,-666.1 120.7,-736 199,-736 238.3,-666.1 			"/>
			<polygon class="st2" points="199,-456.4 120.7,-456.4 81.5,-526.3 120.7,-596.1 199,-596.1 238.3,-526.3 			"/>
			<polygon class="st2" points="199,-316.6 120.7,-316.6 81.5,-386.5 120.7,-456.3 199,-456.3 238.3,-386.5 			"/>
			<polygon class="st3" points="199,-176.8 120.7,-176.8 81.5,-246.6 120.7,-316.5 199,-316.5 238.3,-246.6 			"/>
			<polygon class="st4" points="199,-37.1 120.7,-37.1 81.5,-106.8 120.7,-176.7 199,-176.7 238.3,-106.8 			"/>
			<polygon class="st2" points="199,102.8 120.7,102.8 81.5,32.9 120.7,-36.9 199,-36.9 238.3,32.9 			"/>
			<polygon class="st3" points="199,242.6 120.7,242.6 81.5,172.7 120.7,102.9 199,102.9 238.3,172.7 			"/>
			<polygon class="st4" points="199,382.4 120.7,382.4 81.5,312.6 120.7,242.7 199,242.7 238.3,312.6 			"/>
			<polygon class="st2" points="199,522.2 120.7,522.2 81.5,452.4 120.7,382.5 199,382.5 238.3,452.4 			"/>
			<polygon class="st3" points="199,662.1 120.7,662.1 81.5,592.2 120.7,522.4 199,522.4 238.3,592.2 			"/>
			<polygon class="st2" points="199,801.9 120.7,801.9 81.5,732 120.7,662.2 199,662.2 238.3,732 			"/>
			<polygon class="st4" points="199,941.6 120.7,941.6 81.5,871.8 120.7,802 199,802 238.3,871.8 			"/>
			<polygon class="st2" points="199,1081.4 120.7,1081.4 81.5,1011.6 120.7,941.7 199,941.7 238.3,1011.6 			"/>
			<polygon class="st3" points="199,1221.3 120.7,1221.3 81.5,1151.4 120.7,1081.5 199,1081.5 238.3,1151.4 			"/>
			<polygon class="st2" points="199,1361.1 120.7,1361.1 81.5,1291.2 120.7,1221.4 199,1221.4 238.3,1291.2 			"/>
			<polygon class="st4" points="199,1500.9 120.7,1500.9 81.5,1431 120.7,1361.2 199,1361.2 238.3,1431 			"/>
			<polygon class="st2" points="199,1640.7 120.7,1640.7 81.5,1570.9 120.7,1501 199,1501 238.3,1570.9 			"/>
			<polygon class="st3" points="199,1780.4 120.7,1780.4 81.5,1710.7 120.7,1640.8 199,1640.8 238.3,1710.7 			"/>
			<polygon class="st2" points="199,1920.3 120.7,1920.3 81.5,1850.4 120.7,1780.6 199,1780.6 238.3,1850.4 			"/>
			<polygon class="st3" points="199,2060.1 120.7,2060.1 81.5,1990.2 120.7,1920.4 199,1920.4 238.3,1990.2 			"/>
			<polygon class="st4" points="199,2199.9 120.7,2199.9 81.5,2130.1 120.7,2060.2 199,2060.2 238.3,2130.1 			"/>
			<polygon class="st2" points="199,2339.7 120.7,2339.7 81.5,2269.9 120.7,2200 199,2200 238.3,2269.9 			"/>
			<polygon class="st3" points="206.4,2466.5 238.3,2409.7 199,2339.9 120.7,2339.9 81.5,2409.7 113.3,2466.5 			"/>
			<polygon class="st3" points="119.1,2476.8 120.7,2479.6 199,2479.6 200.6,2476.8 			"/>
			<polygon class="st2" points="199,2619.4 120.7,2619.4 81.5,2549.5 120.7,2479.7 199,2479.7 238.3,2549.5 			"/>
			<polygon class="st2" points="317.8,172.6 239.3,172.6 200.1,102.8 239.3,32.9 317.8,32.9 357,102.8 			"/>
			<polygon class="st2" points="317.8,312.4 239.3,312.4 200.1,242.6 239.3,172.7 317.8,172.7 357,242.6 			"/>
			<polygon class="st3" points="317.8,452.3 239.3,452.3 200.1,382.4 239.3,312.6 317.8,312.6 357,382.4 			"/>
			<polygon class="st2" points="317.8,592.1 239.3,592.1 200.1,522.2 239.3,452.4 317.8,452.4 357,522.2 			"/>
			<polygon class="st4" points="317.8,731.9 239.3,731.9 200.1,662.1 239.3,592.2 317.8,592.2 357,662.1 			"/>
			<polygon class="st2" points="317.8,871.6 239.3,871.6 200.1,801.9 239.3,732 317.8,732 357,801.9 			"/>
			<polygon class="st3" points="317.8,1011.5 239.3,1011.5 200.1,941.6 239.3,871.8 317.8,871.8 357,941.6 			"/>
			<polygon class="st4" points="317.8,1151.3 239.3,1151.3 200.1,1081.4 239.3,1011.6 317.8,1011.6 357,1081.4 			"/>
			<polygon class="st2" points="317.8,1291.1 239.3,1291.1 200.1,1221.3 239.3,1151.4 317.8,1151.4 357,1221.3 			"/>
			<polygon class="st3" points="317.8,1430.9 239.3,1430.9 200.1,1361.1 239.3,1291.2 317.8,1291.2 357,1361.1 			"/>
			<polygon class="st2" points="317.8,1570.8 239.3,1570.8 200.1,1500.9 239.3,1431 317.8,1431 357,1500.9 			"/>
			<polygon class="st3" points="317.8,1710.5 239.3,1710.5 200.1,1640.7 239.3,1570.9 317.8,1570.9 357,1640.7 			"/>
			<polygon class="st4" points="317.8,1850.3 239.3,1850.3 200.1,1780.4 239.3,1710.7 317.8,1710.7 357,1780.4 			"/>
			<polygon class="st2" points="317.8,1990.1 239.3,1990.1 200.1,1920.3 239.3,1850.4 317.8,1850.4 357,1920.3 			"/>
			<polygon class="st2" points="317.8,2129.9 239.3,2129.9 200.1,2060.1 239.3,1990.2 317.8,1990.2 357,2060.1 			"/>
			<polygon class="st3" points="317.8,2269.8 239.3,2269.8 200.1,2199.9 239.3,2130.1 317.8,2130.1 357,2199.9 			"/>
			<polygon class="st2" points="317.8,2409.6 239.3,2409.6 200.1,2339.7 239.3,2269.9 317.8,2269.9 357,2339.7 			"/>
			<polygon class="st5" points="349.6,2466.5 317.8,2409.7 239.3,2409.7 207.5,2466.5 			"/>
			<polygon class="st5" points="201.7,2476.8 200.1,2479.6 239.3,2549.4 317.8,2549.4 357,2479.6 355.4,2476.8 			"/>
			<polygon class="st3" points="317.8,2689.1 239.3,2689.1 200.1,2619.4 239.3,2549.5 317.8,2549.5 357,2619.4 			"/>
			<g>
				<polygon class="st2" points="317.8,-1644.9 239.3,-1644.9 200.1,-1714.7 239.3,-1784.6 317.8,-1784.6 357,-1714.7 				"/>
				<polygon class="st2" points="317.8,-1505.1 239.3,-1505.1 200.1,-1574.9 239.3,-1644.8 317.8,-1644.8 357,-1574.9 				"/>
				<polygon class="st2" points="317.8,-1365.2 239.3,-1365.2 200.1,-1435.1 239.3,-1504.9 317.8,-1504.9 357,-1435.1 				"/>
				<polygon class="st3" points="317.8,-1225.4 239.3,-1225.4 200.1,-1295.3 239.3,-1365.1 317.8,-1365.1 357,-1295.3 				"/>
				<polygon class="st2" points="317.8,-1085.6 239.3,-1085.6 200.1,-1155.4 239.3,-1225.3 317.8,-1225.3 357,-1155.4 				"/>
				<polygon class="st2" points="317.8,-945.9 239.3,-945.9 200.1,-1015.6 239.3,-1085.5 317.8,-1085.5 357,-1015.6 				"/>
				<polygon class="st4" points="317.8,-806 239.3,-806 200.1,-875.9 239.3,-945.7 317.8,-945.7 357,-875.9 				"/>
				<polygon class="st2" points="317.8,-666.2 239.3,-666.2 200.1,-736.1 239.3,-805.9 317.8,-805.9 357,-736.1 				"/>
				<polygon class="st2" points="317.8,-526.4 239.3,-526.4 200.1,-596.2 239.3,-666.1 317.8,-666.1 357,-596.2 				"/>
				<polygon class="st4" points="317.8,-386.6 239.3,-386.6 200.1,-456.4 239.3,-526.3 317.8,-526.3 357,-456.4 				"/>
				<polygon class="st5" points="317.8,-246.7 239.3,-246.7 200.1,-316.6 239.3,-386.5 317.8,-386.5 357,-316.6 				"/>
				<polygon class="st2" points="317.8,-106.9 239.3,-106.9 200.1,-176.8 239.3,-246.6 317.8,-246.6 357,-176.8 				"/>
				<polygon class="st3" points="317.8,32.8 239.3,32.8 200.1,-37.1 239.3,-106.8 317.8,-106.8 357,-37.1 				"/>
				<g>
					<polygon class="st2" points="436.6,-1714.7 358.2,-1714.7 319,-1784.6 358.2,-1854.3 436.6,-1854.3 475.8,-1784.6 					"/>
					<polygon class="st2" points="436.6,-1574.9 358.2,-1574.9 319,-1644.8 358.2,-1714.6 436.6,-1714.6 475.8,-1644.8 					"/>
					<polygon class="st3" points="436.6,-1435.1 358.2,-1435.1 319,-1504.9 358.2,-1574.8 436.6,-1574.8 475.8,-1504.9 					"/>
					<polygon class="st2" points="436.6,-1295.3 358.2,-1295.3 319,-1365.1 358.2,-1435 436.6,-1435 475.8,-1365.1 					"/>
					<polygon class="st2" points="436.6,-1155.4 358.2,-1155.4 319,-1225.3 358.2,-1295.1 436.6,-1295.1 475.8,-1225.3 					"/>
					<polygon class="st3" points="436.6,-1015.6 358.2,-1015.6 319,-1085.5 358.2,-1155.3 436.6,-1155.3 475.8,-1085.5 					"/>
					<polygon class="st2" points="436.6,-875.9 358.2,-875.9 319,-945.7 358.2,-1015.5 436.6,-1015.5 475.8,-945.7 					"/>
					<polygon class="st3" points="436.6,-736.1 358.2,-736.1 319,-805.9 358.2,-875.8 436.6,-875.8 475.8,-805.9 					"/>
					<polygon class="st4" points="436.6,-596.2 358.2,-596.2 319,-666.1 358.2,-736 436.6,-736 475.8,-666.1 					"/>
					<polygon class="st3" points="436.6,-456.4 358.2,-456.4 319,-526.3 358.2,-596.1 436.6,-596.1 475.8,-526.3 					"/>
					<polygon class="st2" points="436.6,-316.6 358.2,-316.6 319,-386.5 358.2,-456.3 436.6,-456.3 475.8,-386.5 					"/>
					<polygon class="st2" points="436.6,-176.8 358.2,-176.8 319,-246.6 358.2,-316.5 436.6,-316.5 475.8,-246.6 					"/>
					<polygon class="st4" points="436.6,-37.1 358.2,-37.1 319,-106.8 358.2,-176.7 436.6,-176.7 475.8,-106.8 					"/>
					<polygon class="st2" points="436.6,102.8 358.2,102.8 319,32.9 358.2,-36.9 436.6,-36.9 475.8,32.9 					"/>
					<polygon class="st4" points="436.6,242.6 358.2,242.6 319,172.7 358.2,102.9 436.6,102.9 475.8,172.7 					"/>
					<polygon class="st2" points="436.6,382.4 358.2,382.4 319,312.6 358.2,242.7 436.6,242.7 475.8,312.6 					"/>
					<polygon class="st4" points="436.6,522.2 358.2,522.2 319,452.4 358.2,382.5 436.6,382.5 475.8,452.4 					"/>
					<polygon class="st2" points="436.6,662.1 358.2,662.1 319,592.2 358.2,522.4 436.6,522.4 475.8,592.2 					"/>
					<polygon class="st3" points="436.6,801.9 358.2,801.9 319,732 358.2,662.2 436.6,662.2 475.8,732 					"/>
					<polygon class="st2" points="436.6,941.6 358.2,941.6 319,871.8 358.2,802 436.6,802 475.8,871.8 					"/>
					<polygon class="st2" points="436.6,1081.4 358.2,1081.4 319,1011.6 358.2,941.7 436.6,941.7 475.8,1011.6 					"/>
					<polygon class="st3" points="436.6,1221.3 358.2,1221.3 319,1151.4 358.2,1081.5 436.6,1081.5 475.8,1151.4 					"/>
					<polygon class="st4" points="436.6,1361.1 358.2,1361.1 319,1291.2 358.2,1221.4 436.6,1221.4 475.8,1291.2 					"/>
					<polygon class="st2" points="436.6,1500.9 358.2,1500.9 319,1431 358.2,1361.2 436.6,1361.2 475.8,1431 					"/>
					<polygon class="st4" points="436.6,1640.7 358.2,1640.7 319,1570.9 358.2,1501 436.6,1501 475.8,1570.9 					"/>
					<polygon class="st2" points="436.6,1780.4 358.2,1780.4 319,1710.7 358.2,1640.8 436.6,1640.8 475.8,1710.7 					"/>
					<polygon class="st3" points="436.6,1920.3 358.2,1920.3 319,1850.4 358.2,1780.6 436.6,1780.6 475.8,1850.4 					"/>
					<polygon class="st4" points="436.6,2060.1 358.2,2060.1 319,1990.2 358.2,1920.4 436.6,1920.4 475.8,1990.2 					"/>
					<polygon class="st2" points="436.6,2199.9 358.2,2199.9 319,2130.1 358.2,2060.2 436.6,2060.2 475.8,2130.1 					"/>
					<polygon class="st2" points="436.6,2339.7 358.2,2339.7 319,2269.9 358.2,2200 436.6,2200 475.8,2269.9 					"/>
					<polygon class="st4" points="444,2466.5 475.8,2409.7 436.6,2339.9 358.2,2339.9 319,2409.7 350.8,2466.5 					"/>
					<polygon class="st4" points="356.6,2476.8 358.2,2479.6 436.6,2479.6 438.2,2476.8 					"/>
					<polygon class="st2" points="436.6,2619.4 358.2,2619.4 319,2549.5 358.2,2479.7 436.6,2479.7 475.8,2549.5 					"/>
				</g>
			</g>
			<polygon class="st2" points="556.7,171 478.2,171 439.1,101.2 478.2,31.3 556.7,31.3 595.8,101.2 			"/>
			<polygon class="st3" points="556.7,310.8 478.2,310.8 439.1,241 478.2,171.1 556.7,171.1 595.8,241 			"/>
			<polygon class="st2" points="556.7,450.6 478.2,450.6 439.1,380.7 478.2,311 556.7,311 595.8,380.7 			"/>
			<polygon class="st3" points="556.7,590.4 478.2,590.4 439.1,520.5 478.2,450.7 556.7,450.7 595.8,520.5 			"/>
			<polygon class="st2" points="556.7,730.2 478.2,730.2 439.1,660.4 478.2,590.5 556.7,590.5 595.8,660.4 			"/>
			<polygon class="st2" points="556.7,870 478.2,870 439.1,800.2 478.2,730.3 556.7,730.3 595.8,800.2 			"/>
			<polygon class="st4" points="556.7,1009.9 478.2,1009.9 439.1,940 478.2,870.2 556.7,870.2 595.8,940 			"/>
			<polygon class="st2" points="556.7,1149.7 478.2,1149.7 439.1,1079.8 478.2,1010 556.7,1010 595.8,1079.8 			"/>
			<polygon class="st2" points="556.7,1289.4 478.2,1289.4 439.1,1219.7 478.2,1149.8 556.7,1149.8 595.8,1219.7 			"/>
			<polygon class="st2" points="556.7,1429.2 478.2,1429.2 439.1,1359.4 478.2,1289.5 556.7,1289.5 595.8,1359.4 			"/>
			<polygon class="st3" points="556.7,1569.1 478.2,1569.1 439.1,1499.2 478.2,1429.3 556.7,1429.3 595.8,1499.2 			"/>
			<polygon class="st2" points="556.7,1708.9 478.2,1708.9 439.1,1639 478.2,1569.2 556.7,1569.2 595.8,1639 			"/>
			<polygon class="st4" points="556.7,1848.7 478.2,1848.7 439.1,1778.8 478.2,1709 556.7,1709 595.8,1778.8 			"/>
			<polygon class="st2" points="556.7,1988.5 478.2,1988.5 439.1,1918.7 478.2,1848.8 556.7,1848.8 595.8,1918.7 			"/>
			<polygon class="st3" points="556.7,2128.2 478.2,2128.2 439.1,2058.5 478.2,1988.6 556.7,1988.6 595.8,2058.5 			"/>
			<polygon class="st4" points="556.7,2268.1 478.2,2268.1 439.1,2198.2 478.2,2128.5 556.7,2128.5 595.8,2198.2 			"/>
			<polygon class="st3" points="556.7,2407.9 478.2,2407.9 439.1,2338 478.2,2268.2 556.7,2268.2 595.8,2338 			"/>
			<path class="st2" d="M556.7,2408h-78.5l-32.7,58.4h77.3c6.5,0,6.5,10.3,0,10.3h-83l-0.6,1.1l39.1,69.8h78.5l39.1-69.8L556.7,2408
				z"/>
			<polygon class="st4" points="556.7,2687.5 478.2,2687.5 439.1,2617.7 478.2,2547.8 556.7,2547.8 595.8,2617.7 			"/>
			<polygon class="st2" points="556.7,-1646.5 478.2,-1646.5 439.1,-1716.3 478.2,-1786.2 556.7,-1786.2 595.8,-1716.3 			"/>
			<polygon class="st4" points="556.7,-1506.7 478.2,-1506.7 439.1,-1576.5 478.2,-1646.4 556.7,-1646.4 595.8,-1576.5 			"/>
			<polygon class="st2" points="556.7,-1366.9 478.2,-1366.9 439.1,-1436.8 478.2,-1506.5 556.7,-1506.5 595.8,-1436.8 			"/>
			<polygon class="st4" points="556.7,-1227.1 478.2,-1227.1 439.1,-1297 478.2,-1366.8 556.7,-1366.8 595.8,-1297 			"/>
			<polygon class="st2" points="556.7,-1087.3 478.2,-1087.3 439.1,-1157.1 478.2,-1227 556.7,-1227 595.8,-1157.1 			"/>
			<polygon class="st4" points="556.7,-947.5 478.2,-947.5 439.1,-1017.3 478.2,-1087.2 556.7,-1087.2 595.8,-1017.3 			"/>
			<polygon class="st2" points="556.7,-807.6 478.2,-807.6 439.1,-877.5 478.2,-947.3 556.7,-947.3 595.8,-877.5 			"/>
			<polygon class="st2" points="556.7,-667.8 478.2,-667.8 439.1,-737.7 478.2,-807.5 556.7,-807.5 595.8,-737.7 			"/>
			<polygon class="st2" points="556.7,-528.1 478.2,-528.1 439.1,-597.8 478.2,-667.7 556.7,-667.7 595.8,-597.8 			"/>
			<polygon class="st2" points="556.7,-388.3 478.2,-388.3 439.1,-458.1 478.2,-528 556.7,-528 595.8,-458.1 			"/>
			<polygon class="st3" points="556.7,-248.4 478.2,-248.4 439.1,-318.3 478.2,-388.2 556.7,-388.2 595.8,-318.3 			"/>
			<polygon class="st2" points="556.7,-108.6 478.2,-108.6 439.1,-178.5 478.2,-248.3 556.7,-248.3 595.8,-178.5 			"/>
			<polygon class="st3" points="556.7,31.2 478.2,31.2 439.1,-38.7 478.2,-108.5 556.7,-108.5 595.8,-38.7 			"/>
			<polygon class="st2" points="675.5,-1716.3 597.1,-1716.3 557.9,-1786.2 597.1,-1856 675.5,-1856 714.7,-1786.2 			"/>
			<polygon class="st3" points="675.5,-1576.5 597.1,-1576.5 557.9,-1646.4 597.1,-1716.2 675.5,-1716.2 714.7,-1646.4 			"/>
			<polygon class="st2" points="675.5,-1436.8 597.1,-1436.8 557.9,-1506.5 597.1,-1576.4 675.5,-1576.4 714.7,-1506.5 			"/>
			<polygon class="st3" points="675.5,-1297 597.1,-1297 557.9,-1366.8 597.1,-1436.6 675.5,-1436.6 714.7,-1366.8 			"/>
			<polygon class="st2" points="675.5,-1157.1 597.1,-1157.1 557.9,-1227 597.1,-1296.8 675.5,-1296.8 714.7,-1227 			"/>
			<polygon class="st2" points="675.5,-1017.3 597.1,-1017.3 557.9,-1087.2 597.1,-1157 675.5,-1157 714.7,-1087.2 			"/>
			<polygon class="st3" points="675.5,-877.5 597.1,-877.5 557.9,-947.3 597.1,-1017.2 675.5,-1017.2 714.7,-947.3 			"/>
			<polygon class="st2" points="675.5,-737.7 597.1,-737.7 557.9,-807.5 597.1,-877.4 675.5,-877.4 714.7,-807.5 			"/>
			<polygon class="st3" points="675.5,-597.8 597.1,-597.8 557.9,-667.7 597.1,-737.6 675.5,-737.6 714.7,-667.7 			"/>
			<polygon class="st2" points="675.5,-458.1 597.1,-458.1 557.9,-528 597.1,-597.7 675.5,-597.7 714.7,-528 			"/>
			<polygon class="st4" points="675.5,-318.3 597.1,-318.3 557.9,-388.2 597.1,-458 675.5,-458 714.7,-388.2 			"/>
			<polygon class="st2" points="675.5,-178.5 597.1,-178.5 557.9,-248.3 597.1,-318.2 675.5,-318.2 714.7,-248.3 			"/>
			<polygon class="st2" points="675.5,-38.7 597.1,-38.7 557.9,-108.5 597.1,-178.4 675.5,-178.4 714.7,-108.5 			"/>
			<polygon class="st2" points="675.5,101.2 597.1,101.2 557.9,31.3 597.1,-38.5 675.5,-38.5 714.7,31.3 			"/>
			<polygon class="st4" points="675.5,241 597.1,241 557.9,171.1 597.1,101.3 675.5,101.3 714.7,171.1 			"/>
			<polygon class="st2" points="675.5,380.7 597.1,380.7 557.9,311 597.1,241.1 675.5,241.1 714.7,311 			"/>
			<polygon class="st4" points="675.5,520.5 597.1,520.5 557.9,450.7 597.1,380.8 675.5,380.8 714.7,450.7 			"/>
			<polygon class="st2" points="675.5,660.4 597.1,660.4 557.9,590.5 597.1,520.7 675.5,520.7 714.7,590.5 			"/>
			<polygon class="st4" points="675.5,800.2 597.1,800.2 557.9,730.3 597.1,660.5 675.5,660.5 714.7,730.3 			"/>
			<polygon class="st3" points="675.5,940 597.1,940 557.9,870.2 597.1,800.3 675.5,800.3 714.7,870.2 			"/>
			<polygon class="st2" points="675.5,1079.8 597.1,1079.8 557.9,1010 597.1,940.1 675.5,940.1 714.7,1010 			"/>
			<polygon class="st4" points="675.5,1219.7 597.1,1219.7 557.9,1149.8 597.1,1079.9 675.5,1079.9 714.7,1149.8 			"/>
			<polygon class="st3" points="675.5,1359.4 597.1,1359.4 557.9,1289.5 597.1,1219.8 675.5,1219.8 714.7,1289.5 			"/>
			<polygon class="st4" points="675.5,1499.2 597.1,1499.2 557.9,1429.3 597.1,1359.5 675.5,1359.5 714.7,1429.3 			"/>
			<polygon class="st2" points="675.5,1639 597.1,1639 557.9,1569.2 597.1,1499.3 675.5,1499.3 714.7,1569.2 			"/>
			<polygon class="st3" points="675.5,1778.8 597.1,1778.8 557.9,1709 597.1,1639.1 675.5,1639.1 714.7,1709 			"/>
			<polygon class="st2" points="675.5,1918.7 597.1,1918.7 557.9,1848.8 597.1,1779 675.5,1779 714.7,1848.8 			"/>
			<polygon class="st4" points="675.5,2058.5 597.1,2058.5 557.9,1988.6 597.1,1918.8 675.5,1918.8 714.7,1988.6 			"/>
			<polygon class="st2" points="675.5,2198.2 597.1,2198.2 557.9,2128.5 597.1,2058.6 675.5,2058.6 714.7,2128.5 			"/>
			<path class="st2" d="M675.5,2198.3h-78.4l-39.2,69.9l39.2,69.8h23.4v-34.5c0-2.3,1.2-3.8,2.8-4.5c0.7-1.6,2.1-2.9,4.4-2.9
				c5.3,0,6.2,6.9,2.9,9.4v32.5h44.9l39.2-69.8L675.5,2198.3z"/>
			<path class="st4" d="M675.5,2338.2h-44.9v127.8c0,6.7-10,6.6-10,0v-127.8h-23.4l-39.2,69.8l39.2,69.9h78.4l39.2-69.9
				L675.5,2338.2z"/>
			<polygon class="st3" points="675.5,2617.7 597.1,2617.7 557.9,2547.8 597.1,2478 675.5,2478 714.7,2547.8 			"/>
		</g>
		<g class="st6">
			<polygon class="st7" points="-2.7,181 -81.2,181 -120.3,111.2 -81.2,41.3 -2.7,41.3 36.4,111.2 			"/>
			<polygon class="st7" points="-2.7,320.8 -81.2,320.8 -120.3,251 -81.2,181.1 -2.7,181.1 36.4,251 			"/>
			<polygon class="st8" points="-2.7,460.7 -81.2,460.7 -120.3,390.8 -81.2,321 -2.7,321 36.4,390.8 			"/>
			<polygon class="st9" points="-2.7,600.4 -81.2,600.4 -120.3,530.5 -81.2,460.8 -2.7,460.8 36.4,530.5 			"/>
			<polygon class="st7" points="-2.7,740.2 -81.2,740.2 -120.3,670.4 -81.2,600.5 -2.7,600.5 36.4,670.4 			"/>
			<polygon class="st8" points="-2.7,880 -81.2,880 -120.3,810.2 -81.2,740.3 -2.7,740.3 36.4,810.2 			"/>
			<polygon class="st7" points="-2.7,1019.9 -81.2,1019.9 -120.3,950 -81.2,880.2 -2.7,880.2 36.4,950 			"/>
			<polygon class="st7" points="-2.7,1159.7 -81.2,1159.7 -120.3,1089.8 -81.2,1020 -2.7,1020 36.4,1089.8 			"/>
			<polygon class="st9" points="-2.7,1299.5 -81.2,1299.5 -120.3,1229.7 -81.2,1159.8 -2.7,1159.8 36.4,1229.7 			"/>
			<polygon class="st7" points="-2.7,1439.2 -81.2,1439.2 -120.3,1369.5 -81.2,1299.6 -2.7,1299.6 36.4,1369.5 			"/>
			<polygon class="st8" points="-2.7,1579.1 -81.2,1579.1 -120.3,1509.2 -81.2,1439.3 -2.7,1439.3 36.4,1509.2 			"/>
			<polygon class="st7" points="-2.7,1718.9 -81.2,1718.9 -120.3,1649 -81.2,1579.2 -2.7,1579.2 36.4,1649 			"/>
			<polygon class="st9" points="-2.7,1858.7 -81.2,1858.7 -120.3,1788.8 -81.2,1719 -2.7,1719 36.4,1788.8 			"/>
			<polygon class="st8" points="-2.7,1998.5 -81.2,1998.5 -120.3,1928.7 -81.2,1858.8 -2.7,1858.8 36.4,1928.7 			"/>
			<polygon class="st7" points="-2.7,2138.3 -81.2,2138.3 -120.3,2068.5 -81.2,1998.6 -2.7,1998.6 36.4,2068.5 			"/>
			<path class="st8" d="M-2.7,2138.5h-78.5l-39.1,69.8l39.1,69.9h49.7v-30.3c0-6.7,10-6.6,10,0v30.3h18.7l39.1-69.9L-2.7,2138.5z"/>
			<polygon class="st7" points="-2.7,2278.3 -21.4,2278.3 -21.4,2417.9 -2.7,2417.9 36.4,2348 			"/>
			<polygon class="st7" points="-31.4,2278.3 -81.2,2278.3 -120.3,2348 -81.2,2417.9 -31.4,2417.9 			"/>
			<polygon class="st9" points="24.4,2466.5 -2.7,2418 -21.4,2418 -21.4,2466.5 			"/>
			<path class="st9" d="M-21.5,2476.8c-2.5,0-4.1-1.6-4.6-3.5c-2.6,0.1-5.3-1.5-5.3-5V2418h-49.7l-39.1,69.9l39.1,69.8h78.5
				l39.1-69.8l-6.2-11.1H-21.5z"/>
			<polygon class="st8" points="-2.7,2697.5 -81.2,2697.5 -120.3,2627.7 -81.2,2557.8 -2.7,2557.8 36.4,2627.7 			"/>
			<polygon class="st7" points="-2.7,-1636.5 -81.2,-1636.5 -120.3,-1706.3 -81.2,-1776.2 -2.7,-1776.2 36.4,-1706.3 			"/>
			<polygon class="st7" points="-2.7,-1496.7 -81.2,-1496.7 -120.3,-1566.5 -81.2,-1636.4 -2.7,-1636.4 36.4,-1566.5 			"/>
			<polygon class="st8" points="-2.7,-1356.8 -81.2,-1356.8 -120.3,-1426.7 -81.2,-1496.5 -2.7,-1496.5 36.4,-1426.7 			"/>
			<polygon class="st7" points="-2.7,-1217.1 -81.2,-1217.1 -120.3,-1287 -81.2,-1356.7 -2.7,-1356.7 36.4,-1287 			"/>
			<polygon class="st7" points="-2.7,-1077.3 -81.2,-1077.3 -120.3,-1147.1 -81.2,-1217 -2.7,-1217 36.4,-1147.1 			"/>
			<polygon class="st7" points="-2.7,-937.5 -81.2,-937.5 -120.3,-1007.3 -81.2,-1077.2 -2.7,-1077.2 36.4,-1007.3 			"/>
			<polygon class="st8" points="-2.7,-797.6 -81.2,-797.6 -120.3,-867.5 -81.2,-937.3 -2.7,-937.3 36.4,-867.5 			"/>
			<polygon class="st7" points="-2.7,-657.8 -81.2,-657.8 -120.3,-727.7 -81.2,-797.5 -2.7,-797.5 36.4,-727.7 			"/>
			<polygon class="st7" points="-2.7,-518 -81.2,-518 -120.3,-587.8 -81.2,-657.7 -2.7,-657.7 36.4,-587.8 			"/>
			<polygon class="st8" points="-2.7,-378.3 -81.2,-378.3 -120.3,-448 -81.2,-517.9 -2.7,-517.9 36.4,-448 			"/>
			<polygon class="st7" points="-2.7,-238.4 -81.2,-238.4 -120.3,-308.3 -81.2,-378.2 -2.7,-378.2 36.4,-308.3 			"/>
			<polygon class="st7" points="-2.7,-98.6 -81.2,-98.6 -120.3,-168.5 -81.2,-238.3 -2.7,-238.3 36.4,-168.5 			"/>
			<polygon class="st8" points="-2.7,41.2 -81.2,41.2 -120.3,-28.7 -81.2,-98.5 -2.7,-98.5 36.4,-28.7 			"/>
			<polygon class="st7" points="116.1,-1706.3 37.7,-1706.3 -1.5,-1776.2 37.7,-1846 116.1,-1846 155.3,-1776.2 			"/>
			<polygon class="st8" points="116.1,-1566.5 37.7,-1566.5 -1.5,-1636.4 37.7,-1706.2 116.1,-1706.2 155.3,-1636.4 			"/>
			<polygon class="st9" points="116.1,-1426.7 37.7,-1426.7 -1.5,-1496.5 37.7,-1566.4 116.1,-1566.4 155.3,-1496.5 			"/>
			<polygon class="st7" points="116.1,-1287 37.7,-1287 -1.5,-1356.7 37.7,-1426.6 116.1,-1426.6 155.3,-1356.7 			"/>
			<polygon class="st7" points="116.1,-1147.1 37.7,-1147.1 -1.5,-1217 37.7,-1286.7 116.1,-1286.7 155.3,-1217 			"/>
			<polygon class="st9" points="116.1,-1007.3 37.7,-1007.3 -1.5,-1077.2 37.7,-1147 116.1,-1147 155.3,-1077.2 			"/>
			<polygon class="st10" points="116.1,-867.5 37.7,-867.5 -1.5,-937.3 37.7,-1007.2 116.1,-1007.2 155.3,-937.3 			"/>
			<polygon class="st7" points="116.1,-727.7 37.7,-727.7 -1.5,-797.5 37.7,-867.4 116.1,-867.4 155.3,-797.5 			"/>
			<polygon class="st8" points="116.1,-587.8 37.7,-587.8 -1.5,-657.7 37.7,-727.6 116.1,-727.6 155.3,-657.7 			"/>
			<polygon class="st7" points="116.1,-448 37.7,-448 -1.5,-517.9 37.7,-587.7 116.1,-587.7 155.3,-517.9 			"/>
			<polygon class="st7" points="116.1,-308.3 37.7,-308.3 -1.5,-378.2 37.7,-447.9 116.1,-447.9 155.3,-378.2 			"/>
			<polygon class="st8" points="116.1,-168.5 37.7,-168.5 -1.5,-238.3 37.7,-308.2 116.1,-308.2 155.3,-238.3 			"/>
			<polygon class="st9" points="116.1,-28.7 37.7,-28.7 -1.5,-98.5 37.7,-168.4 116.1,-168.4 155.3,-98.5 			"/>
			<polygon class="st7" points="116.1,111.2 37.7,111.2 -1.5,41.3 37.7,-28.5 116.1,-28.5 155.3,41.3 			"/>
			<polygon class="st8" points="116.1,251 37.7,251 -1.5,181.1 37.7,111.3 116.1,111.3 155.3,181.1 			"/>
			<polygon class="st9" points="116.1,390.8 37.7,390.8 -1.5,321 37.7,251.1 116.1,251.1 155.3,321 			"/>
			<polygon class="st7" points="116.1,530.5 37.7,530.5 -1.5,460.8 37.7,390.9 116.1,390.9 155.3,460.8 			"/>
			<polygon class="st8" points="116.1,670.4 37.7,670.4 -1.5,600.5 37.7,530.7 116.1,530.7 155.3,600.5 			"/>
			<polygon class="st7" points="116.1,810.2 37.7,810.2 -1.5,740.3 37.7,670.5 116.1,670.5 155.3,740.3 			"/>
			<polygon class="st9" points="116.1,950 37.7,950 -1.5,880.2 37.7,810.3 116.1,810.3 155.3,880.2 			"/>
			<polygon class="st7" points="116.1,1089.8 37.7,1089.8 -1.5,1020 37.7,950.1 116.1,950.1 155.3,1020 			"/>
			<polygon class="st8" points="116.1,1229.7 37.7,1229.7 -1.5,1159.8 37.7,1089.9 116.1,1089.9 155.3,1159.8 			"/>
			<polygon class="st7" points="116.1,1369.5 37.7,1369.5 -1.5,1299.6 37.7,1229.8 116.1,1229.8 155.3,1299.6 			"/>
			<polygon class="st9" points="116.1,1509.2 37.7,1509.2 -1.5,1439.3 37.7,1369.6 116.1,1369.6 155.3,1439.3 			"/>
			<polygon class="st7" points="116.1,1649 37.7,1649 -1.5,1579.2 37.7,1509.3 116.1,1509.3 155.3,1579.2 			"/>
			<polygon class="st8" points="116.1,1788.8 37.7,1788.8 -1.5,1719 37.7,1649.1 116.1,1649.1 155.3,1719 			"/>
			<polygon class="st7" points="116.1,1928.7 37.7,1928.7 -1.5,1858.8 37.7,1789 116.1,1789 155.3,1858.8 			"/>
			<polygon class="st8" points="116.1,2068.5 37.7,2068.5 -1.5,1998.6 37.7,1928.8 116.1,1928.8 155.3,1998.6 			"/>
			<polygon class="st9" points="116.1,2208.3 37.7,2208.3 -1.5,2138.5 37.7,2068.6 116.1,2068.6 155.3,2138.5 			"/>
			<polygon class="st7" points="116.1,2348 37.7,2348 -1.5,2278.3 37.7,2208.4 116.1,2208.4 155.3,2278.3 			"/>
			<polygon class="st8" points="128.1,2466.5 155.3,2418 116.1,2348.2 37.7,2348.2 -1.5,2418 25.7,2466.5 			"/>
			<polygon class="st8" points="31.5,2476.8 37.7,2487.9 116.1,2487.9 122.3,2476.8 			"/>
			<polygon class="st7" points="116.1,2627.7 37.7,2627.7 -1.5,2557.8 37.7,2488 116.1,2488 155.3,2557.8 			"/>
			<polygon class="st7" points="234.9,181 156.4,181 117.3,111.2 156.4,41.3 234.9,41.3 274,111.2 			"/>
			<polygon class="st7" points="234.9,320.8 156.4,320.8 117.3,251 156.4,181.1 234.9,181.1 274,251 			"/>
			<polygon class="st8" points="234.9,460.7 156.4,460.7 117.3,390.8 156.4,321 234.9,321 274,390.8 			"/>
			<polygon class="st7" points="234.9,600.4 156.4,600.4 117.3,530.5 156.4,460.8 234.9,460.8 274,530.5 			"/>
			<polygon class="st9" points="234.9,740.2 156.4,740.2 117.3,670.4 156.4,600.5 234.9,600.5 274,670.4 			"/>
			<polygon class="st7" points="234.9,880 156.4,880 117.3,810.2 156.4,740.3 234.9,740.3 274,810.2 			"/>
			<polygon class="st8" points="234.9,1019.9 156.4,1019.9 117.3,950 156.4,880.2 234.9,880.2 274,950 			"/>
			<polygon class="st9" points="234.9,1159.7 156.4,1159.7 117.3,1089.8 156.4,1020 234.9,1020 274,1089.8 			"/>
			<polygon class="st7" points="234.9,1299.5 156.4,1299.5 117.3,1229.7 156.4,1159.8 234.9,1159.8 274,1229.7 			"/>
			<polygon class="st8" points="234.9,1439.2 156.4,1439.2 117.3,1369.5 156.4,1299.6 234.9,1299.6 274,1369.5 			"/>
			<polygon class="st7" points="234.9,1579.1 156.4,1579.1 117.3,1509.2 156.4,1439.3 234.9,1439.3 274,1509.2 			"/>
			<polygon class="st8" points="234.9,1718.9 156.4,1718.9 117.3,1649 156.4,1579.2 234.9,1579.2 274,1649 			"/>
			<polygon class="st9" points="234.9,1858.7 156.4,1858.7 117.3,1788.8 156.4,1719 234.9,1719 274,1788.8 			"/>
			<polygon class="st7" points="234.9,1998.5 156.4,1998.5 117.3,1928.7 156.4,1858.8 234.9,1858.8 274,1928.7 			"/>
			<polygon class="st7" points="234.9,2138.3 156.4,2138.3 117.3,2068.5 156.4,1998.6 234.9,1998.6 274,2068.5 			"/>
			<polygon class="st8" points="234.9,2278.1 156.4,2278.1 117.3,2208.3 156.4,2138.5 234.9,2138.5 274,2208.3 			"/>
			<polygon class="st7" points="234.9,2417.9 156.4,2417.9 117.3,2348 156.4,2278.3 234.9,2278.3 274,2348 			"/>
			<polygon class="st10" points="262,2466.5 234.9,2418 156.4,2418 129.3,2466.5 			"/>
			<polygon class="st10" points="123.5,2476.8 117.3,2487.9 156.4,2557.7 234.9,2557.7 274,2487.9 267.8,2476.8 			"/>
			<polygon class="st8" points="234.9,2697.5 156.4,2697.5 117.3,2627.7 156.4,2557.8 234.9,2557.8 274,2627.7 			"/>
			<g>
				<polygon class="st7" points="234.9,-1636.5 156.4,-1636.5 117.3,-1706.3 156.4,-1776.2 234.9,-1776.2 274,-1706.3 				"/>
				<polygon class="st7" points="234.9,-1496.7 156.4,-1496.7 117.3,-1566.5 156.4,-1636.4 234.9,-1636.4 274,-1566.5 				"/>
				<polygon class="st7" points="234.9,-1356.8 156.4,-1356.8 117.3,-1426.7 156.4,-1496.5 234.9,-1496.5 274,-1426.7 				"/>
				<polygon class="st8" points="234.9,-1217.1 156.4,-1217.1 117.3,-1287 156.4,-1356.7 234.9,-1356.7 274,-1287 				"/>
				<polygon class="st7" points="234.9,-1077.3 156.4,-1077.3 117.3,-1147.1 156.4,-1217 234.9,-1217 274,-1147.1 				"/>
				<polygon class="st7" points="234.9,-937.5 156.4,-937.5 117.3,-1007.3 156.4,-1077.2 234.9,-1077.2 274,-1007.3 				"/>
				<polygon class="st9" points="234.9,-797.6 156.4,-797.6 117.3,-867.5 156.4,-937.3 234.9,-937.3 274,-867.5 				"/>
				<polygon class="st7" points="234.9,-657.8 156.4,-657.8 117.3,-727.7 156.4,-797.5 234.9,-797.5 274,-727.7 				"/>
				<polygon class="st7" points="234.9,-518 156.4,-518 117.3,-587.8 156.4,-657.7 234.9,-657.7 274,-587.8 				"/>
				<polygon class="st9" points="234.9,-378.3 156.4,-378.3 117.3,-448 156.4,-517.9 234.9,-517.9 274,-448 				"/>
				<polygon class="st10" points="234.9,-238.4 156.4,-238.4 117.3,-308.3 156.4,-378.2 234.9,-378.2 274,-308.3 				"/>
				<polygon class="st7" points="234.9,-98.6 156.4,-98.6 117.3,-168.5 156.4,-238.3 234.9,-238.3 274,-168.5 				"/>
				<polygon class="st8" points="234.9,41.2 156.4,41.2 117.3,-28.7 156.4,-98.5 234.9,-98.5 274,-28.7 				"/>
				<g>
					<polygon class="st7" points="353.6,-1706.3 275.3,-1706.3 236.1,-1776.2 275.3,-1846 353.6,-1846 392.9,-1776.2 					"/>
					<polygon class="st7" points="353.6,-1566.5 275.3,-1566.5 236.1,-1636.4 275.3,-1706.2 353.6,-1706.2 392.9,-1636.4 					"/>
					<polygon class="st8" points="353.6,-1426.7 275.3,-1426.7 236.1,-1496.5 275.3,-1566.4 353.6,-1566.4 392.9,-1496.5 					"/>
					<polygon class="st7" points="353.6,-1287 275.3,-1287 236.1,-1356.7 275.3,-1426.6 353.6,-1426.6 392.9,-1356.7 					"/>
					<polygon class="st7" points="353.6,-1147.1 275.3,-1147.1 236.1,-1217 275.3,-1286.7 353.6,-1286.7 392.9,-1217 					"/>
					<polygon class="st8" points="353.6,-1007.3 275.3,-1007.3 236.1,-1077.2 275.3,-1147 353.6,-1147 392.9,-1077.2 					"/>
					<polygon class="st7" points="353.6,-867.5 275.3,-867.5 236.1,-937.3 275.3,-1007.2 353.6,-1007.2 392.9,-937.3 					"/>
					<polygon class="st8" points="353.6,-727.7 275.3,-727.7 236.1,-797.5 275.3,-867.4 353.6,-867.4 392.9,-797.5 					"/>
					<polygon class="st9" points="353.6,-587.8 275.3,-587.8 236.1,-657.7 275.3,-727.6 353.6,-727.6 392.9,-657.7 					"/>
					<polygon class="st8" points="353.6,-448 275.3,-448 236.1,-517.9 275.3,-587.7 353.6,-587.7 392.9,-517.9 					"/>
					<polygon class="st7" points="353.6,-308.3 275.3,-308.3 236.1,-378.2 275.3,-447.9 353.6,-447.9 392.9,-378.2 					"/>
					<polygon class="st7" points="353.6,-168.5 275.3,-168.5 236.1,-238.3 275.3,-308.2 353.6,-308.2 392.9,-238.3 					"/>
					<polygon class="st9" points="353.6,-28.7 275.3,-28.7 236.1,-98.5 275.3,-168.4 353.6,-168.4 392.9,-98.5 					"/>
					<polygon class="st7" points="353.6,111.2 275.3,111.2 236.1,41.3 275.3,-28.5 353.6,-28.5 392.9,41.3 					"/>
					<polygon class="st9" points="353.6,251 275.3,251 236.1,181.1 275.3,111.3 353.6,111.3 392.9,181.1 					"/>
					<polygon class="st7" points="353.6,390.8 275.3,390.8 236.1,321 275.3,251.1 353.6,251.1 392.9,321 					"/>
					<polygon class="st9" points="353.6,530.5 275.3,530.5 236.1,460.8 275.3,390.9 353.6,390.9 392.9,460.8 					"/>
					<polygon class="st7" points="353.6,670.4 275.3,670.4 236.1,600.5 275.3,530.7 353.6,530.7 392.9,600.5 					"/>
					<polygon class="st8" points="353.6,810.2 275.3,810.2 236.1,740.3 275.3,670.5 353.6,670.5 392.9,740.3 					"/>
					<polygon class="st7" points="353.6,950 275.3,950 236.1,880.2 275.3,810.3 353.6,810.3 392.9,880.2 					"/>
					<polygon class="st7" points="353.6,1089.8 275.3,1089.8 236.1,1020 275.3,950.1 353.6,950.1 392.9,1020 					"/>
					<polygon class="st8" points="353.6,1229.7 275.3,1229.7 236.1,1159.8 275.3,1089.9 353.6,1089.9 392.9,1159.8 					"/>
					<polygon class="st9" points="353.6,1369.5 275.3,1369.5 236.1,1299.6 275.3,1229.8 353.6,1229.8 392.9,1299.6 					"/>
					<polygon class="st7" points="353.6,1509.2 275.3,1509.2 236.1,1439.3 275.3,1369.6 353.6,1369.6 392.9,1439.3 					"/>
					<polygon class="st9" points="353.6,1649 275.3,1649 236.1,1579.2 275.3,1509.3 353.6,1509.3 392.9,1579.2 					"/>
					<polygon class="st7" points="353.6,1788.8 275.3,1788.8 236.1,1719 275.3,1649.1 353.6,1649.1 392.9,1719 					"/>
					<polygon class="st8" points="353.6,1928.7 275.3,1928.7 236.1,1858.8 275.3,1789 353.6,1789 392.9,1858.8 					"/>
					<polygon class="st9" points="353.6,2068.5 275.3,2068.5 236.1,1998.6 275.3,1928.8 353.6,1928.8 392.9,1998.6 					"/>
					<polygon class="st7" points="353.6,2208.3 275.3,2208.3 236.1,2138.5 275.3,2068.6 353.6,2068.6 392.9,2138.5 					"/>
					<polygon class="st7" points="353.6,2348 275.3,2348 236.1,2278.3 275.3,2208.4 353.6,2208.4 392.9,2278.3 					"/>
					<polygon class="st9" points="365.7,2466.5 392.9,2418 353.6,2348.2 275.3,2348.2 236.1,2418 263.2,2466.5 					"/>
					<polygon class="st9" points="269,2476.8 275.3,2487.9 353.6,2487.9 359.9,2476.8 					"/>
					<polygon class="st7" points="353.6,2627.7 275.3,2627.7 236.1,2557.8 275.3,2488 353.6,2488 392.9,2557.8 					"/>
				</g>
			</g>
			<polygon class="st7" points="473.7,179.3 395.3,179.3 356.2,109.5 395.3,39.6 473.7,39.6 512.9,109.5 			"/>
			<polygon class="st8" points="473.7,319.1 395.3,319.1 356.2,249.3 395.3,179.4 473.7,179.4 512.9,249.3 			"/>
			<polygon class="st7" points="473.7,459 395.3,459 356.2,389.1 395.3,319.3 473.7,319.3 512.9,389.1 			"/>
			<polygon class="st8" points="473.7,598.8 395.3,598.8 356.2,528.9 395.3,459.1 473.7,459.1 512.9,528.9 			"/>
			<polygon class="st7" points="473.7,738.6 395.3,738.6 356.2,668.8 395.3,598.9 473.7,598.9 512.9,668.8 			"/>
			<polygon class="st7" points="473.7,878.4 395.3,878.4 356.2,808.6 395.3,738.7 473.7,738.7 512.9,808.6 			"/>
			<polygon class="st9" points="473.7,1018.2 395.3,1018.2 356.2,948.3 395.3,878.6 473.7,878.6 512.9,948.3 			"/>
			<polygon class="st7" points="473.7,1158 395.3,1158 356.2,1088.1 395.3,1018.3 473.7,1018.3 512.9,1088.1 			"/>
			<polygon class="st7" points="473.7,1297.8 395.3,1297.8 356.2,1228 395.3,1158.1 473.7,1158.1 512.9,1228 			"/>
			<polygon class="st7" points="473.7,1437.6 395.3,1437.6 356.2,1367.8 395.3,1297.9 473.7,1297.9 512.9,1367.8 			"/>
			<polygon class="st8" points="473.7,1577.5 395.3,1577.5 356.2,1507.6 395.3,1437.7 473.7,1437.7 512.9,1507.6 			"/>
			<polygon class="st7" points="473.7,1717.3 395.3,1717.3 356.2,1647.4 395.3,1577.6 473.7,1577.6 512.9,1647.4 			"/>
			<polygon class="st9" points="473.7,1857 395.3,1857 356.2,1787.2 395.3,1717.4 473.7,1717.4 512.9,1787.2 			"/>
			<polygon class="st7" points="473.7,1996.8 395.3,1996.8 356.2,1927 395.3,1857.1 473.7,1857.1 512.9,1927 			"/>
			<polygon class="st8" points="473.7,2136.6 395.3,2136.6 356.2,2066.8 395.3,1996.9 473.7,1996.9 512.9,2066.8 			"/>
			<polygon class="st9" points="473.7,2276.5 395.3,2276.5 356.2,2206.6 395.3,2136.8 473.7,2136.8 512.9,2206.6 			"/>
			<polygon class="st8" points="473.7,2416.3 395.3,2416.3 356.2,2346.4 395.3,2276.6 473.7,2276.6 512.9,2346.4 			"/>
			<polygon class="st7" points="501.8,2466.5 473.7,2416.4 395.3,2416.4 367.2,2466.5 			"/>
			<polygon class="st7" points="361.5,2476.8 356.2,2486.3 395.3,2556.1 473.7,2556.1 512.9,2486.3 507.5,2476.8 			"/>
			<polygon class="st9" points="473.7,2695.8 395.3,2695.8 356.2,2626.1 395.3,2556.2 473.7,2556.2 512.9,2626.1 			"/>
			<polygon class="st7" points="473.7,-1638.2 395.3,-1638.2 356.2,-1708 395.3,-1777.8 473.7,-1777.8 512.9,-1708 			"/>
			<polygon class="st9" points="473.7,-1498.4 395.3,-1498.4 356.2,-1568.2 395.3,-1638.1 473.7,-1638.1 512.9,-1568.2 			"/>
			<polygon class="st7" points="473.7,-1358.5 395.3,-1358.5 356.2,-1428.4 395.3,-1498.2 473.7,-1498.2 512.9,-1428.4 			"/>
			<polygon class="st9" points="473.7,-1218.7 395.3,-1218.7 356.2,-1288.6 395.3,-1358.4 473.7,-1358.4 512.9,-1288.6 			"/>
			<polygon class="st7" points="473.7,-1078.9 395.3,-1078.9 356.2,-1148.7 395.3,-1218.6 473.7,-1218.6 512.9,-1148.7 			"/>
			<polygon class="st9" points="473.7,-939.1 395.3,-939.1 356.2,-1008.9 395.3,-1078.8 473.7,-1078.8 512.9,-1008.9 			"/>
			<polygon class="st7" points="473.7,-799.3 395.3,-799.3 356.2,-869.2 395.3,-938.9 473.7,-938.9 512.9,-869.2 			"/>
			<polygon class="st7" points="473.7,-659.5 395.3,-659.5 356.2,-729.4 395.3,-799.2 473.7,-799.2 512.9,-729.4 			"/>
			<polygon class="st7" points="473.7,-519.7 395.3,-519.7 356.2,-589.5 395.3,-659.4 473.7,-659.4 512.9,-589.5 			"/>
			<polygon class="st7" points="473.7,-379.9 395.3,-379.9 356.2,-449.7 395.3,-519.6 473.7,-519.6 512.9,-449.7 			"/>
			<polygon class="st8" points="473.7,-240 395.3,-240 356.2,-309.9 395.3,-379.8 473.7,-379.8 512.9,-309.9 			"/>
			<polygon class="st7" points="473.7,-100.2 395.3,-100.2 356.2,-170.1 395.3,-239.9 473.7,-239.9 512.9,-170.1 			"/>
			<polygon class="st8" points="473.7,39.5 395.3,39.5 356.2,-30.3 395.3,-100.1 473.7,-100.1 512.9,-30.3 			"/>
			<polygon class="st7" points="592.5,-1708 514.2,-1708 474.9,-1777.8 514.2,-1847.6 592.5,-1847.6 631.7,-1777.8 			"/>
			<polygon class="st8" points="592.5,-1568.2 514.2,-1568.2 474.9,-1638.1 514.2,-1707.9 592.5,-1707.9 631.7,-1638.1 			"/>
			<polygon class="st7" points="592.5,-1428.4 514.2,-1428.4 474.9,-1498.2 514.2,-1568.1 592.5,-1568.1 631.7,-1498.2 			"/>
			<polygon class="st8" points="592.5,-1288.6 514.2,-1288.6 474.9,-1358.4 514.2,-1428.3 592.5,-1428.3 631.7,-1358.4 			"/>
			<polygon class="st7" points="592.5,-1148.7 514.2,-1148.7 474.9,-1218.6 514.2,-1288.4 592.5,-1288.4 631.7,-1218.6 			"/>
			<polygon class="st7" points="592.5,-1008.9 514.2,-1008.9 474.9,-1078.8 514.2,-1148.6 592.5,-1148.6 631.7,-1078.8 			"/>
			<polygon class="st8" points="592.5,-869.2 514.2,-869.2 474.9,-938.9 514.2,-1008.8 592.5,-1008.8 631.7,-938.9 			"/>
			<polygon class="st7" points="592.5,-729.4 514.2,-729.4 474.9,-799.2 514.2,-869 592.5,-869 631.7,-799.2 			"/>
			<polygon class="st8" points="592.5,-589.5 514.2,-589.5 474.9,-659.4 514.2,-729.3 592.5,-729.3 631.7,-659.4 			"/>
			<polygon class="st7" points="592.5,-449.7 514.2,-449.7 474.9,-519.6 514.2,-589.4 592.5,-589.4 631.7,-519.6 			"/>
			<polygon class="st9" points="592.5,-309.9 514.2,-309.9 474.9,-379.8 514.2,-449.6 592.5,-449.6 631.7,-379.8 			"/>
			<polygon class="st7" points="592.5,-170.1 514.2,-170.1 474.9,-239.9 514.2,-309.8 592.5,-309.8 631.7,-239.9 			"/>
			<polygon class="st7" points="592.5,-30.3 514.2,-30.3 474.9,-100.1 514.2,-170 592.5,-170 631.7,-100.1 			"/>
			<polygon class="st7" points="592.5,109.5 514.2,109.5 474.9,39.6 514.2,-30.1 592.5,-30.1 631.7,39.6 			"/>
			<polygon class="st9" points="592.5,249.3 514.2,249.3 474.9,179.4 514.2,109.6 592.5,109.6 631.7,179.4 			"/>
			<polygon class="st7" points="592.5,389.1 514.2,389.1 474.9,319.3 514.2,249.4 592.5,249.4 631.7,319.3 			"/>
			<polygon class="st9" points="592.5,528.9 514.2,528.9 474.9,459.1 514.2,389.2 592.5,389.2 631.7,459.1 			"/>
			<polygon class="st7" points="592.5,668.8 514.2,668.8 474.9,598.9 514.2,529.1 592.5,529.1 631.7,598.9 			"/>
			<polygon class="st9" points="592.5,808.6 514.2,808.6 474.9,738.7 514.2,668.9 592.5,668.9 631.7,738.7 			"/>
			<polygon class="st8" points="592.5,948.3 514.2,948.3 474.9,878.6 514.2,808.7 592.5,808.7 631.7,878.6 			"/>
			<polygon class="st7" points="592.5,1088.1 514.2,1088.1 474.9,1018.3 514.2,948.4 592.5,948.4 631.7,1018.3 			"/>
			<polygon class="st9" points="592.5,1228 514.2,1228 474.9,1158.1 514.2,1088.2 592.5,1088.2 631.7,1158.1 			"/>
			<polygon class="st8" points="592.5,1367.8 514.2,1367.8 474.9,1297.9 514.2,1228.1 592.5,1228.1 631.7,1297.9 			"/>
			<polygon class="st9" points="592.5,1507.6 514.2,1507.6 474.9,1437.7 514.2,1367.9 592.5,1367.9 631.7,1437.7 			"/>
			<polygon class="st7" points="592.5,1647.4 514.2,1647.4 474.9,1577.6 514.2,1507.7 592.5,1507.7 631.7,1577.6 			"/>
			<polygon class="st8" points="592.5,1787.2 514.2,1787.2 474.9,1717.4 514.2,1647.5 592.5,1647.5 631.7,1717.4 			"/>
			<polygon class="st7" points="592.5,1927 514.2,1927 474.9,1857.1 514.2,1787.4 592.5,1787.4 631.7,1857.1 			"/>
			<polygon class="st9" points="592.5,2066.8 514.2,2066.8 474.9,1996.9 514.2,1927.1 592.5,1927.1 631.7,1996.9 			"/>
			<polygon class="st7" points="592.5,2206.6 514.2,2206.6 474.9,2136.8 514.2,2066.9 592.5,2066.9 631.7,2136.8 			"/>
			<polygon class="st7" points="592.5,2346.4 514.2,2346.4 474.9,2276.6 514.2,2206.7 592.5,2206.7 631.7,2276.6 			"/>
			<polygon class="st9" points="630.6,2418.4 631.7,2416.4 630.6,2414.4 			"/>
			<path class="st9" d="M592.5,2346.6h-78.4l-39.2,69.8l28.1,50.1h19.7c6.5,0,6.5,10.3,0,10.3h-14l5.3,9.5h78.4l28.1-50v-39.7
				L592.5,2346.6z"/>
			<polygon class="st8" points="592.5,2626.1 514.2,2626.1 474.9,2556.2 514.2,2486.4 592.5,2486.4 631.7,2556.2 			"/>
		</g>
	</g>
	<g id="Calque_7_1_" class="st11">
	</g>
	<g id="Calque_7" class="st11">
		<path class="st12" d="M-22.3-1665.5v179.7c20.2,6.1,52.1,13,89.5,7.4c63.9-9.4,82.9-45.8,146.5-68.1c62.1-21.8,118.1-13,154.5-7.2
			c78,12.3,114.7,43.8,186.6,45.4c0.1,0,0.2,0,0.3,0c37.8,0.8,55.9-8.2,65-18.6c0.3-46.3,0.7-92.4,1-138.6
			C621-1665.5-22.3-1665.5-22.3-1665.5z"/>
	</g>
	<g id="Calque_1_1_" class="st11">
	</g>
	<ellipse class="st13" cx="292.7" cy="2223.6" rx="31.1" ry="32"/>
	<path class="st14" d="M290.4,2193.3c-1,1-2-332-195.6-378.9"/>
	<path class="st14" d="M294.5,2193.3c1.8-15.8,5.8-38.9,16.1-64.8c17.7-44.7,44-72.8,53.2-82.8c90.4-98.9,149.1-164.3,156.5-239.3
		c3.5-35.8-13.7-75.1-48.2-153.5c-40.5-92.3-63.3-144.2-118.4-185.5c-60.5-45.3-75.2-39.7-104.3-81.8
		c-48.5-70.1-33.1-160.7-28.1-190.5c17.9-105.1,75.3-146.4,61.2-227.3c-5.7-32.9-20.6-61.5-21.6-63.4c-7.2-13.7-19.7-33.6-54.7-67.3
		c-53.6-51.5-70.8-49.7-98.3-82.8c-14.3-17.2-32.6-45.3-43.1-89.7"/>
	<path class="st14" d="M226.7,1169.7c-18.8-12.6-109.3-75.8-117.9-175.9c-5.4-62.4,21.2-135.4,40.3-166c3.4-5.4,17.2-26.3,30.6-57.5
		c0,0,7-16,12.3-32.3c22.2-68.5,20.5-133.5,15.1-169.6C186.2,425.4,5.5,369.4,21.7,281.7c7.5-40.4,46.6-49.7,105.1-96.8
		c61.1-49.2,133.2-132.5,183.9-282"/>
	<path class="st14" d="M363.7,2045.7c4.4-13.9,9.7-36.8,6.6-63.8c-7.4-65.7-55.5-80.1-59.8-135.7c-3.8-48.1,27.2-52.3,33.1-109.6
		c8.5-83.4-50.1-192.4-122.4-208.4c-33.5-7.3-69.6,5.3-112.1-22.8c-6.6-4.5-15.6-11.6-24.8-21.4c-7.1-7.6-52.4-57.7-42.7-128.4
		c7.8-57.1,46.3-90.6,56.2-98.7"/>
	<g class="st11">
		<path class="st15" d="M343.9,1735.8c6.6-11.1,16.2-27.8,26.8-48.2c23.5-45,171.4-328.1,89.6-425.4c-13.4-16-40.1-43.5-67.8-93.8
			c-4.7-8.6-8.6-18.7-11.4-31.8c-17.4-79.9,29.3-158.1,72.2-212.4c0,0,210.7-222.4,9-403.9L263.7,372.7c0,0-156.5-134.6,17.1-245.3
			c241-127,288.2-231.7,288.9-302.2c1.5-146.4-196.5-211-258.4-440.4c-32.4-120.1-12.4-229.3,6.6-297.5c0,0,21.5-53.2-4.3-82.7
			c-13.7-15.7-33.6-16-61.9-19c-47-5-120.7-12.8-153.8-42.5c-19.7-17.8-38.5-55.5-23.9-146.6"/>
		<path class="st15" d="M469.5,905c-93-51-189.1-124.1-194.3-218c-9-162.3,247-233.6,236.5-383.6c-12.2-174.1-375.6-290.3-412.2-462
			c-15.9-74.7,7.7-126,7.7-126c16.8-36.3,47.8-64.5,55.5-71.4c36.9-33.1,59.4-33.9,71.2-60.8c13.2-30.2-0.8-63.7-4-70.8
			c-27-59.6-93.9-47.1-140.5-116.7c-6.6-9.8-19.9-32.1-25.7-62.9C50.5-737,86.4-795,98.4-812.8"/>
		<path class="st15" d="M323.7-975.9c-1-4.3-1.9-11,0.4-18.1c8.6-26.6,51-28.2,96.7-42.2c27.8-8.5,108.7-33.2,132-91.8
			c5.6-13.9,11.7-39.5,0-78.8"/>
		<path class="st15" d="M319.2-987c38.8-81.9,32.2-123.2,17.9-145.9c-17.1-27.2-49.8-34.9-49.9-60.5c-0.1-21.8,23.3-28.5,32-58.7
			c7-24.4,0.1-48.2-7.4-65.1"/>
	</g>
	<path class="st16" d="M232.1-26.7"/>
	<path class="st14" d="M421.6-412.6c0,0-119.9-168.5-1.8-265.7"/>
	<path class="st16" d="M232.3-26.4"/>
	<text transform="matrix(0.9718 0 0 1 271.5582 -1374.3939)" class="st18 st19" style="font-size:12.3885px;">Travaillez avec </text>
	<text transform="matrix(0.9718 0 0 1 271.5582 -1374.3939)" class="st18" style="font-family:'ArialMT'; font-size:12.3885px;"> </text>
	
		<text transform="matrix(0.9718 0 0 1 271.5582 -1374.3939)" style="display:none;fill:none;stroke:#A94434;stroke-miterlimit:10;enable-background:new    ; font-family:'ArialMT'; font-size:12.3885px;"> </text>
	<text transform="matrix(0.9718 0 0 1 273.9761 -1359.5282)" class="st18 st19" style="font-size:12.3885px;">un partenaire </text>
	<text transform="matrix(0.9718 0 0 1 255.7476 -1344.662)" class="st18 st19" style="font-size:12.3885px;">technologique fiable </text>
	<text transform="matrix(1.0925 0 0 1 263.4254 -1329.1801)" class="st18 st19" style="font-size:12.3885px;">et professionnel</text>
	<rect x="28.9" y="-1303.2" class="st17" width="119.4" height="70"/>
	<text transform="matrix(0.9718 0 0 1 18.3531 -1305.8329)" class="st18 st19" style="font-size:12.3885px;">Innovez, surprenez et </text>
	<text transform="matrix(0.9718 0 0 1 28.275 -1290.9667)" class="st18 st19" style="font-size:12.3885px;">essayer de ne pas </text>
	<text transform="matrix(0.9718 0 0 1 51.2491 -1276.101)" class="st18 st19" style="font-size:12.3885px;">ennuyer</text>
	<rect x="472.2" y="-1341.1" class="st17" width="119.4" height="23.7"/>
	<path class="st13" d="M522.5,2466.5c0.5,0,1,0.1,1.4,0.2l96.7,0c0-0.2,0-0.4,0-0.6v-161.2c-0.2-0.2-0.4-0.4-0.6-0.6
		c-72.8-74.8-259.8,78-493.9,14.5c-67.2-18.2-117.9-48.8-149.2-70.8v218.5H522.5z"/>
	<path class="st14" d="M507.1,1108.4c-64.2,17-59.7,138.9-59.7,138.9"/>
	<rect x="101.7" y="1606" class="st17" width="143.1" height="41.9"/>
	<text transform="matrix(1.0061 0 0 1 -0.4975 1735.8434)" class="st18 st19" style="font-size:11.9659px;">N&apos;envoyez pas d&apos;emails  </text>
	<text transform="matrix(1.0061 0 0 1 -1.5004 1750.2028)" class="st18 st19" style="font-size:11.9659px;">ceux qui ne les attendent </text>
	<text transform="matrix(1.0061 0 0 1 51.7413 1764.5612)" class="st18 st19" style="font-size:11.9659px;">pas. </text>
	<rect x="8.8" y="1175.6" class="st17" width="143.1" height="41.9"/>
	<text transform="matrix(1.0061 0 0 1 5.3819 1189.3492)" class="st18 st19" style="font-size:11.9659px;">Entretenez bien votre base </text>
	<text transform="matrix(1.0061 0 0 1 41.7886 1203.7096)" class="st18 st19" style="font-size:11.9659px;">de donnes.</text>
	<text transform="matrix(1.0061 0 0 1 474.0269 1018.2388)" class="st18 st19" style="font-size:11.9659px;">Traitez vos usagers </text>
	<text transform="matrix(1.0061 0 0 1 474.0269 1018.2388)" class="st18" style="font-family:'ArialMT'; font-size:11.9659px;"> </text>
	
		<text transform="matrix(1.0061 0 0 1 474.0269 1018.2388)" style="display:none;fill:none;stroke:#A94434;stroke-miterlimit:10;enable-background:new    ; font-family:'ArialMT'; font-size:11.9659px;"> </text>
	<text transform="matrix(1.0061 0 0 1 457.1431 1032.5963)" class="st18 st19" style="font-size:11.9659px;">comme des clients et non </text>
	<text transform="matrix(1.0061 0 0 1 474.2779 1046.9547)" class="st18 st19" style="font-size:11.9659px;">comme de simples </text>
	<text transform="matrix(1.0061 0 0 1 474.2779 1046.9547)" class="st18" style="font-family:'ArialMT'; font-size:11.9659px;"> </text>
	
		<text transform="matrix(1.0061 0 0 1 474.2779 1046.9547)" style="display:none;fill:none;stroke:#A94434;stroke-miterlimit:10;enable-background:new    ; font-family:'ArialMT'; font-size:11.9659px;"> </text>
	<text transform="matrix(1.0061 0 0 1 483.6177 1061.3141)" class="st18 st19" style="font-size:11.9659px;">adresses email. </text>
	<text transform="matrix(1.0061 0 0 1 483.6177 1061.3141)" class="st18" style="font-family:'ArialMT'; font-size:11.9659px;">. </text>
	
		<rect x="6.1" y="557.1" transform="matrix(1 -9.038610e-03 9.038610e-03 1 -5.1695 0.7253)" class="st17" width="143.1" height="30.5"/>
	<text transform="matrix(1.006 -9.098468e-03 9.153623e-03 1 -3.6659 580.6541)" class="st18 st19 st20">Identifiez-vous toujours de </text>
	<text transform="matrix(1.006 -9.098468e-03 9.153623e-03 1 37.8861 594.6793)" class="st18 st19 st20">faon claire. </text>
	<text transform="matrix(1.0061 0 0 1 235.0723 -172.2397)" class="st18 st19" style="font-size:11.9326px;">Surveillez continuellement </text>
	<text transform="matrix(1.0535 0 0 1 235.0723 -157.9203)" class="st18 st19" style="font-size:11.9326px;">les rsultats de vos cam</text>
	<text transform="matrix(1.0061 0 0 1 388.9097 -157.9194)" class="st18 st19" style="font-size:11.9326px;">pagnes. </text>
	<text transform="matrix(1.0061 0 0 1 435.0298 -772.537)" class="st18 st19" style="font-size:11.9659px;">Analysez le comportement </text>
	<text transform="matrix(1.0061 0 0 1 431.3677 -758.1782)" class="st18 st19" style="font-size:11.9659px;">de votre base de donnes et </text>
	<text transform="matrix(1.0061 0 0 1 443.0445 -743.8188)" class="st18 st19" style="font-size:11.9659px;">adaptez votre stratgie. </text>
	<text transform="matrix(1.0061 0 0 1 52.5992 -905.7084)" class="st18 st19" style="font-size:11.9659px;">Soignez la conception de </text>
	<text transform="matrix(1.0061 0 0 1 86.1973 -891.3495)" class="st18 st19" style="font-size:11.9659px;">votre email.</text>
	
		<text transform="matrix(0.8718 0 0 1 51.2496 -1601.2108)" class="st18" style="font-family:'Politica-ExtraBold'; font-size:32.8044px;">Les 10 rgles dor de le-mail marketing</text>
	<g id="Calque_5" class="st11">
	</g>
	
		<image style="display:none;overflow:visible;enable-background:new    ;" width="858" height="1080" xlink:href="../../../../Users/Aitoufel/Pictures/image-data-design/databases-with-laptop-data-center-icon-image-vector-18733663.png"  transform="matrix(0.1271 0 0 0.1264 14.3784 1044.238)">
	</image>
	
		<image style="display:none;overflow:visible;enable-background:new    ;" width="272" height="244" xlink:href="../../../../Users/Aitoufel/Pictures/image-data-design/istockphoto-1173282715-170667a.png"  transform="matrix(0.463 0 0 0.4764 14.9897 448.752)">
	</image>
	
		<image style="display:none;overflow:visible;enable-background:new    ;" width="3379" height="2972" xlink:href="../../../../Users/Aitoufel/Pictures/image-data-design/ordi.png"  transform="matrix(3.233391e-02 0 0 3.327312e-02 14.1007 1618.3718)">
	</image>
	<ellipse class="st21" cx="491.4" cy="-871.1" rx="35" ry="34.5"/>
	<polygon class="st21" points="520.5,-835 515.5,-831.9 509.2,-841.6 514.4,-844.7 	"/>
	<path class="st13" d="M542.1-797.5l-3.4,2.2c-1.7,1.1-4,0.5-5.1-1.2l-20.8-33.9l9.7-6.2l20.7,33.9
		C544.3-800.9,543.8-798.5,542.1-797.5z"/>
	<path class="st22" d="M501-954.1"/>
	<path class="st22" d="M502.9-954.8"/>
	<g class="st11">
		<polyline class="st23" points="493.6,-876.5 500.6,-883.5 508.7,-878.4 518.7,-887.5 512.4,-887.5 		"/>
		<line class="st23" x1="519.5" y1="-887.9" x2="519.7" y2="-882.4"/>
	</g>
	<ellipse class="st24" cx="491.4" cy="-871.1" rx="30.7" ry="30.2"/>
	<ellipse class="st25" cx="474.7" cy="-865.5" rx="5" ry="5.1"/>
	
		<image style="display:none;overflow:visible;enable-background:new    ;" width="586" height="388" xlink:href="../../../../Users/Aitoufel/Pictures/image-data-design/png-transparent-computer-icons-contract-handshake-partnership-greeting-miscellaneous-angle-text.png"  transform="matrix(0.1716 0 0 0.1765 475.2759 930.1266)">
	</image>
	
		<image style="display:none;overflow:visible;enable-background:new    ;" width="407" height="331" xlink:href="../../../../Users/Aitoufel/Pictures/image-data-design/socialmediaguide light_v5.png"  transform="matrix(0.3639 0 0 0.3744 224.9098 -1518.4241)">
	</image>
	<ellipse class="st26" cx="64.7" cy="1814.2" rx="28.8" ry="29.6"/>
	<text transform="matrix(0.9718 0 0 1 56.3795 1824.943)" class="st28 st29 st30">1</text>
	<ellipse class="st14" cx="125" cy="1249.6" rx="28.8" ry="29.6"/>
	<text transform="matrix(0.9718 0 0 1 116.7715 1260.0221)" class="st28 st29 st30">2</text>
	<ellipse class="st14" cx="533.8" cy="1102.7" rx="28.8" ry="29.6"/>
	<text transform="matrix(0.9718 0 0 1 525.5406 1113.235)" class="st28 st29 st30">3</text>
	<ellipse class="st27" cx="62.3" cy="635" rx="28.8" ry="29.6"/>
	<text transform="matrix(0.9718 0 0 1 54.8277 645.899)" class="st28 st29 st30">4</text>
	<ellipse class="st14" cx="332.6" cy="-114.3" rx="28.8" ry="29.6"/>
	<text transform="matrix(0.9718 0 0 1 324.314 -102.4682)" class="st28 st29 st30">5</text>
	<ellipse class="st14" cx="545.1" cy="-1233.1" rx="28.8" ry="29.6"/>
	<text transform="matrix(0.9567 0 0 1 536.7603 -1222.4867)" class="st28 st29 st30">8</text>
	<ellipse class="st14" cx="77.1" cy="-1233.1" rx="28.8" ry="29.6"/>
	<text transform="matrix(0.9718 0 0 1 68.7178 -1222.4764)" class="st28 st29 st30">9</text>
	
		<image style="display:none;overflow:visible;enable-background:new    ;" width="1000" height="679" xlink:href="../../../../Users/Aitoufel/Pictures/image-data-design/flat-design-concept-email-send-icon-with-lon-vector-3174589.png"  transform="matrix(0.1385 0 0 0.1377 43.6128 -1009.6587)">
	</image>
	<g id="Calque_4" class="st11">
	</g>
	<g class="st11">
		<g class="st31">
			<g class="st32">
				<g>
					<polygon class="st33" points="319,-238.4 322.4,-224.6 282.2,-211.2 278.8,-225 					"/>
				</g>
				<g class="st32">
					<g>
						<g>
							<g>
								<g>
									<g>
										<defs>
											<path id="SVGID_1_" d="M281.3-213.9l-3.4-13.8c0.2,0.9,0.5,1.9,0.8,2.7l3.4,13.8C281.8-212.1,281.5-213,281.3-213.9z"/>
										</defs>
										<clipPath id="SVGID_2_">
											<use xlink:href="#SVGID_1_"  style="overflow:visible;"/>
										</clipPath>
										<g class="st34">
											<path class="st35" d="M278.8-225l3.4,13.8c-0.3-0.9-0.6-1.9-0.8-2.7l-3.4-13.8C278.1-226.8,278.4-225.8,278.8-225"/>
										</g>
									</g>
								</g>
							</g>
						</g>
					</g>
				</g>
				<g class="st32">
					<g>
						<g>
							<g>
								<g>
									<g>
										<defs>
											<path id="SVGID_3_" d="M297-204.2l3.4,13.8c-11.3-2.8-19-8.8-22.4-17.7l-3.4-13.8C278.1-212.9,285.7-207,297-204.2z"/>
										</defs>
										<clipPath id="SVGID_4_">
											<use xlink:href="#SVGID_3_"  style="overflow:visible;"/>
										</clipPath>
										<g class="st36">
											<path class="st37" d="M297-204.2l3.4,13.8c-11.3-2.8-19-8.8-22.4-17.7l-3.4-13.8C278.1-212.9,285.7-207,297-204.2"/>
										</g>
									</g>
								</g>
							</g>
						</g>
					</g>
				</g>
				<g>
					<path class="st38" d="M297-204.2c-11.3-2.8-19-8.8-22.4-17.7l40.3-13.5L297-204.2z"/>
				</g>
				<g>
					<polygon class="st39" points="315,-235.3 318.4,-221.5 300.5,-190.4 297,-204.2 					"/>
				</g>
				<g class="st32">
					<g>
						<g>
							<g>
								<g>
									<g>
										<defs>
											<path id="SVGID_5_" d="M360.1-249.2l3.4,13.8c3.9,15.7-8.9,33.2-29.9,40.3c-10.1,3.4-19.8,3.9-29.2,1.5l-3.4-13.8
												c9.4,2.3,19.1,1.8,29.2-1.5C351.3-215.9,364.1-233.5,360.1-249.2z"/>
										</defs>
										<clipPath id="SVGID_6_">
											<use xlink:href="#SVGID_5_"  style="overflow:visible;"/>
										</clipPath>
										<g class="st40">
											<path class="st41" d="M360.1-249.2l3.4,13.8c0.2,0.6,0.3,1.3,0.4,2l-3.4-13.8C360.4-247.8,360.3-248.6,360.1-249.2"/>
											<path class="st42" d="M360.5-247.2l3.4,13.8c0.2,1.1,0.3,2.3,0.3,3.3l-3.4-13.8C360.8-244.9,360.7-246.1,360.5-247.2"/>
											<path class="st43" d="M360.8-243.8l3.4,13.8c0,1.2-0.1,2.5-0.2,3.8l-3.4-13.8C360.7-241.3,360.8-242.6,360.8-243.8"/>
											<path class="st33" d="M360.6-240.1l3.4,13.8c-0.2,1.5-0.6,3.2-1.1,4.7l-3.4-13.8C360-236.9,360.4-238.4,360.6-240.1"/>
											<path class="st44" d="M359.5-235.3l3.4,13.8c-2.2,6.7-7,13.2-13.7,18.3l-3.4-13.8C352.5-222.1,357.3-228.6,359.5-235.3"
												/>
											<path class="st33" d="M345.8-217.1l3.4,13.8c-1.5,1.1-3.2,2.3-4.9,3.3l-3.4-13.8C342.7-214.8,344.3-215.8,345.8-217.1"/>
											<path class="st43" d="M340.9-213.8l3.4,13.8c-1.4,0.8-2.8,1.5-4.3,2.3l-3.4-13.8C338.1-212.1,339.6-212.9,340.9-213.8"/>
											<path class="st42" d="M336.6-211.4l3.4,13.8c-1.3,0.6-2.7,1.2-4.1,1.8l-3.4-13.8C333.9-210.3,335.3-210.8,336.6-211.4"/>
											<path class="st41" d="M332.5-209.6l3.4,13.8c-0.7,0.3-1.5,0.5-2.2,0.8c-0.7,0.2-1.4,0.5-2.1,0.7l-3.4-13.8
												c0.7-0.2,1.4-0.4,2.1-0.7C331-209.1,331.8-209.4,332.5-209.6"/>
											<path class="st45" d="M328.1-208.2l3.4,13.8c-1.5,0.4-2.9,0.8-4.4,1.1l-3.4-13.8C325.2-207.4,326.6-207.8,328.1-208.2"/>
											<path class="st46" d="M323.7-207.1l3.4,13.8c-1.4,0.3-2.8,0.5-4.3,0.7l-3.4-13.8C320.9-206.5,322.3-206.8,323.7-207.1"/>
											<path class="st47" d="M319.4-206.3l3.4,13.8c-1.5,0.2-3,0.3-4.5,0.4l-3.4-13.8C316.4-206,317.9-206.1,319.4-206.3"/>
											<path class="st48" d="M314.9-205.9l3.4,13.8c-1.8,0.1-3.7,0.1-5.5-0.1l-3.4-13.8C311.3-205.9,313.1-205.8,314.9-205.9"/>
											<path class="st35" d="M309.4-206l3.4,13.8c-2.8-0.2-5.6-0.6-8.3-1.3l-3.4-13.8C303.9-206.6,306.6-206.2,309.4-206"/>
										</g>
									</g>
								</g>
							</g>
						</g>
					</g>
				</g>
				<g>
					<path class="st49" d="M301.1-207.3l18-31.2L278.7-225c-6.2-16.3,6.8-35.6,29.1-43.1c10.1-3.4,20.4-3.7,29.2-1.5
						c10.5,2.6,19,8.8,22.4,17.7c6.2,16.3-6.8,35.6-29.1,43.1C320.1-205.5,310.5-205,301.1-207.3z"/>
				</g>
			</g>
		</g>
	</g>
	
		<image style="display:none;overflow:visible;enable-background:new    ;" width="1300" height="1071" xlink:href="../../../../Users/Aitoufel/Pictures/image-data-design/innovation-idea-concept-in-flat-design-style-F2TFRR.png"  transform="matrix(0.1096 0 0 0.1127 5.843 -1438.254)">
	</image>
	<ellipse class="st14" cx="447.1" cy="-692.5" rx="30.5" ry="31.4"/>
	<text transform="matrix(0.9718 0 0 1 438.3882 -681.2309)" class="st28 st29" style="font-size:33.0771px;">6</text>
	<ellipse class="st14" cx="112.9" cy="-837" rx="28.8" ry="29.6"/>
	<text transform="matrix(0.9718 0 0 1 104.5469 -826.4858)" class="st28 st29 st30">7</text>
	<path class="st50" d="M440,2383.3"/>
	<path class="st50" d="M400,2400.3c-1.8-9.4,3.3-18.8,12.3-22.9"/>
</g>
</svg>
