<?xml version="1.0" standalone="no"?>
<!DOCTYPE svg PUBLIC "-//W3C//DTD SVG 20010904//EN"
 "http://www.w3.org/TR/2001/REC-SVG-20010904/DTD/svg10.dtd">
<svg version="1.0" xmlns="http://www.w3.org/2000/svg"
 width="690.000000pt" height="690.000000pt" viewBox="0 0 690.000000 690.000000"
 preserveAspectRatio="xMidYMid meet">

<g transform="translate(0.000000,690.000000) scale(0.100000,-0.100000)"
fill="#000000" stroke="none">
<path d="M3220 6779 c-542 -54 -908 -153 -1301 -350 -478 -239 -893 -588
-1212 -1017 -341 -459 -555 -1003 -633 -1607 -21 -163 -24 -570 -5 -735 77
-676 336 -1292 759 -1804 97 -117 321 -341 438 -438 512 -423 1131 -683 1804
-759 167 -19 573 -16 735 5 687 89 1275 345 1790 778 116 97 351 338 440 451
221 279 382 556 508 872 135 339 203 649 238 1088 13 167 6 317 -27 581 -140
1105 -831 2081 -1829 2580 -360 179 -753 296 -1130 336 -319 33 -405 36 -575
19z m1160 -885 c192 -9 385 -33 505 -64 507 -128 858 -499 964 -1020 31 -152
41 -274 51 -620 18 -626 7 -1659 -20 -1905 -41 -368 -152 -629 -362 -851 -190
-201 -423 -326 -711 -383 -237 -47 -455 -56 -1357 -56 -903 0 -1119 9 -1355
56 -283 57 -492 166 -686 359 -231 230 -347 494 -389 885 -26 249 -37 1205
-20 1845 13 479 30 630 96 843 98 314 335 591 634 742 247 124 464 162 985
172 176 3 322 8 325 11 6 6 1178 -6 1340 -14z"/>
<path d="M2650 5463 c-255 -11 -501 -44 -613 -82 -262 -90 -461 -304 -532
-572 -59 -225 -75 -508 -75 -1359 0 -1026 24 -1291 135 -1515 83 -166 204
-287 370 -369 228 -113 476 -136 1515 -136 867 0 1182 18 1387 81 209 64 392
216 492 408 117 228 141 482 141 1531 0 872 -18 1181 -81 1387 -47 152 -148
303 -271 402 -176 143 -377 196 -823 221 -156 8 -1464 11 -1645 3z m2235 -437
c104 -48 168 -149 168 -267 0 -114 -57 -204 -166 -261 -60 -32 -183 -32 -248
0 -247 121 -214 475 51 549 57 16 131 8 195 -21z m-1278 -327 c706 -96 1193
-738 1088 -1434 -73 -480 -415 -878 -877 -1019 -482 -147 -1011 10 -1331 395
-496 597 -354 1468 307 1883 232 145 541 212 813 175z"/>
<path d="M3318 4260 c-88 -16 -163 -42 -253 -88 -74 -38 -108 -64 -191 -146
-83 -83 -108 -117 -147 -192 -72 -141 -91 -223 -91 -384 0 -161 19 -243 91
-384 39 -75 64 -109 147 -192 83 -83 117 -108 192 -147 141 -72 223 -91 384
-91 110 0 150 4 213 22 283 81 497 295 579 579 33 112 33 314 0 427 -80 279
-298 498 -572 576 -84 24 -274 35 -352 20z"/>
</g>
</svg>
