<?xml version="1.0" standalone="no"?>
<!DOCTYPE svg PUBLIC "-//W3C//DTD SVG 20010904//EN"
 "http://www.w3.org/TR/2001/REC-SVG-20010904/DTD/svg10.dtd">
<svg version="1.0" xmlns="http://www.w3.org/2000/svg"
 width="100.000000pt" height="100.000000pt" viewBox="0 0 100.000000 100.000000"
 preserveAspectRatio="xMidYMid meet">

<g transform="translate(0.000000,100.000000) scale(0.100000,-0.100000)"
fill="#000000" stroke="none">
<path d="M360 964 c-162 -43 -288 -158 -341 -311 -27 -79 -27 -247 0 -326 117
-338 552 -436 806 -182 192 192 192 498 0 690 -122 122 -302 172 -465 129z
m-36 -126 c24 -34 20 -73 -10 -97 -15 -12 -35 -21 -46 -21 -27 0 -68 45 -68
75 0 59 91 90 124 43z m6 -403 l0 -225 -60 0 -60 0 0 225 0 225 60 0 60 0 0
-225z m210 193 l0 -31 23 20 c36 34 63 43 121 43 45 0 60 -5 87 -27 52 -44 59
-74 59 -258 l0 -165 -59 0 -60 0 -3 144 c-3 123 -6 147 -22 164 -22 25 -51 31
-89 19 -47 -15 -57 -51 -57 -197 l0 -130 -60 0 -60 0 0 225 0 225 60 0 60 0 0
-32z"/>
</g>
</svg>
