<?xml version="1.0" standalone="no"?>
<!DOCTYPE svg PUBLIC "-//W3C//DTD SVG 20010904//EN"
 "http://www.w3.org/TR/2001/REC-SVG-20010904/DTD/svg10.dtd">
<svg version="1.0" xmlns="http://www.w3.org/2000/svg"
 width="626.000000pt" height="440.000000pt" viewBox="0 0 626.000000 440.000000"
 preserveAspectRatio="xMidYMid meet">

<g transform="translate(0.000000,440.000000) scale(0.100000,-0.100000)"
fill="#000000" stroke="none">
<path d="M2840 4397 c-3 -2 -174 -7 -380 -11 -932 -16 -1594 -65 -1805 -132
-144 -47 -288 -148 -379 -267 -118 -157 -165 -309 -210 -687 -48 -397 -73
-1040 -56 -1440 30 -691 84 -1107 170 -1296 88 -195 264 -350 475 -418 578
-186 4372 -186 4950 0 211 68 387 223 475 418 97 214 161 773 174 1526 10 580
-48 1302 -129 1607 -59 223 -199 401 -395 502 -89 46 -147 65 -255 85 -251 46
-672 74 -1525 101 -268 8 -1104 18 -1110 12z m474 -1741 l807 -459 -28 -18
c-29 -18 -1541 -877 -1580 -898 l-23 -12 0 926 c0 510 4 925 8 923 5 -1 372
-210 816 -462z"/>
</g>
</svg>
